<ttFont>
<head>
    <!-- Most of this table will be recalculated by the compiler -->
    <tableVersion value="1.0"/>
    <fontRevision value="0.2"/>
    <checkSumAdjustment value="0xa4459ffc"/>
    <magicNumber value="0x5f0f3cf5"/>
    <flags value="00000000 00000011"/>
    <unitsPerEm value="1000"/>
    <created value="Sun May 21 00:26:31 2017"/>
    <modified value="Sun May 21 00:26:31 2017"/>
    <xMin value="-572"/>
    <yMin value="-602"/>
    <xMax value="2430"/>
    <yMax value="970"/>
    <macStyle value="00000000 00000000"/>
    <lowestRecPPEM value="3"/>
    <fontDirectionHint value="2"/>
    <indexToLocFormat value="0"/>
    <glyphDataFormat value="0"/>
  </head>
          <CharString index="0">
            155 callsubr
            50 60 callgsubr
            -140 -73 callsubr
            hvcurveto
            2 -78 return
          </CharString>
          <CharString index="1">
            rmoveto
            -105 callgsubr
            return
          </CharString>
          <CharString index="2">
            -107 411 -104 callgsubr
            return
          </CharString>
          <CharString index="3">
            rmoveto
            122 85 callgsubr
            9 vvcurveto
            30 15 19 38 37 15 -19 -45 -59 -46 -40 -107 vhcurveto
            -95 -120 hlineto
            206 -214 -102 callgsubr
            return
          </CharString>
          <CharString index="4">
            hhcurveto
            -56 -24 10 48 39 15 12 61 27 25 -3 -3 19 hvcurveto
            2 1 rlineto
            92 vlineto
            7 -30 -39 5 -41 hhcurveto
            -126 -47 -38 -107 -115 51 -53 150 15 hvcurveto
            1 -2 rlineto
            return
          </CharString>
          <CharString index="5">
            -81 -30 -88 callgsubr
            115 vlineto
            10 -39 -43 6 -50 hhcurveto
            return
          </CharString>
          <CharString index="6">
            rmoveto
            -54 vlineto
            -1 8 6 -1 7 hhcurveto
            73 42 31 98 75 -28 41 -70 -68 -23 -27 -50 -48 27 -26 51 22 17 4 6 10 hvcurveto
            1 -1 rlineto
            -35 -20 -12 -40 -5 -3 0 1 -6 vhcurveto
            return
          </CharString>
          <CharString index="7">
            148 -91 callgsubr
            return
          </CharString>
          <CharString index="8">
            -36 364 183 rmoveto
            -46 -1 -41 -19 -83 hhcurveto
            -42 -25 10 34 28 20 18 59 hvcurveto
            113 hlineto
            -300 270 rmoveto
            -1 -116 275 callgsubr
            42 60 11 59 hhcurveto
            94 32 -14 -57 9 hvcurveto
            -148 hlineto
            -131 -58 -56 -92 -107 59 -55 114 85 52 21 34 26 hvcurveto
            3 hlineto
            5 -46 rlineto
            145 244 hlineto
            202 -78 46 -191 -61 -80 -11 -12 -40 vhcurveto
            return
          </CharString>
          <CharString index="9">
            -39 -14 -11 -30 -13 -14 3 3 -11 vhcurveto
            -2 -112 hlineto
            -12 29 36 -8 44 hhcurveto
            80 37 52 69 hvcurveto
            return
          </CharString>
          <CharString index="10">
            60 607 rmoveto
            -100 -75 callsubr
            -100 17 hlineto
            67 return
          </CharString>
          <CharString index="11">
            -56 171 306 rmoveto
            47 18 31 84 86 16 -31 -47 vhcurveto
            114 -281 rmoveto
            111 vlineto
            -4 3 rlineto
            -7 -48 -40 -3 -69 hhcurveto
            -104 -40 13 59 -10 hvcurveto
            329 hlineto
            4 4 rlineto
            5 28 2 31 25 vvcurveto
            130 -60 82 -181 -170 -78 -74 -176 -194 96 -57 173 90 67 11 14 38 vhcurveto
            return
          </CharString>
          <CharString index="12">
            200 -106 callsubr
            return
          </CharString>
          <CharString index="13">
            283 hlineto
            -103 callgsubr
            return
          </CharString>
          <CharString index="14">
            rmoveto
            1 -11 -12 1 -14 hhcurveto
            -48 -33 -26 -34 -21 hvcurveto
            -5 hlineto
            20 -37 -52 10 -71 hhcurveto
            -171 -61 -57 -107 -54 14 -41 34 -26 hvcurveto
            -3 vlineto
            -35 -16 -22 -29 -37 vvcurveto
            -41 19 -30 44 -18 vhcurveto
            -3 vlineto
            -44 -11 -27 -33 -46 vvcurveto
            -85 72 -46 167 203 77 59 109 111 -61 30 -122 vhcurveto
            -144 hlineto
            -35 -12 15 22 7 1 6 3 6 hvcurveto
            -5 28 33 -3 39 hhcurveto
            168 62 47 115 26 -4 23 -7 20 hvcurveto
            3 12 14 1 14 hhcurveto
            18 13 -1 -3 14 hvcurveto
            -409 -425 rmoveto
            23 13 15 27 vhcurveto
            153 hlineto
            27 13 -15 -23 -30 -14 -15 -105 -97 -17 15 30 hvcurveto
            return
          </CharString>
          <CharString index="15">
            -21 -14 -64 -47 -38 6 8 -32 hvcurveto
            -2 -1 rlineto
            -114 vlineto
            -12 42 53 -8 67 hhcurveto
            return
          </CharString>
          <CharString index="16">
            55 323 528 rmoveto
            4 hlineto
            13 -68 28 -104 29 -101 rrcurveto
            -143 hlineto
            28 101 28 104 13 68 rrcurveto
            147 -519 rmoveto
            170 3 hlineto
            -205 630 rlineto
            -220 hlineto
            -205 -631 rlineto
            -2 170 vlineto
            10 32 13 42 14 47 rrcurveto
            216 hlineto
            14 -47 13 -42 10 -32 rrcurveto
            return
          </CharString>
          <CharString index="17">
            47 callsubr
            129 -86 callsubr
            return
          </CharString>
          <CharString index="18">
            106 351 hmoveto
            242 68 83 243 241 -68 84 -242 -242 -69 -84 -241 -243 69 -83 242 hvcurveto
            -151 326 rmoveto
            143 24 42 127 128 22 -42 -143 -147 -22 -39 -128 -127 -24 39 147 vhcurveto
            return
          </CharString>
          <CharString index="19">
            rmoveto
            -71 -19 19 50 hvcurveto
            203 163 -260 vlineto
            -8 -20 -25 -4 -28 hhcurveto
            return
          </CharString>
          <CharString index="20">
            rmoveto
            -24 -23 -2 -5 -25 hvcurveto
            -2 -20 -1 -16 -14 vvcurveto
            -14 1 -18 2 -19 vhcurveto
            -5 25 23 -2 22 hhcurveto
            24 23 2 5 26 hvcurveto
            1 216 callgsubr
            14 -1 16 -1 20 vhcurveto
            5 -25 -23 2 -23 hhcurveto
            endchar
          </CharString>
          <CharString index="21">
            -68 callsubr
            85 callgsubr
            7 vvcurveto
            26 12 19 35 34 14 -16 -40 -59 -36 -19 -92 vhcurveto
            return
          </CharString>
          <CharString index="22">
            -1 rlineto
            -80 callgsubr
            return
          </CharString>
          <CharString index="23">
            -54 -10 hvcurveto
            -3 hlineto
            57 -9 -50 37 -104 hhcurveto
            -123 -56 -58 -126 return
          </CharString>
          <CharString index="24">
            297 635 218 rmoveto
            -2 hlineto
            -30 141 -30 142 -30 141 rrcurveto
            -194 hlineto
            -35 -141 -26 -122 -29 -161 rrcurveto
            -2 hlineto
            -25 161 -20 122 -29 141 rrcurveto
            -163 hlineto
            134 -633 rlineto
            195 hlineto
            37 142 28 130 31 155 rrcurveto
            2 hlineto
            26 -155 29 -130 41 -142 rrcurveto
            195 hlineto
            134 633 rlineto
            -163 hlineto
            -25 -141 -24 -142 -25 -141 rrcurveto
            return
          </CharString>
          <CharString index="25">
            275 hmoveto
            182 68 73 176 178 -68 74 -182 -181 -69 -74 -178 -176 69 -73 181 hvcurveto
            -99 252 rmoveto
            81 24 33 75 77 22 -33 -81 -86 -22 -29 -77 -75 -24 29 86 vhcurveto
            return
          </CharString>
          <CharString index="26">
            12 40 169 rmoveto
            -141 vlineto
            -18 70 71 -10 94 hhcurveto
            213 79 66 134 110 -39 59 -160 18 hvcurveto
            -63 callgsubr
            return
          </CharString>
          <CharString index="27">
            -25 61 -13 63 65 vvcurveto
            71 23 20 50 46 21 -20 -81 vhcurveto
            return
          </CharString>
          <CharString index="28">
            -491 -100 callsubr
            return
          </CharString>
          <CharString index="29">
            73 448 642 rmoveto
            -370 vlineto
            -103 -22 -29 -87 -95 -24 29 103 vhcurveto
            370 -160 -373 vlineto
            -196 59 -73 220 211 58 73 196 vhcurveto
            373 vlineto
            return
          </CharString>
          <CharString index="30">
            -42 callgsubr
            175 -51 hlineto
            -63 -9 -38 -32 -93 vvcurveto
            -24 3 -28 7 -25 vhcurveto
            110 2 hlineto
            -4 17 -3 20 18 vvcurveto
            46 8 15 33 33 10 -15 -46 -43 -1 -49 -16 -27 vhcurveto
            -36 -21 -53 -18 -95 hhcurveto
            return
          </CharString>
          <CharString index="31">
            -86 35 145 rmoveto
            -123 vlineto
            -12 58 75 -10 88 hhcurveto
            173 55 38 114 257 callsubr
            hvcurveto
            -73 14 rlineto
            -87 16 -7 5 20 vvcurveto
            25 21 7 63 64 57 -8 -18 56 vhcurveto
            3 3 2 121 rlineto
            15 -47 -70 11 -92 hhcurveto
            -153 -67 -35 -117 -87 41 -38 102 -20 hvcurveto
            79 -15 rlineto
            49 -10 13 1 -23 vvcurveto
            -25 -16 -7 -92 -65 -55 7 15 -53 vhcurveto
            return
          </CharString>
          <CharString index="32">
            -107 100 -79 callsubr
            return
          </CharString>
          <CharString index="33">
            -81 callgsubr
            37 42 -8 -12 26 vhcurveto
            -258 -100 callsubr
            return
          </CharString>
          <CharString index="34">
            -142 51 -46 165 57 56 10 15 30 return
          </CharString>
          <CharString index="35">
            -63 callsubr
            81 25 20 52 return
          </CharString>
          <CharString index="36">
            -40 -39 -94 callgsubr
            return
          </CharString>
          <CharString index="37">
            rmoveto
            -27 -27 -2 -6 -27 hvcurveto
            -3 -24 -1 -20 -17 vvcurveto
            -19 1 -18 3 -23 vhcurveto
            -5 27 25 -3 26 hhcurveto
            26 27 3 5 28 hvcurveto
            2 24 1 18 19 vvcurveto
            17 -1 19 -2 24 vhcurveto
            6 -27 -26 2 -25 hhcurveto
            return
          </CharString>
          <CharString index="38">
            -68 callgsubr
            endchar
          </CharString>
          <CharString index="39">
            66 59 121 116 -60 57 -114 -114 -63 -44 -107 -11 1 -11 2 -11 hvcurveto
            123 return
          </CharString>
          <CharString index="40">
            hvcurveto
            121 7 43 43 return
          </CharString>
          <CharString index="41">
            149 -91 callgsubr
            return
          </CharString>
          <CharString index="42">
            -76 -53 callgsubr
            return
          </CharString>
          <CharString index="43">
            vlineto
            43 12 21 44 14 16 -2 -2 12 vhcurveto
            2 92 hlineto
            5 -20 -24 3 -19 hhcurveto
            -84 -47 -35 -86 hvcurveto
            return
          </CharString>
          <CharString index="44">
            -80 callsubr
            -67 132 67 vlineto
            return
          </CharString>
          <CharString index="45">
            -126 435 153 rmoveto
            -6 -48 -41 -4 -46 hhcurveto
            -89 -30 13 90 79 30 30 89 44 47 -4 -8 40 hvcurveto
            3 2 -1 134 rlineto
            13 -41 -73 9 -59 hhcurveto
            -148 -88 -56 -197 1 hvcurveto
            -192 1 76 -56 159 hhcurveto
            73 71 7 13 34 hvcurveto
            130 vlineto
            return
          </CharString>
          <CharString index="46">
            95 630 642 rmoveto
            -633 -159 vlineto
            -180 268 -42 63 -16 27 -30 60 rlinecurve
            -3 -4 rlineto
            18 -64 2 -54 -52 vvcurveto
            -244 -160 633 159 vlineto
            180 -268 42 -63 16 -27 30 -60 rlinecurve
            3 4 rlineto
            -13 56 -7 52 52 vvcurveto
            254 vlineto
            return
          </CharString>
          <CharString index="47">
            228 callsubr
            43 -38 15 hvcurveto
            2 return
          </CharString>
          <CharString index="48">
            329 rmoveto
            171 329 -118 vlineto
            -21 -3 -16 -8 -13 vhcurveto
            -6 2 -6 2 -7 2 rrcurveto
            -2 hlineto
            8 -26 -58 8 -48 hhcurveto
            -57 -68 -10 -15 -38 hvcurveto
            475 93 rmoveto
            78 return
          </CharString>
          <CharString index="49">
            rmoveto
            5 -25 -25 2 -24 hhcurveto
            -25 -25 -2 -5 -25 hvcurveto
            -3 -22 -1 -17 -15 vvcurveto
            -16 1 -16 3 -21 vhcurveto
            -5 25 24 -3 24 hhcurveto
            25 25 3 5 26 hvcurveto
            2 22 1 16 16 vvcurveto
            16 -1 15 -2 22 vhcurveto
            return
          </CharString>
          <CharString index="50">
            -107 411 -296 hlineto
            -24 callsubr
            return
          </CharString>
          <CharString index="51">
            -2 -2 rlineto
            17 -15 -25 9 -31 hhcurveto
            -86 -34 -36 -57 -10 hvcurveto
            -3 hlineto
            57 -9 -47 37 -105 hhcurveto
            return
          </CharString>
          <CharString index="52">
            99 callsubr
            125 vlineto
            38 -2 24 -10 28 vhcurveto
            3 3 rlineto
            -12 28 return
          </CharString>
          <CharString index="53">
            -58 callgsubr
            91 return
          </CharString>
          <CharString index="54">
            rmoveto
            -3 hlineto
            -8 89 rlineto
            -152 -487 160 251 hlineto
            69 1 21 26 59 177 callsubr
            161 -54 58 -116 -86 -45 -34 -60 -19 vhcurveto
            return
          </CharString>
          <CharString index="55">
            -90 148 -51 callsubr
            return
          </CharString>
          <CharString index="56">
            256 callgsubr
            -377 vlineto
            -21 -45 -53 -13 -54 -95 callgsubr
            return
          </CharString>
          <CharString index="57">
            1110 534 -59 callsubr
            486 -5 callsubr
            -108 -68 -25 -78 -17 hvcurveto
            -191 hlineto
            -39 callsubr
            348 -416 rmoveto
            3 vlineto
            -74 callsubr
            -1770 -105 callsubr
            148 202 hlineto
            9 callgsubr
            279 vlineto
            8 -62 19 -61 27 -66 rrcurveto
            endchar
          </CharString>
          <CharString index="58">
            vvcurveto
            -140 60 -55 162 58 callgsubr
            vhcurveto
            -28 callsubr
            return
          </CharString>
          <CharString index="59">
            -36 vlineto
            -51 callgsubr
            return
          </CharString>
          <CharString index="60">
            -43 callgsubr
            endchar
          </CharString>
          <CharString index="61">
            67 52 8 16 47 return
          </CharString>
          <CharString index="62">
            22 callgsubr
            -124 44 callsubr
            4 292 -186 -100 callsubr
            return
          </CharString>
          <CharString index="63">
            rmoveto
            5 vlineto
            -72 callsubr
            return
          </CharString>
          <CharString index="64">
            rmoveto
            3 vlineto
            -81 callgsubr
            return
          </CharString>
          <CharString index="65">
            265 callgsubr
            148 return
          </CharString>
          <CharString index="66">
            173 callsubr
            1 8 8 0 10 hhcurveto
            return
          </CharString>
          <CharString index="67">
            -81 callgsubr
            32 35 -5 -9 31 vhcurveto
            -130 16 94 -67 165 -97 callgsubr
            return
          </CharString>
          <CharString index="68">
            29 24 12 35 54 vvcurveto
            return
          </CharString>
          <CharString index="69">
            rmoveto
            -87 callgsubr
            return
          </CharString>
          <CharString index="70">
            -58 116 -177 rmoveto
            164 hlineto
            257 670 rlineto
            3 -172 vlineto
            -40 -107 -32 -105 -20 -111 rrcurveto
            -2 hlineto
            -20 112 -35 105 -37 106 rrcurveto
            -179 -2 hlineto
            193 -486 -77 -183 rlineto
            return
          </CharString>
          <CharString index="71">
            3 -1 rlineto
            10 36 45 7 40 hhcurveto
            62 18 -18 -34 -39 -22 -13 -62 hvcurveto
            -64 -120 75 hlineto
            52 21 -14 -40 -43 -23 -13 -60 -56 -50 8 22 -52 hvcurveto
            -5 -122 hlineto
            43 -22 79 -13 76 2 131 4 53 52 7 77 rrcurveto
            125 -159 -18 callgsubr
            return
          </CharString>
          <CharString index="72">
            41 hlineto
            86 8 -9 -27 -30 -17 -6 -97 -66 -73 9 13 -58 hvcurveto
            -5 -3 266 callgsubr
            -10 53 84 -10 95 hhcurveto
            return
          </CharString>
          <CharString index="73">
            -107 100 -185 vlineto
            -27 callsubr
            return
          </CharString>
          <CharString index="74">
            103 callgsubr
            23 -19 97 84 21 12 68 4 hvcurveto
            return
          </CharString>
          <CharString index="75">
            -33 -26 -17 -46 -44 4 callgsubr
            -45 -14 18 36 29 11 29 17 26 hvcurveto
            return
          </CharString>
          <CharString index="76">
            hhcurveto
            -104 -71 callsubr
            return
          </CharString>
          <CharString index="77">
            -2 -75 callgsubr
            return
          </CharString>
          <CharString index="78">
            -64 -71 -47 21 31 -44 hvcurveto
            -136 95 rlineto
            15 hlineto
            -9 callgsubr
            -122 -64 42 callsubr
            71 50 14 25 36 hvcurveto
            1 hlineto
            -25 31 52 -14 79 hhcurveto
            -422 190 rmoveto
            21 3 16 6 12 vhcurveto
            167 -117 rlineto
            -2 vlineto
            -7 -14 -29 -4 -25 hhcurveto
            -74 -34 17 64 hvcurveto
            endchar
          </CharString>
          <CharString index="79">
            3 -1 rlineto
            -75 -100 callsubr
            return
          </CharString>
          <CharString index="80">
            -151 47 -61 161 89 callgsubr
            225 callsubr
            -113 return
          </CharString>
          <CharString index="81">
            -36 -57 -10 hvcurveto
            -3 hlineto
            57 -9 -47 37 -105 hhcurveto
            -121 -64 -54 -130 216 callsubr
            hvcurveto
            64 callsubr
            return
          </CharString>
          <CharString index="82">
            rmoveto
            80 25 11 115 115 25 -11 -80 -80 -25 -21 -115 -115 -25 16 85 vhcurveto
            return
          </CharString>
          <CharString index="83">
            -107 callsubr
            148 return
          </CharString>
          <CharString index="84">
            -107 60 -217 -151 hlineto
            -20 26 -31 16 -47 3 rrcurveto
            4 vlineto
            93 11 29 47 83 vvcurveto
            88 -48 55 -132 -61 -56 -10 -16 -48 vhcurveto
            return
          </CharString>
          <CharString index="85">
            hhcurveto
            68 28 -10 -24 19 hvcurveto
            4 hlineto
            86 78 rlineto
            51 -28 -56 22 -102 hhcurveto
            -66 callgsubr
            return
          </CharString>
          <CharString index="86">
            165 callgsubr
            -32 hlineto
            38 callgsubr
            return
          </CharString>
          <CharString index="87">
            243 -17 callsubr
            return
          </CharString>
          <CharString index="88">
            rmoveto
            -69 callgsubr
            return
          </CharString>
          <CharString index="89">
            14 hlineto
            70 -2 18 -6 -16 vvcurveto
            -15 -16 -7 -54 -41 -17 3 3 -12 vhcurveto
            -5 -3 rlineto
            -77 vlineto
            -5 26 24 -2 54 hhcurveto
            109 callsubr
            return
          </CharString>
          <CharString index="90">
            4 -107 callgsubr
            return
          </CharString>
          <CharString index="91">
            -2 vlineto
            -25 -10 -23 -35 -43 vvcurveto
            -61 40 -43 76 -3 vhcurveto
            -4 return
          </CharString>
          <CharString index="92">
            rmoveto
            -16 -1 -16 -2 -21 vhcurveto
            -5 -26 -25 -3 -25 hhcurveto
            -24 -24 3 5 -25 hvcurveto
            -3 20 -1 16 16 vvcurveto
            15 1 17 3 22 vhcurveto
            5 25 25 2 25 hhcurveto
            24 25 -2 -5 25 hvcurveto
            2 -22 1 -15 -16 vvcurveto
            return
          </CharString>
          <CharString index="93">
            rmoveto
            -57 -4 -11 -86 1 vhcurveto
            -86 1 -7 9 57 vvcurveto
            -108 hlineto
            -125 25 -30 176 166 31 30 125 vhcurveto
            endchar
          </CharString>
          <CharString index="94">
            55 61 11 18 37 hvcurveto
            -28 callsubr
            return
          </CharString>
          <CharString index="95">
            -16 -32 -35 -7 -50 hhcurveto
            return
          </CharString>
          <CharString index="96">
            vlineto
            -122 -35 -39 -72 -61 38 callsubr
            -74 151 callgsubr
            return
          </CharString>
          <CharString index="97">
            34 16 17 45 21 25 -2 -3 24 vhcurveto
            3 2 rlineto
            112 vlineto
            9 -27 -36 9 -43 hhcurveto
            -121 -62 -54 -132 hvcurveto
            return
          </CharString>
          <CharString index="98">
            2 vlineto
            -1 5 0 8 4 vvcurveto
            32 11 20 return
          </CharString>
          <CharString index="99">
            228 -88 callsubr
            return
          </CharString>
          <CharString index="100">
            -106 callsubr
            endchar
          </CharString>
          <CharString index="101">
            rmoveto
            -110 -42 15 25 -5 -67 callsubr
            132 vvcurveto
            78 149 -272 vlineto
            -20 -43 -50 -8 -63 hhcurveto
            return
          </CharString>
          <CharString index="102">
            -110 vlineto
            -2 -1 rlineto
            15 -35 -54 8 -52 hhcurveto
            return
          </CharString>
          <CharString index="103">
            rmoveto
            107 -817 -107 263 -67 vlineto
            -68 -17 -14 -106 vhcurveto
            -48 -150 hlineto
            -153 38 -42 220 170 38 57 75 -2 vhcurveto
            2 1 rlineto
            -20 29 58 -4 41 2 3 0 2 hhcurveto
            -1 vlineto
            -59 -42 -64 -62 -58 -69 134 callgsubr
            139 202 rlineto
            98 vlineto
            -2 2 rlineto
            -14 -32 -49 -9 -47 hhcurveto
            -68 -39 -13 callgsubr
            -100 -15 14 59 hvcurveto
            39 4 vlineto
            115 55 53 113 hvcurveto
            93 vlineto
            endchar
          </CharString>
          <CharString index="104">
            -85 106 callsubr
            return
          </CharString>
          <CharString index="105">
            hlineto
            -23 -15 4 25 25 15 4 23 hvcurveto
            return
          </CharString>
          <CharString index="106">
            -122 -52 -34 -95 -96 45 -37 117 hvcurveto
            return
          </CharString>
          <CharString index="107">
            -102 callgsubr
            endchar
          </CharString>
          <CharString index="108">
            27 callsubr
            -5 -125 hlineto
            -17 53 63 -11 79 hhcurveto
            return
          </CharString>
          <CharString index="109">
            512 743 255 callgsubr
            22 48 -1 hvcurveto
            121 7 43 49 102 vvcurveto
            72 149 -272 vlineto
            -20 -43 -50 -8 -63 hhcurveto
            -570 -200 rmoveto
            163 callgsubr
            127 hlineto
            -128 19 94 -64 161 -97 callgsubr
            -1192 -107 653 -30 vlineto
            -72 -11 -20 -60 -4 vhcurveto
            -453 41 callgsubr
            return
          </CharString>
          <CharString index="110">
            vlineto
            -98 callsubr
            return
          </CharString>
          <CharString index="111">
            -16 callsubr
            vlineto
            -76 -10 -32 -43 -73 vvcurveto
            return
          </CharString>
          <CharString index="112">
            -65 -23 17 63 hvcurveto
            195 return
          </CharString>
          <CharString index="113">
            rmoveto
            -65 -33 17 70 hvcurveto
            125 178 -198 vlineto
            -8 -22 -29 -6 -29 hhcurveto
            return
          </CharString>
          <CharString index="114">
            -95 callgsubr
            -115 return
          </CharString>
          <CharString index="115">
            14 callsubr
            endchar
          </CharString>
          <CharString index="116">
            23 -7 callgsubr
            return
          </CharString>
          <CharString index="117">
            394 rmoveto
            252 callsubr
            330 -36 hlineto
            -76 -12 -18 -69 -3 vhcurveto
            19 -29 -36 8 -39 hhcurveto
            320 -194 -106 callsubr
            return
          </CharString>
          <CharString index="118">
            rmoveto
            107 -868 43 callsubr
            9 51 -22 callsubr
            -2 91 hlineto
            endchar
          </CharString>
          <CharString index="119">
            rmoveto
            29 -5 22 0 vhcurveto
            -112 hlineto
            1 -6 1 -6 -5 vvcurveto
            -28 -16 -11 -23 vhcurveto
            -65 -106 69 -73 hhcurveto
            -66 -52 -37 -86 -27 4 -24 0 hvcurveto
            112 hlineto
            -1 6 -1 6 5 vvcurveto
            27 16 12 24 vhcurveto
            64 107 -69 72 hhcurveto
            67 52 37 86 hvcurveto
            return
          </CharString>
          <CharString index="120">
            rrcurveto
            303 callgsubr
            43 -57 callgsubr
            -96 80 -41 132 return
          </CharString>
          <CharString index="121">
            -116 30 hlineto
            82 19 -18 -60 -74 -92 callsubr
            return
          </CharString>
          <CharString index="122">
            rmoveto
            -40 -16 -15 -63 -56 -23 15 40 35 23 22 56 63 16 -22 -35 vhcurveto
            return
          </CharString>
          <CharString index="123">
            136 -37 49 -125 vhcurveto
            -160 -107 123 151 callsubr
            return
          </CharString>
          <CharString index="124">
            147 62 478 rmoveto
            -36 callsubr
            100 107 -308 -23 callsubr
            return
          </CharString>
          <CharString index="125">
            4 callsubr
            -78 55 -52 127 -20 vhcurveto
            -63 -118 225 callgsubr
            41 113 rlineto
            4 hlineto
            4 hlineto
            43 -113 rlineto
            149 4 hlineto
            -70 return
          </CharString>
          <CharString index="126">
            -6 -11 -35 -21 -15 2 3 -14 vhcurveto
            -3 -2 rlineto
            -129 vlineto
            -9 31 34 -5 42 hhcurveto
            108 39 41 143 hvcurveto
            return
          </CharString>
          <CharString index="127">
            78 163 -191 -204 88 callsubr
            return
          </CharString>
          <CharString index="128">
            189 callgsubr
            -129 31 -54 113 -18 vhcurveto
            -66 -123 225 callgsubr
            43 119 rlineto
            3 hlineto
            1 hlineto
            45 -119 rlineto
            149 4 hlineto
            -71 122 rlineto
            117 17 32 54 131 vvcurveto
            141 callsubr
            vhcurveto
            293 callsubr
            vlineto
            -478 -383 -25 callsubr
            endchar
          </CharString>
          <CharString index="129">
            -51 hlineto
            -41 -9 8 22 24 9 6 41 hvcurveto
            230 159 return
          </CharString>
          <CharString index="130">
            rcurveline
            144 callsubr
            return
          </CharString>
          <CharString index="131">
            vlineto
            174 -80 41 -192 vhcurveto
            -199 26 callgsubr
            213 hlineto
            81 43 -10 -67 hvcurveto
            return
          </CharString>
          <CharString index="132">
            hlineto
            -117 82 -49 155 57 60 7 11 31 225 callsubr
            return
          </CharString>
          <CharString index="133">
            152 callgsubr
            153 1 rlineto
            return
          </CharString>
          <CharString index="134">
            hhcurveto
            -49 -47 -9 -12 -30 hvcurveto
            2 -119 68 callsubr
            -61 -54 -13 -12 -74 -53 -53 7 14 -47 hvcurveto
            return
          </CharString>
          <CharString index="135">
            61 callgsubr
            150 107 -50 return
          </CharString>
          <CharString index="136">
            -118 vlineto
            48 callgsubr
            return
          </CharString>
          <CharString index="137">
            182 callsubr
            70 -51 171 14 16 1 2 18 vhcurveto
            -1 -2 rlineto
            -3 vlineto
            -46 -32 -37 -36 -28 -38 rrcurveto
            -4 165 vlineto
            119 152 rlineto
            99 vlineto
            -18 -45 -73 -13 -61 hhcurveto
            -115 -22 13 28 221 callgsubr
            endchar
          </CharString>
          <CharString index="138">
            rmoveto
            75 33 12 78 77 24 -12 -75 -73 -24 -14 -77 -78 -33 14 73 vhcurveto
            351 hmoveto
            75 33 12 68 87 24 -12 -75 -73 -24 -14 -87 -68 -33 14 73 vhcurveto
            401 287 rmoveto
            107 -940 -107 return
          </CharString>
          <CharString index="139">
            -107 100 -183 hlineto
            -174 59 -43 161 return
          </CharString>
          <CharString index="140">
            191 callsubr
            -50 133 hvcurveto
            136 callgsubr
            175 vlineto
            46 callgsubr
            hlineto
            return
          </CharString>
          <CharString index="141">
            -47 callgsubr
            -121 -64 -54 -130 return
          </CharString>
          <CharString index="142">
            60 270 callsubr
            -100 return
          </CharString>
          <CharString index="143">
            rmoveto
            -48 -5 -10 -75 1 vhcurveto
            -75 1 -8 8 48 vvcurveto
            -130 hlineto
            -133 26 -30 187 176 33 302 callsubr
          </CharString>
          <CharString index="144">
            500 rmoveto
            157 -213 hlineto
            -157 -1 rlineto
            return
          </CharString>
          <CharString index="145">
            117 callsubr
            -54 -10 -31 -27 return
          </CharString>
          <CharString index="146">
            67 callgsubr
            29 115 -29 hlineto
            -83 -22 16 36 36 12 17 63 hvcurveto
            14 107 return
          </CharString>
          <CharString index="147">
            325 930 107 callgsubr
            -938 -107 380 -122 vlineto
            16 -28 -58 13 -63 hhcurveto
            -133 -57 -37 -157 hvcurveto
            148 284 callgsubr
            -4 vlineto
            -107 -54 -164 -110 -100 -76 249 callgsubr
            241 144 hlineto
            34 23 3 7 14 hvcurveto
            2 -1 rlineto
            return
          </CharString>
          <CharString index="148">
            26 callsubr
            -220 149 491 return
          </CharString>
          <CharString index="149">
            -47 -140 56 callsubr
            return
          </CharString>
          <CharString index="150">
            -107 411 -286 vlineto
            -16 -34 -41 -7 -48 hhcurveto
            184 callgsubr
            -122 -46 -46 -130 -128 51 -46 165 hvcurveto
            167 callgsubr
            return
          </CharString>
          <CharString index="151">
            -413 rmoveto
            166 2 hlineto
            -39 57 -67 79 -65 44 rrcurveto
            return
          </CharString>
          <CharString index="152">
            -333 211 202 callsubr
            -487 160 hlineto
            return
          </CharString>
          <CharString index="153">
            176 callgsubr
            endchar
          </CharString>
          <CharString index="154">
            -3 hvcurveto
            -1 13 14 -1 12 hhcurveto
            return
          </CharString>
          <CharString index="155">
            vlineto
            111 callgsubr
            -8 0 -8 1 -6 hvcurveto
            -4 -1 -4 -1 -4 -1 240 callgsubr
            23 callsubr
            -139 69 -49 165 124 92 22 38 79 hvcurveto
            3 hlineto
            137 callsubr
            return
          </CharString>
          <CharString index="156">
            rmoveto
            22 8 11 26 26 9 -11 -22 -23 -9 -11 -26 -26 -8 11 23 vhcurveto
            34 96 rmoveto
            -69 -31 -32 -66 -64 31 -32 69 70 31 32 64 66 -31 32 -70 hvcurveto
            endchar
          </CharString>
          <CharString index="157">
            364 66 callsubr
            return
          </CharString>
          <CharString index="158">
            105 callsubr
            22 -19 97 return
          </CharString>
          <CharString index="159">
            -106 callsubr
            -420 -194 rmoveto
            3 vlineto
            -40 callsubr
            return
          </CharString>
          <CharString index="160">
            -43 callsubr
            47 32 -6 -9 28 vhcurveto
            -81 16 callgsubr
            return
          </CharString>
          <CharString index="161">
            hhcurveto
            45 39 6 12 33 217 callgsubr
            -107 62 callgsubr
            return
          </CharString>
          <CharString index="162">
            -116 30 vlineto
            82 19 -18 -60 -74 -92 callsubr
            -60 callsubr
            219 vlineto
            82 19 -28 -60 -74 -92 callsubr
            return
          </CharString>
          <CharString index="163">
            -139 69 -49 165 return
          </CharString>
          <CharString index="164">
            160 250 vlineto
            69 1 24 27 56 177 callsubr
            171 -54 48 -116 -82 -49 -34 -60 -19 vhcurveto
            return
          </CharString>
          <CharString index="165">
            7 callsubr
            -45 hlineto
            279 callgsubr
            return
          </CharString>
          <CharString index="166">
            5 -21 -23 2 -21 hhcurveto
            -22 -23 -2 -5 -21 hvcurveto
            -3 -19 0 -15 -14 vvcurveto
            -14 0 -13 3 -18 vhcurveto
            -6 21 23 -3 20 hhcurveto
            21 23 3 6 23 hvcurveto
            return
          </CharString>
          <CharString index="167">
            75 callsubr
            -135 -53 return
          </CharString>
          <CharString index="168">
            231 callsubr
            -19 -3 -19 -40 vvcurveto
            return
          </CharString>
          <CharString index="169">
            rmoveto
            -99 -11 -23 -63 -4 vhcurveto
            -200 -1 rlineto
            163 274 vlineto
            return
          </CharString>
          <CharString index="170">
            87 callsubr
            168 1 rlineto
            -64 3 return
          </CharString>
          <CharString index="171">
            142 5 hlineto
            -39 65 -16 59 65 vvcurveto
            67 19 24 52 47 21 -20 -81 vhcurveto
            return
          </CharString>
          <CharString index="172">
            280 callsubr
            -77 151 callgsubr
            78 76 6 7 37 vhcurveto
            return
          </CharString>
          <CharString index="173">
            112 -19 callsubr
            return
          </CharString>
          <CharString index="174">
            -3 vlineto
            -70 callgsubr
            vvcurveto
            -111 return
          </CharString>
          <CharString index="175">
            6 -1 rlineto
            6 21 30 6 38 hhcurveto
            43 30 -4 return
          </CharString>
          <CharString index="176">
            405 500 rmoveto
            -164 vlineto
            -219 150 rlineto
            14 vlineto
            108 -281 55 callgsubr
            222 -149 1 -6 1 -7 1 -6 rlinecurve
            -10 -38 -39 -5 -40 hhcurveto
            317 -2 rmoveto
            -52 callgsubr
            return
          </CharString>
          <CharString index="177">
            -36 vlineto
            294 callsubr
            96 -80 181 -46 callsubr
            vhcurveto
            4 -2 rlineto
            -89 -100 callsubr
            vlineto
            -404 -407 -106 callsubr
            return
          </CharString>
          <CharString index="178">
            239 callsubr
            38 -90 callsubr
            -115 -45 hlineto
            return
          </CharString>
          <CharString index="179">
            288 -8 callsubr
            return
          </CharString>
          <CharString index="180">
            80 callgsubr
            -82 -2 -61 hhcurveto
            -105 -29 return
          </CharString>
          <CharString index="181">
            176 rmoveto
            -102 callsubr
            -68 -49 -15 -34 -30 hvcurveto
            3 -21 -24 1 -27 131 callgsubr
            554 213 callgsubr
            return
          </CharString>
          <CharString index="182">
            57 20 12 63 31 29 -3 -5 9 callsubr
            rlineto
            116 vlineto
            10 -39 -43 6 -50 hhcurveto
            return
          </CharString>
          <CharString index="183">
            4 callsubr
            -121 92 -52 221 267 42 return
          </CharString>
          <CharString index="184">
            hlineto
            60 15 -9 -28 -28 -15 -9 -60 hvcurveto
            -78 return
          </CharString>
          <CharString index="185">
            225 74 callgsubr
            return
          </CharString>
          <CharString index="186">
            -64 vlineto
            -20 -18 0 -16 hhcurveto
            return
          </CharString>
          <CharString index="187">
            rmoveto
            -89 -14 17 50 50 14 17 62 36 27 -5 -6 9 callsubr
            2 114 rlineto
            11 -37 -51 6 -47 hhcurveto
            -41 -32 -5 -11 -25 hvcurveto
            10 -29 -36 4 -46 179 callsubr
            547 -296 hlineto
            -56 callgsubr
            return
          </CharString>
          <CharString index="188">
            hhcurveto
            86 callsubr
          </CharString>
          <CharString index="189">
            216 9 -44 callsubr
            return
          </CharString>
          <CharString index="190">
            16 15 -3 -3 11 vhcurveto
            2 1 rlineto
            90 vlineto
            6 -17 -28 4 -22 hhcurveto
            -85 -53 -34 -84 return
          </CharString>
          <CharString index="191">
            48 callgsubr
            -52 return
          </CharString>
          <CharString index="192">
            -106 callsubr
            -354 407 259 callsubr
            -11 0 -11 1 -10 vhcurveto
            -164 142 hlineto
            return
          </CharString>
          <CharString index="193">
            -35 callsubr
            endchar
          </CharString>
          <CharString index="194">
            136 -37 49 -125 vhcurveto
            -545 -107 162 -220 123 callsubr
            return
          </CharString>
          <CharString index="195">
            vlineto
            -39 callsubr
            return
          </CharString>
          <CharString index="196">
            55 hlineto
            74 13 -7 -29 -29 -15 -7 -79 -92 -17 -55 callsubr
            54 -7 56 hhcurveto
            127 55 30 88 9 hvcurveto
            123 -109 -100 callsubr
            return
          </CharString>
          <CharString index="197">
            -66 vlineto
            1 -49 -48 0 -14 hhcurveto
            -158 -69 -47 -167 -166 54 -55 209 return
          </CharString>
          <CharString index="198">
            -72 callsubr
            16 13 -1 -4 return
          </CharString>
          <CharString index="199">
            -51 callgsubr
            -43 274 callsubr
            -11 -3 -11 -4 -11 -2 240 callgsubr
            rcurveline
            51 callgsubr
            44 -6 -8 30 -7 callgsubr
            rlineto
            103 vlineto
            10 -39 -53 7 -58 hhcurveto
            return
          </CharString>
          <CharString index="200">
            55 callgsubr
            212 -141 rlineto
            -1 -10 -1 -10 -11 vvcurveto
            -7 -33 -34 -4 -35 hhcurveto
            299 217 rmoveto
            -92 -62 -25 -80 -28 hvcurveto
            -225 155 rlineto
            14 461 79 callsubr
            return
          </CharString>
          <CharString index="201">
            rmoveto
            -2 2 2 3 3 vvcurveto
            168 16 234 -242 rlineto
            9 hlineto
            -48 57 -91 147 -32 65 rrcurveto
            -1 2 1 1 2 vvcurveto
            153 hlineto
            107 -278 -103 -57 -132 52 -213 175 -52 52 rlinecurve
            endchar
          </CharString>
          <CharString index="202">
            rmoveto
            147 callgsubr
            hvcurveto
            293 callsubr
            return
          </CharString>
          <CharString index="203">
            -3 hlineto
            52 -21 -38 29 -149 hhcurveto
            -134 -69 -40 -164 return
          </CharString>
          <CharString index="204">
            -107 100 -186 hlineto
            -160 50 -55 146 return
          </CharString>
          <CharString index="205">
            -107 100 -186 vlineto
            -160 50 -55 146 return
          </CharString>
          <CharString index="206">
            7 29 hvcurveto
            8 -103 -231 return
          </CharString>
          <CharString index="207" raw="1">
            270a270b   
          </CharString>
          <CharString index="208">
            120 callsubr
            -12 -44 -65 -5 -52 hhcurveto
            -92 -30 9 83 82 25 18 76 hvcurveto
            144 180 113 107 return
          </CharString>
          <CharString index="209">
            -91 callgsubr
            vlineto
            endchar
          </CharString>
          <CharString index="210">
            -58 98 callgsubr
            226 hlineto
            3 -1 141 -225 rlineto
            184 hlineto
            -172 249 rlineto
            4 vlineto
            148 230 rlineto
            4 -176 vlineto
            -126 -206 rlineto
            -2 hlineto
            return
          </CharString>
          <CharString index="211">
            vlineto
            -1 callsubr
            return
          </CharString>
          <CharString index="212">
            vlineto
            103 callgsubr
            return
          </CharString>
          <CharString index="213">
            -15 -12 -93 vhcurveto
            return
          </CharString>
          <CharString index="214">
            -2 -6 -32 hvcurveto
            -5 -30 -1 -22 -20 vvcurveto
            -22 1 -20 5 -26 vhcurveto
            -7 32 32 -4 31 hhcurveto
            34 32 4 7 35 hvcurveto
            2 27 1 22 20 vvcurveto
            22 -1 19 -2 30 vhcurveto
            6 -34 -32 2 -32 hhcurveto
            return
          </CharString>
          <CharString index="215">
            607 rmoveto
            -107 return
          </CharString>
          <CharString index="216">
            91 34 25 74 58 -26 20 -60 6 hvcurveto
            return
          </CharString>
          <CharString index="217">
            84 22 12 68 4 return
          </CharString>
          <CharString index="218">
            rmoveto
            -98 -37 11 25 hvcurveto
            117 39 46 86 89 -43 40 -126 hvcurveto
            -379 hlineto
            1 -9 -10 1 -11 hhcurveto
            64 677 -345 vlineto
            196 callgsubr
            368 363 rmoveto
            107 return
          </CharString>
          <CharString index="219">
            303 callgsubr
            43 -57 callgsubr
            -96 80 -41 132 102 74 18 34 65 vhcurveto
            return
          </CharString>
          <CharString index="220">
            134 callsubr
            4 -2 rlineto
            -176 149 return
          </CharString>
          <CharString index="221">
            vvcurveto
            56 callsubr
            74 54 10 17 35 225 callsubr
            -81 -18 callgsubr
            99 107 return
          </CharString>
          <CharString index="222">
            19 25 3 3 14 hvcurveto
            4 -3 19 -84 rlineto
            -9 -24 -46 -8 -38 hhcurveto
            -96 -50 25 112 94 return
          </CharString>
          <CharString index="223">
            rmoveto
            -107 380 -51 -144 vlineto
            -122 -35 -39 -72 return
          </CharString>
          <CharString index="224">
            24 -30 52 264 callgsubr
            return
          </CharString>
          <CharString index="225">
            -61 -20 -117 -24 3 -28 7 -25 hvcurveto
            110 2 hlineto
            -4 17 -3 20 18 vvcurveto
            46 8 15 33 33 10 -15 -46 -43 -1 -54 -16 -27 vhcurveto
            -36 -21 -53 -18 -95 hhcurveto
            endchar
          </CharString>
          <CharString index="226">
            -324 219 202 callsubr
            -484 hlineto
            -38 19 callsubr
            return
          </CharString>
          <CharString index="227">
            vlineto
            -2 1 rlineto
            return
          </CharString>
          <CharString index="228">
            vvcurveto
            -24 3 -28 7 -25 vhcurveto
            110 2 hlineto
            -4 17 -3 20 18 vvcurveto
            46 8 15 33 33 10 -15 -46 -43 -1 -49 -16 -27 vhcurveto
            -36 -21 -53 -18 -95 hhcurveto
            endchar
          </CharString>
          <CharString index="229">
            202 callgsubr
            hvcurveto
            61 callsubr
            return
          </CharString>
          <CharString index="230">
            hlineto
            -33 callsubr
            return
          </CharString>
          <CharString index="231">
            -55 530 642 rmoveto
            -520 -135 180 return
          </CharString>
          <CharString index="232">
            5 -123 215 callgsubr
            return
          </CharString>
          <CharString index="233">
            -54 callsubr
            hlineto
            return
          </CharString>
          <CharString index="234">
            181 callgsubr
            -12 hlineto
            return
          </CharString>
          <CharString index="235">
            -107 443 212 callgsubr
            -102 callsubr
            return
          </CharString>
          <CharString index="236">
            175 77 callsubr
            -57 193 callgsubr
          </CharString>
          <CharString index="237">
            rlineto
            -153 hlineto
            -2 -1 -1 1 -2 vhcurveto
            return
          </CharString>
          <CharString index="238">
            607 rmoveto
            -404 vlineto
            230 callgsubr
            -85 -22 -39 callgsubr
            69 107 return
          </CharString>
          <CharString index="239">
            137 callsubr
            124 -2 hlineto
            54 callgsubr
          </CharString>
          <CharString index="240">
            235 500 rmoveto
            198 151 callsubr
            -146 vlineto
            -249 -1 rlineto
            return
          </CharString>
          <CharString index="241">
            rmoveto
            -107 103 -116 vlineto
            -145 41 -51 115 -8 115 callgsubr
            return
          </CharString>
          <CharString index="242">
            264 282 297 callgsubr
            return
          </CharString>
          <CharString index="243">
            165 callsubr
            endchar
          </CharString>
          <CharString index="244">
            81 24 12 62 4 hvcurveto
            return
          </CharString>
          <CharString index="245">
            76 callsubr
            111 169 return
          </CharString>
          <CharString index="246">
            99 -47 68 -151 -151 -47 -68 -99 -63 26 -52 68 -59 vhcurveto
            -167 -120 rlineto
            -9 vlineto
            193 -15 83 67 81 -53 -169 -133 rlineto
            return
          </CharString>
          <CharString index="247">
            -142 51 -46 170 57 56 10 15 30 return
          </CharString>
          <CharString index="248">
            157 -42 48 -162 9 return
          </CharString>
          <CharString index="249">
            134 301 callgsubr
            39 90 89 -43 40 -126 hvcurveto
            -222 72 490 -348 hlineto
            196 callgsubr
            return
          </CharString>
          <CharString index="250">
            hvcurveto
            -8 hlineto
            -93 274 185 callsubr
            rlineto
            endchar
          </CharString>
          <CharString index="251">
            -31 callgsubr
            -122 -64 -47 -140 return
          </CharString>
          <CharString index="252">
            vvcurveto
            110 -39 59 -160 18 vhcurveto
            -63 7 rlineto
            -89 10 -16 6 44 vvcurveto
            43 26 14 104 72 67 -11 -24 68 vhcurveto
            3 4 3 136 return
          </CharString>
          <CharString index="253">
            vlineto
            2 -17 -19 1 -20 hhcurveto
            -66 callgsubr
            return
          </CharString>
          <CharString index="254">
            -107 204 -48 callsubr
            return
          </CharString>
          <CharString index="255">
            -1 -67 callsubr
            102 vvcurveto
            return
          </CharString>
          <CharString index="256">
            hhcurveto
            -58 callgsubr
            return
          </CharString>
          <CharString index="257">
            -66 hlineto
            257 callgsubr
            return
          </CharString>
          <CharString index="258">
            hlineto
            118 callgsubr
            return
          </CharString>
          <CharString index="259">
            253 callgsubr
            48 -38 15 hvcurveto
            2 162 -293 147 -91 callgsubr
            -1255 -107 1008 -79 vlineto
            return
          </CharString>
          <CharString index="260">
            hlineto
            162 callgsubr
            return
          </CharString>
          <CharString index="261">
            rmoveto
            -133 -33 -30 -176 -187 -26 30 133 vhcurveto
            130 hlineto
            -48 8 -8 75 -1 vhcurveto
            75 -1 5 10 48 vvcurveto
            endchar
          </CharString>
          <CharString index="262">
            -56 callgsubr
            -89 -14 17 50 return
          </CharString>
          <CharString index="263">
            150 callgsubr
            100 107 return
          </CharString>
          <CharString index="264">
            vlineto
            14 33 38 6 46 hhcurveto
            return
          </CharString>
          <CharString index="265">
            hhcurveto
            -159 -61 -47 -135 return
          </CharString>
          <CharString index="266">
            rmoveto
            -94 -34 17 52 18 2 14 4 11 hvcurveto
            2 hlineto
            160 -110 rlineto
            -1 -14 -13 -1 -13 hhcurveto
            386 315 rmoveto
            107 return
          </CharString>
          <CharString index="267">
            -595 -473 861 rmoveto
            172 hlineto
            218 -255 rlineto
            -124 hlineto
            -7 4 -56 32 -64 52 -65 77 rlinecurve
            -74 87 rlineto
            return
          </CharString>
          <CharString index="268">
            -2 -1 rcurveline
            18 -18 -38 17 -65 hhcurveto
            -121 -71 -58 -138 -136 69 -73 171 181 54 108 140 -5 hvcurveto
            return
          </CharString>
          <CharString index="269">
            -357 155 357 195 -357 160 487 -355 33 vlineto
            34 16 17 45 17 20 -1 -3 20 vhcurveto
            endchar
          </CharString>
          <CharString index="270">
            hlineto
            -83 -22 16 36 36 12 17 63 hvcurveto
            14 107 return
          </CharString>
          <CharString index="271">
            -48 callsubr
            -27 3 return
          </CharString>
          <CharString index="272">
            rmoveto
            -100 304 100 vlineto
            return
          </CharString>
          <CharString index="273">
            -14 26 42 -10 51 hhcurveto
            146 67 71 203 -3 hvcurveto
            152 -2 -58 75 -129 hhcurveto
            -80 -37 -26 -54 -23 hvcurveto
            -2 return
          </CharString>
          <CharString index="274">
            rmoveto
            -107 379 186 callsubr
            return
          </CharString>
          <CharString index="275">
            -191 -44 callsubr
            return
          </CharString>
          <CharString index="276">
            242 189 callsubr
            return
          </CharString>
          <CharString index="277">
            vlineto
            -88 -90 -79 -98 -73 -100 250 callsubr
            return
          </CharString>
          <CharString index="278">
            vlineto
            163 -57 59 return
          </CharString>
          <CharString index="279">
            -36 vlineto
            -69 -10 -21 -52 -5 vhcurveto
            34 -27 -40 16 -58 hhcurveto
            -104 -40 -39 -54 -10 hvcurveto
            -3 hlineto
            57 -9 -50 37 -104 hhcurveto
            return
          </CharString>
          <CharString index="280">
            1 vlineto
            0 vlineto
            return
          </CharString>
          <CharString index="281">
            rmoveto
            184 callgsubr
            return
          </CharString>
          <CharString index="282">
            hhcurveto
            -146 -65 -47 -114 -87 22 -72 37 -86 hvcurveto
            258 callgsubr
            -34 74 -21 67 59 vvcurveto
            57 25 17 74 return
          </CharString>
          <CharString index="283">
            -27 -50 -48 27 -26 51 22 17 4 6 10 hvcurveto
            1 -1 rlineto
            -35 -20 -12 -40 -5 -3 0 1 -6 vhcurveto
            endchar
          </CharString>
          <CharString index="284">
            hhcurveto
            62 19 -29 -75 hvcurveto
            1 -242 180 callsubr
            return
          </CharString>
          <CharString index="285">
            122 60 61 12 19 44 225 callsubr
            return
          </CharString>
          <CharString index="286">
            hhcurveto
            -54 callsubr
            return
          </CharString>
          <CharString index="287">
            rlineto
            160 273 hlineto
            return
          </CharString>
          <CharString index="288">
            rmoveto
            59 -1 46 5 33 11 2 -1 rcurveline
            -92 vlineto
            -4 0 -5 -3 vvcurveto
            -150 90 rlineto
            10 0 0 0 hvcurveto
            return
          </CharString>
          <CharString index="289">
            -107 134 -3 vlineto
            -70 callgsubr
            vvcurveto
            -86 return
          </CharString>
          <CharString index="290">
            hhcurveto
            -81 -23 -39 callgsubr
            14 107 return
          </CharString>
          <CharString index="291">
            -19 -13 -11 -19 -29 vvcurveto
            -58 46 -37 78 190 callsubr
            -77 -10 -38 -44 -77 vvcurveto
            -91 60 -58 141 return
          </CharString>
          <CharString index="292">
            130 callsubr
            25 -68 108 -144 48 -57 rrcurveto
            -9 hlineto
            -234 242 return
          </CharString>
          <CharString index="293">
            125 callgsubr
            -91 43 -38 131 hvcurveto
            41 hlineto
            86 8 -9 -27 -30 -17 -6 -97 return
          </CharString>
          <CharString index="294">
            2 hlineto
            46 -121 rlineto
            149 4 hlineto
            -42 72 rlineto
            -1 15 17 0 18 hhcurveto
            164 59 41 157 return
          </CharString>
          <CharString index="295">
            197 callgsubr
            endchar
          </CharString>
          <CharString index="296">
            6 -43 callsubr
            return
          </CharString>
          <CharString index="297">
            -3 vhcurveto
            -4 vlineto
            return
          </CharString>
          <CharString index="298">
            -60 607 rmoveto
            -107 419 232 callgsubr
            return
          </CharString>
          <CharString index="299">
            45 callgsubr
            156 callsubr
            return
          </CharString>
          <CharString index="300">
            rmoveto
            -75 -56 -176 -165 -72 -81 134 callgsubr
            159 164 rlineto
            142 vlineto
            endchar
          </CharString>
          <CharString index="301">
            -36 hlineto
            -51 callgsubr
            return
          </CharString>
          <CharString index="302">
            110 callsubr
            hvcurveto
            157 1 rlineto
            return
          </CharString>
          <CharString index="303">
            -55 -53 -9 -14 -31 hvcurveto
            return
          </CharString>
          <CharString index="304">
            -85 -22 13 28 40 22 12 85 hvcurveto
            29 115 -29 hlineto
            -93 -22 16 36 36 12 17 73 hvcurveto
            return
          </CharString>
          <CharString index="305">
            rmoveto
            136 hlineto
            -131 194 131 196 rlineto
            -136 hlineto
            -129 -196 rlineto
            endchar
          </CharString>
          <CharString index="306">
            -43 34 60 -19 94 hhcurveto
            237 callgsubr
            243 callsubr
          </CharString>
          <CharString index="307">
            118 callgsubr
            -153 105 callsubr
            return
          </CharString>
          <CharString index="308">
            -107 219 -48 callsubr
            return
          </CharString>
          <CharString index="309">
            496 rmoveto
            -160 return
          </CharString>
          <CharString index="310">
            11 -19 -82 vhcurveto
            -13 return
          </CharString>
          <CharString index="311">
            rmoveto
            -91 -25 -22 -63 -36 -26 5 10 -25 vhcurveto
            105 vlineto
            78 37 30 53 70 15 -37 -78 vhcurveto
            return
          </CharString>
          <CharString index="312">
            vvcurveto
            -170 90 -48 141 vhcurveto
            endchar
          </CharString>
          <CharString index="313">
            rmoveto
            -75 -33 20 63 hvcurveto
            96 vlineto
            202 -140 rlineto
            -19 vlineto
            -14 -24 -29 -6 -41 hhcurveto
            return
          </CharString>
          <CharString index="314">
            84 19 24 -3 -5 20 vhcurveto
            -92 -2 vlineto
            2 -12 -16 2 -14 hhcurveto
            -44 -12 -21 -43 hvcurveto
            return
          </CharString>
          <CharString index="315">
            rmoveto
            -84 -30 22 52 16 1 13 3 10 hvcurveto
            179 -107 rlineto
            -4 -16 -22 -2 -31 hhcurveto
            return
          </CharString>
          <CharString index="316">
            294 219 55 callgsubr
            return
          </CharString>
          <CharString index="317">
            274 130 callsubr
            return
          </CharString>
          <CharString index="318">
            vvcurveto
            -20 1 -19 5 -24 vhcurveto
            -7 29 return
          </CharString>
          <CharString index="319" raw="1">
            3c0a270b   
          </CharString>
          <CharString index="320">
            81 23 12 62 4 hvcurveto
            return
          </CharString>
          <CharString index="321">
            193 87 30 104 48 return
          </CharString>
          <CharString index="322">
            140 38 47 133 return
          </CharString>
          <CharString index="323">
            -77 22 -78 39 -72 return
          </CharString>
          <CharString index="324">
            -23 callgsubr
            203 callgsubr
            return
          </CharString>
          <CharString index="325">
            100 107 hlineto
            endchar
          </CharString>
          <CharString index="326">
            273 callgsubr
            453 hlineto
            -75 -80 -68 -85 -63 -87 239 callgsubr
            return
          </CharString>
          <CharString index="327">
            -169 vlineto
            -15 callgsubr
            100 return
          </CharString>
          <CharString index="328">
            rmoveto
            227 callgsubr
            return
          </CharString>
          <CharString index="329">
            -27 callsubr
            149 return
          </CharString>
          <CharString index="330">
            -137 67 -51 133 202 callgsubr
            return
          </CharString>
          <CharString index="331">
            255 500 rmoveto
            return
          </CharString>
          <CharString index="332">
            vhcurveto
            2 -1 rlineto
            return
          </CharString>
          <CharString index="333">
            hhcurveto
            73 42 31 98 75 -28 41 -70 -69 -22 -27 -50 -48 27 -26 51 22 return
          </CharString>
          <CharString index="334">
            rmoveto
            -48 -14 19 70 hvcurveto
            144 124 -144 vlineto
            -70 -14 -19 -48 vhcurveto
            return
          </CharString>
          <CharString index="335">
            215 callsubr
            57 -19 return
          </CharString>
          <CharString index="336">
            -65 vlineto
            1 -28 -26 0 -20 hhcurveto
            return
          </CharString>
          <CharString index="337">
            283 hlineto
            16 34 41 return
          </CharString>
          <CharString index="338">
            3 -2 rlineto
            -7 return
          </CharString>
          <CharString index="339">
            1 78 -2 3 rlineto
            -2 -12 -9 0 -11 hhcurveto
            -45 -14 18 36 26 9 return
          </CharString>
          <CharString index="340">
            hhcurveto
            242 callgsubr
            return
          </CharString>
          <CharString index="341">
            hhcurveto
            89 callgsubr
            hvcurveto
            2 -1 rlineto
            return
          </CharString>
          <CharString index="342">
            53 26 13 79 38 29 -7 -16 19 vhcurveto
            return
          </CharString>
          <CharString index="343">
            85 23 10 80 3 hvcurveto
            144 1 rlineto
            return
          </CharString>
          <CharString index="344">
            -1 -9 -10 vvcurveto
            -8 -34 -36 -4 -36 hhcurveto
            return
          </CharString>
          <CharString index="345">
            40 22 12 75 hvcurveto
            return
          </CharString>
          <CharString index="346">
            hhcurveto
            -94 -55 21 return
          </CharString>
          <CharString index="347">
            200 callsubr
            23 -19 97 return
          </CharString>
          <CharString index="348">
            vlineto
            13 -1 24 -6 12 vhcurveto
            1 1 rlineto
            -7 13 13 -1 23 hhcurveto
            return
          </CharString>
          <CharString index="349">
            -141 -17 hlineto
            -24 -6 -4 -33 vhcurveto
            -173 125 hlineto
            endchar
          </CharString>
          <CharString index="350">
            148 258 callsubr
          </CharString>
          <CharString index="351">
            154 -202 return
          </CharString>
          <CharString index="352">
            -55 -18 14 32 hvcurveto
            -126 -14 hlineto
            -102 75 -40 125 vhcurveto
            return
          </CharString>
          <CharString index="353">
            -40 607 rmoveto
            -75 callsubr
            vlineto
            return
          </CharString>
          <CharString index="354">
            -107 219 -36 hlineto
            294 callsubr
            return
          </CharString>
          <CharString index="355">
            51 callsubr
            137 callsubr
            return
          </CharString>
          <CharString index="356">
            hhcurveto
            -90 callgsubr
            return
          </CharString>
          <CharString index="357">
            239 callgsubr
            61 137 rlineto
            return
          </CharString>
          <CharString index="358">
            108 callsubr
            419 -66 vlineto
            1 return
          </CharString>
          <CharString index="359">
            -58 callgsubr
            131 return
          </CharString>
          <CharString index="360">
            -74 22 -19 97 110 callsubr
            return
          </CharString>
          <CharString index="361">
            64 -52 56 -32 rlinecurve
            7 -4 return
          </CharString>
          <CharString index="362">
            -160 275 callsubr
            return
          </CharString>
          <CharString index="363">
            -20 9 60 60 19 15 return
          </CharString>
          <CharString index="364">
            86 -38 34 -81 18 return
          </CharString>
          <CharString index="365">
            491 vlineto
            endchar
          </CharString>
          <CharString index="366">
            rmoveto
            201 callsubr
            return
          </CharString>
          <CharString index="367">
            vlineto
            -177 36 -59 170 170 36 59 177 vhcurveto
            return
          </CharString>
          <CharString index="368">
            -66 vlineto
            1 -35 -36 0 -32 hhcurveto
            -149 -61 -47 -135 return
          </CharString>
          <CharString index="369">
            438 197 rmoveto
            125 -408 -125 vlineto
            endchar
          </CharString>
          <CharString index="370">
            62 callgsubr
            vlineto
            endchar
          </CharString>
          <CharString index="371">
            422 rmoveto
            78 return
          </CharString>
          <CharString index="372">
            241 -116 return
          </CharString>
          <CharString index="373">
            5 -10 -22 -27 -12 -5 -105 -100 -22 15 92 88 13 return
          </CharString>
          <CharString index="374">
            rmoveto
            2 vlineto
            299 callgsubr
            return
          </CharString>
          <CharString index="375">
            -107 269 -67 vlineto
            -157 -9 -42 -46 -139 vvcurveto
            return
          </CharString>
          <CharString index="376">
            rmoveto
            148 726 -148 hlineto
            return
          </CharString>
          <CharString index="377">
            9 39 callgsubr
            return
          </CharString>
          <CharString index="378">
            1 rlineto
            -59 3 27 -16 88 hhcurveto
            return
          </CharString>
          <CharString index="379">
            107 -28 44 -66 15 return
          </CharString>
          <CharString index="380">
            rmoveto
            -91 callgsubr
            return
          </CharString>
          <CharString index="381">
            7 -37 14 -31 vhcurveto
            return
          </CharString>
          <CharString index="382">
            -633 160 return
          </CharString>
          <CharString index="383">
            -17 -109 61 callgsubr
            return
          </CharString>
          <CharString index="384">
            13 104 -15 hlineto
            -54 -18 7 25 25 14 8 64 return
          </CharString>
          <CharString index="385">
            137 -41 50 -109 13 hvcurveto
            86 vlineto
            endchar
          </CharString>
          <CharString index="386">
            113 89 22 44 75 return
          </CharString>
          <CharString index="387">
            -3 vlineto
            -54 -10 -31 -27 return
          </CharString>
          <CharString index="388">
            19 15 82 vhcurveto
            return
          </CharString>
          <CharString index="389">
            25 26 -18 19 -26 -25 -19 -19 -26 -25 19 return
          </CharString>
          <CharString index="390">
            -96 vlineto
            3 -2 rlineto
            5 29 35 4 27 hhcurveto
            return
          </CharString>
          <CharString index="391">
            -139 49 -57 183 101 83 20 36 79 return
          </CharString>
          <CharString index="392">
            72 301 callsubr
          </CharString>
          <CharString index="393">
            -105 -84 -79 9 17 -42 hvcurveto
            return
          </CharString>
          <CharString index="394">
            -135 -43 -55 -5 -10 -47 return
          </CharString>
          <CharString index="395">
            534 379 rmoveto
            121 return
          </CharString>
          <CharString index="396">
            hlineto
            16 34 41 7 48 hhcurveto
            return
          </CharString>
          <CharString index="397">
            rmoveto
            -30 -31 -2 -7 return
          </CharString>
          <CharString index="398">
            200 rmoveto
            -110 return
          </CharString>
          <CharString index="399">
            -107 193 -118 return
          </CharString>
          <CharString index="400">
            67 269 107 return
          </CharString>
          <CharString index="401">
            -51 callgsubr
            -156 return
          </CharString>
          <CharString index="402">
            105 callsubr
            23 -19 97 82 return
          </CharString>
          <CharString index="403">
            -158 vlineto
            -202 141 rlineto
            17 vlineto
            return
          </CharString>
          <CharString index="404">
            607 rmoveto
            -327 -155 142 vlineto
            return
          </CharString>
          <CharString index="405">
            rmoveto
            2 -16 -13 1 -15 hhcurveto
            -60 -18 -25 return
          </CharString>
          <CharString index="406">
            -20 hvcurveto
            -2 vlineto
            -40 -14 -22 -45 -63 vvcurveto
            return
          </CharString>
          <CharString index="407">
            hhcurveto
            -81 -23 13 280 callgsubr
            return
          </CharString>
          <CharString index="408">
            vhcurveto
            228 206 callgsubr
          </CharString>
          <CharString index="409">
            30 133 vhcurveto
            endchar
          </CharString>
        <CharString name=".notdef">
          65 80 hmoveto
          500 674 -500 hlineto
          100 -100 rmoveto
          300 -474 -300 hlineto
          endchar
        </CharString>
        <CharString name="A">
          -91 callsubr
          endchar
        </CharString>
        <CharString name="AE">
          355 456 528 rmoveto
          4 -273 -139 hlineto
          52 104 54 108 29 61 rrcurveto
          474 -16 rmoveto
          130 -587 vlineto
          -333 -631 rlineto
          -2 189 vlineto
          14 28 21 43 25 50 rrcurveto
          201 -121 -12 callgsubr
          hlineto
          endchar
        </CharString>
        <CharString name="Aacute">
          -91 callsubr
          31 828 -84 callgsubr
        </CharString>
        <CharString name="Abreve">
          -91 callsubr
          -53 828 -14 callsubr
        </CharString>
        <CharString name="Acircumflex">
          -91 callsubr
          -94 827 -98 callgsubr
          endchar
        </CharString>
        <CharString name="Adieresis">
          -91 callsubr
          -236 778 rmoveto
          -106 callgsubr
          185 hmoveto
          -106 callgsubr
          endchar
        </CharString>
        <CharString name="Agrave">
          -91 callsubr
          -190 673 -22 callgsubr
        </CharString>
        <CharString name="Amacron">
          -91 callsubr
          -297 773 136 callsubr
        </CharString>
        <CharString name="Aogonek">
          86 323 528 rmoveto
          4 hlineto
          13 -68 28 -104 29 -101 rrcurveto
          -143 hlineto
          28 101 28 104 13 68 rrcurveto
          112 114 rmoveto
          -220 hlineto
          -205 -631 rlineto
          -2 170 vlineto
          10 32 13 42 14 47 rrcurveto
          216 hlineto
          14 -47 13 -42 10 -32 rrcurveto
          90 hlineto
          -32 callsubr
          1 3 hlineto
          endchar
        </CharString>
        <CharString name="Aring">
          -91 callsubr
          -179 770 49 callsubr
        </CharString>
        <CharString name="Atilde">
          -91 callsubr
          39 757 -92 callgsubr
        </CharString>
        <CharString name="B">
          31 338 261 rmoveto
          65 28 -13 -50 -50 -28 -14 -65 hvcurveto
          -118 127 hlineto
          98 255 rmoveto
          65 28 -14 -48 -49 -28 -13 -65 hvcurveto
          -98 124 hlineto
          197 -186 rmoveto
          3 vlineto
          122 10 37 51 94 vvcurveto
          101 -48 53 -166 vhcurveto
          -263 0 -39 -633 312 hlineto
          166 58 55 107 105 -43 43 -136 11 hvcurveto
          endchar
        </CharString>
        <CharString name="C">
          -61 callgsubr
          endchar
        </CharString>
        <CharString name="Cacute">
          -61 callgsubr
          -79 691 -84 callgsubr
        </CharString>
        <CharString name="Ccaron">
          -61 callgsubr
          -158 690 -93 callgsubr
        </CharString>
        <CharString name="Ccedilla">
          -38 527 150 rmoveto
          -13 -54 -47 -4 -74 hhcurveto
          -123 -29 24 174 165 29 22 123 76 45 -6 -13 56 hvcurveto
          3 2 rlineto
          130 vlineto
          14 -64 -55 6 -84 hhcurveto
          -216 -73 -58 -262 -257 65 -67 189 -6 hvcurveto
          -19 -92 rlineto
          -18 callsubr
          9 36 55 2 44 6 49 11 rlinecurve
          126 vlineto
          endchar
        </CharString>
        <CharString name="Ccircumflex">
          -61 callgsubr
          -135 690 -98 callgsubr
          endchar
        </CharString>
        <CharString name="Cdotaccent">
          -61 callgsubr
          -195 653 -87 callsubr
        </CharString>
        <CharString name="D">
          106 callgsubr
          endchar
        </CharString>
        <CharString name="Dcaron">
          106 callgsubr
          294 194 -93 callgsubr
        </CharString>
        <CharString name="Dcroat">
          72 callgsubr
        </CharString>
        <CharString name="Delta">
          125 303 655 rmoveto
          -293 -652 rlineto
          700 hlineto
          -293 652 rlineto
          -57 -149 rmoveto
          177 -391 rlineto
          -354 hlineto
          endchar
        </CharString>
        <CharString name="E">
          -45 530 512 158 callgsubr
          -12 callgsubr
          vlineto
          endchar
        </CharString>
        <CharString name="Eacute">
          -45 530 512 158 callgsubr
          -12 callgsubr
          vlineto
          270 325 -84 callgsubr
        </CharString>
        <CharString name="Ebreve">
          -45 530 512 158 callgsubr
          -12 callgsubr
          vlineto
          167 325 -14 callsubr
        </CharString>
        <CharString name="Ecaron">
          -45 60 9 rmoveto
          -12 callgsubr
          310 130 -470 hlineto
          284 194 -93 callgsubr
        </CharString>
        <CharString name="Ecircumflex">
          -45 60 9 rmoveto
          -12 callgsubr
          310 130 -470 hlineto
          286 194 -98 callgsubr
          endchar
        </CharString>
        <CharString name="Edieresis">
          -45 530 512 158 callgsubr
          -12 callgsubr
          vlineto
          -16 275 rmoveto
          -106 callgsubr
          185 hmoveto
          -106 callgsubr
          endchar
        </CharString>
        <CharString name="Edotaccent">
          -45 530 512 158 callgsubr
          -12 callgsubr
          vlineto
          76 287 -87 callsubr
        </CharString>
        <CharString name="Egrave">
          -45 530 512 158 callgsubr
          -12 callgsubr
          vlineto
          22 170 -22 callgsubr
        </CharString>
        <CharString name="Emacron">
          -45 143 782 165 callsubr
          83 -270 158 callgsubr
          -12 callgsubr
          vlineto
          endchar
        </CharString>
        <CharString name="Eng">
          95 220 9 rmoveto
          244 vlineto
          52 -2 54 -18 64 vhcurveto
          3 4 30 -60 16 -27 42 -63 rlinecurve
          180 -268 rlineto
          -78 -3 -19 -19 -78 hhcurveto
          -26 -22 2 3 -19 hvcurveto
          -3 -3 rlineto
          -136 vlineto
          -6 29 31 -2 41 hhcurveto
          164 63 77 162 1 hvcurveto
          0 vlineto
          633 -160 -254 vlineto
          -52 7 -52 13 -56 vhcurveto
          -3 -4 -30 60 -16 27 -42 63 rlinecurve
          -180 268 rlineto
          -159 -633 hlineto
          endchar
        </CharString>
        <CharString name="Eogonek">
          -45 530 512 158 callgsubr
          391 vlineto
          -32 callsubr
          5 callgsubr
          vlineto
          endchar
        </CharString>
        <CharString name="Eth">
          72 callgsubr
        </CharString>
        <CharString name="Euro">
          25 590 150 rmoveto
          -13 -54 -47 -4 -74 hhcurveto
          -78 -40 10 51 -19 hvcurveto
          183 110 -198 hlineto
          8 0 9 10 5 0 4 4 vvcurveto
          198 110 -186 hlineto
          54 18 41 10 81 hhcurveto
          76 45 -6 -13 56 hvcurveto
          3 2 rlineto
          130 vlineto
          14 -64 -55 6 -84 hhcurveto
          -177 -81 -39 -158 -23 hvcurveto
          -81 -110 73 hlineto
          -4 0 -5 -4 -9 0 -9 -9 vvcurveto
          -73 -110 82 hlineto
          -156 25 82 -38 173 hhcurveto
          84 55 6 14 64 hvcurveto
          126 vlineto
          endchar
        </CharString>
        <CharString name="F">
          -50 530 512 158 callgsubr
          160 228 290 130 -290 145 vlineto
          endchar
        </CharString>
        <CharString name="G">
          60 -76 callgsubr
          endchar
        </CharString>
        <CharString name="Gbreve">
          5 -76 callgsubr
          54 581 -28 callgsubr
        </CharString>
        <CharString name="Gcircumflex">
          5 -76 callgsubr
          -94 580 -98 callgsubr
          endchar
        </CharString>
        <CharString name="Gdotaccent">
          5 -76 callgsubr
          -144 543 -87 callsubr
        </CharString>
        <CharString name="H">
          85 620 642 rmoveto
          -160 -242 -240 242 255 callsubr
          261 240 -261 160 hlineto
          endchar
        </CharString>
        <CharString name="Hbar">
          85 460 310 rmoveto
          -240 70 240 hlineto
          160 262 rmoveto
          -160 -142 -240 142 255 callsubr
          181 240 -181 160 hlineto
          endchar
        </CharString>
        <CharString name="Hcircumflex">
          85 460 9 rmoveto
          160 633 -160 -242 -240 242 255 callsubr
          261 240 hlineto
          -69 566 -98 callgsubr
          endchar
        </CharString>
        <CharString name="I">
          -315 220 300 callgsubr
          endchar
        </CharString>
        <CharString name="IJ">
          148 220 300 callgsubr
          309 249 64 callgsubr
          endchar
        </CharString>
        <CharString name="Iacute">
          -295 220 300 callgsubr
          100 828 -84 callgsubr
        </CharString>
        <CharString name="Ibreve">
          -312 220 300 callgsubr
          115 828 -28 callgsubr
        </CharString>
        <CharString name="Icircumflex">
          -320 220 300 callgsubr
          -18 827 -98 callgsubr
          endchar
        </CharString>
        <CharString name="Idieresis">
          -236 255 300 callgsubr
          13 778 rmoveto
          -106 callgsubr
          -185 hmoveto
          -106 callgsubr
          endchar
        </CharString>
        <CharString name="Idotaccent">
          -315 220 300 callgsubr
          -78 790 -87 callsubr
        </CharString>
        <CharString name="Igrave">
          -315 220 300 callgsubr
          -141 673 -22 callgsubr
        </CharString>
        <CharString name="Imacron">
          -231 262 300 callgsubr
          -232 773 136 callsubr
        </CharString>
        <CharString name="Iogonek">
          -313 36 callgsubr
          81 hlineto
          -32 callsubr
          endchar
        </CharString>
        <CharString name="Itilde">
          -341 220 300 callgsubr
          111 757 -92 callgsubr
        </CharString>
        <CharString name="J">
          -132 249 258 64 callgsubr
          endchar
        </CharString>
        <CharString name="Jcircumflex">
          -133 249 258 64 callgsubr
          136 194 -98 callgsubr
          endchar
        </CharString>
        <CharString name="K">
          44 callgsubr
          endchar
        </CharString>
        <CharString name="L">
          -65 36 callgsubr
          460 136 -300 hlineto
          endchar
        </CharString>
        <CharString name="Lacute">
          -65 36 callgsubr
          460 136 -300 hlineto
          100 692 -84 callgsubr
        </CharString>
        <CharString name="Lcaron">
          -65 36 callgsubr
          460 136 -300 hlineto
          -40 691 -93 callgsubr
        </CharString>
        <CharString name="Ldot">
          -35 36 callgsubr
          460 136 -300 hlineto
          176 303 23 callgsubr
        </CharString>
        <CharString name="Lslash">
          -65 36 callgsubr
          460 136 -300 hlineto
          endchar
        </CharString>
        <CharString name="M">
          273 521 41 rmoveto
          53 179 72 260 13 53 4 -1 rcurveline
          -5 -36 -4 -79 -54 vvcurveto
          -354 151 633 -264 vlineto
          -36 -142 -54 -182 -13 -102 rrcurveto
          -2 hlineto
          -14 102 -55 183 -36 141 rrcurveto
          -268 -633 153 354 hlineto
          54 -4 79 -5 36 vhcurveto
          4 1 13 -53 69 -259 56 -180 rlinecurve
          endchar
        </CharString>
        <CharString name="N">
          -61 callsubr
          endchar
        </CharString>
        <CharString name="Nacute">
          -61 callsubr
          70 195 -84 callgsubr
        </CharString>
        <CharString name="Ncaron">
          -61 callsubr
          -67 194 -93 callgsubr
        </CharString>
        <CharString name="Ntilde">
          -61 callsubr
          59 124 -92 callgsubr
        </CharString>
        <CharString name="O">
          -89 callsubr
          endchar
        </CharString>
        <CharString name="OE">
          386 351 511 rmoveto
          86 54 -19 -56 hvcurveto
          -220 vlineto
          -56 -54 -19 -86 -127 -24 42 143 143 24 42 127 vhcurveto
          -20 -510 rmoveto
          81 57 20 29 21 hvcurveto
          1 -41 -12 callgsubr
          310 130 -470 -40 -1 hlineto
          29 -21 -57 20 -81 hhcurveto
          -222 -69 -84 -241 -241 69 -84 222 hvcurveto
          endchar
        </CharString>
        <CharString name="Oacute">
          -89 callsubr
          330 511 -84 callgsubr
        </CharString>
        <CharString name="Obreve">
          -89 callsubr
          350 511 -28 callgsubr
        </CharString>
        <CharString name="Ocircumflex">
          -89 callsubr
          202 510 -98 callgsubr
          endchar
        </CharString>
        <CharString name="Odieresis">
          -89 callsubr
          244 461 rmoveto
          -106 callgsubr
          -185 hmoveto
          -106 callgsubr
          endchar
        </CharString>
        <CharString name="Ograve">
          -89 callsubr
          92 356 -22 callgsubr
        </CharString>
        <CharString name="Ohungarumlaut">
          -89 callsubr
          202 508 -14 callgsubr
        </CharString>
        <CharString name="Omacron">
          -89 callsubr
          -1 466 136 callsubr
        </CharString>
        <CharString name="Oslash">
          88 342 hmoveto
          242 68 83 243 63 -5 53 -11 43 hvcurveto
          57 42 rlineto
          115 -1 vlineto
          -97 -72 rlineto
          58 -46 -80 23 -127 hhcurveto
          -242 -69 -84 -241 -64 5 -53 11 -43 hvcurveto
          -57 -42 rlineto
          -115 1 vlineto
          97 72 rlineto
          -58 47 79 -23 128 hhcurveto
          -151 326 rmoveto
          143 24 42 127 63 37 -10 -27 22 vhcurveto
          -272 -201 rlineto
          -1 16 0 18 19 vvcurveto
          151 -186 rmoveto
          -63 -38 10 27 -22 hvcurveto
          272 201 rlineto
          1 -16 0 -17 -19 vvcurveto
          -147 -22 -39 -128 vhcurveto
          endchar
        </CharString>
        <CharString name="Otilde">
          -89 callsubr
          335 440 -92 callgsubr
        </CharString>
        <CharString name="P">
          31 316 511 rmoveto
          94 25 -32 -76 -80 -25 -28 -94 hvcurveto
          -96 216 hlineto
          122 -347 rmoveto
          190 69 71 168 177 -69 62 -190 hvcurveto
          -282 275 callsubr
          155 hlineto
          endchar
        </CharString>
        <CharString name="Q">
          106 200 326 rmoveto
          143 24 42 127 128 22 -42 -143 -147 -22 -39 -128 -127 -24 39 147 vhcurveto
          396 -453 rmoveto
          3 vlineto
          -24 42 -33 49 -40 44 rrcurveto
          5 vlineto
          123 34 39 92 184 vvcurveto
          241 -68 84 -242 -242 -69 -84 -241 -240 67 -84 236 -2 vhcurveto
          71 -127 rlineto
          endchar
        </CharString>
        <CharString name="R">
          -49 callgsubr
          endchar
        </CharString>
        <CharString name="Racute">
          -49 callgsubr
          -154 828 -84 callgsubr
        </CharString>
        <CharString name="Rcaron">
          -49 callgsubr
          -261 827 -93 callgsubr
        </CharString>
        <CharString name="S">
          -81 callsubr
          endchar
        </CharString>
        <CharString name="Sacute">
          -81 callsubr
          416 665 -84 callgsubr
        </CharString>
        <CharString name="Scaron">
          -81 callsubr
          309 664 -93 callgsubr
        </CharString>
        <CharString name="Scircumflex">
          -81 callsubr
          311 664 -98 callgsubr
          endchar
        </CharString>
        <CharString name="T">
          124 callsubr
          -498 160 498 180 hlineto
          endchar
        </CharString>
        <CharString name="Tbar">
          124 callsubr
          -75 -180 -135 180 -288 160 288 180 135 -180 75 180 hlineto
          endchar
        </CharString>
        <CharString name="Tcaron">
          124 callsubr
          -498 160 498 180 hlineto
          -211 329 -93 callgsubr
        </CharString>
        <CharString name="Thorn">
          31 220 691 rmoveto
          -160 -682 160 164 122 hlineto
          190 69 71 158 167 -69 62 -190 hvcurveto
          -122 hlineto
          96 -131 rmoveto
          94 25 -32 -66 -70 -25 -28 -94 hvcurveto
          -96 196 hlineto
          endchar
        </CharString>
        <CharString name="U">
          -78 callsubr
          endchar
        </CharString>
        <CharString name="Uacute">
          -78 callsubr
          -98 195 -84 callgsubr
        </CharString>
        <CharString name="Ubreve">
          -78 callsubr
          -75 195 -28 callgsubr
        </CharString>
        <CharString name="Ucircumflex">
          -78 callsubr
          -223 194 -98 callgsubr
          endchar
        </CharString>
        <CharString name="Udieresis">
          -78 callsubr
          -180 145 rmoveto
          -106 callgsubr
          -185 hmoveto
          -106 callgsubr
          endchar
        </CharString>
        <CharString name="Ugrave">
          -78 callsubr
          -316 40 -22 callgsubr
        </CharString>
        <CharString name="Uhungarumlaut">
          -78 callsubr
          -192 195 -14 callgsubr
        </CharString>
        <CharString name="Umacron">
          -78 callsubr
          -426 140 136 callsubr
        </CharString>
        <CharString name="Uogonek">
          73 448 642 rmoveto
          -370 vlineto
          -103 -22 -29 -87 -95 -24 29 103 vhcurveto
          370 -160 -373 vlineto
          -187 54 -75 196 -7 vhcurveto
          -26 -26 -14 -41 -40 4 callgsubr
          -45 -14 18 36 26 9 27 15 24 hvcurveto
          165 13 48 76 178 vvcurveto
          373 vlineto
          endchar
        </CharString>
        <CharString name="Uring">
          -78 callsubr
          -274 233 rmoveto
          -69 -31 -32 -66 -64 31 -32 69 70 31 32 64 66 -31 32 -70 hvcurveto
          -34 -96 rmoveto
          22 8 11 26 26 9 -11 -22 -23 -9 -11 -26 -26 -8 11 23 vhcurveto
          endchar
        </CharString>
        <CharString name="Utilde">
          -78 callsubr
          -90 124 -92 callgsubr
        </CharString>
        <CharString name="V">
          74 458 641 rmoveto
          -43 -135 -59 -228 -19 -101 rrcurveto
          -4 hlineto
          -18 101 -61 229 -42 134 rrcurveto
          -179 hlineto
          187 -632 rlineto
          220 hlineto
          197 632 rlineto
          endchar
        </CharString>
        <CharString name="W">
          -83 callsubr
          endchar
        </CharString>
        <CharString name="Wacute">
          -83 callsubr
          -15 619 -84 callgsubr
        </CharString>
        <CharString name="Wcircumflex">
          -83 callsubr
          -138 618 -98 callgsubr
          endchar
        </CharString>
        <CharString name="Wdieresis">
          -83 callsubr
          -95 569 rmoveto
          -106 callgsubr
          -185 hmoveto
          -106 callgsubr
          endchar
        </CharString>
        <CharString name="Wgrave">
          -83 callsubr
          -263 464 -22 callgsubr
        </CharString>
        <CharString name="X">
          77 468 337 rmoveto
          173 305 rlineto
          -197 hlineto
          -106 -220 rlineto
          -3 hlineto
          -106 220 rlineto
          -197 hlineto
          173 -305 rlineto
          -5 vlineto
          -185 -323 rlineto
          200 hlineto
          115 224 rlineto
          3 hlineto
          115 -224 rlineto
          200 hlineto
          -185 323 rlineto
          endchar
        </CharString>
        <CharString name="Y">
          -36 callgsubr
          endchar
        </CharString>
        <CharString name="Yacute">
          -36 callgsubr
          -110 198 -84 callgsubr
        </CharString>
        <CharString name="Ycircumflex">
          -36 callgsubr
          -234 197 -98 callgsubr
          endchar
        </CharString>
        <CharString name="Ydieresis">
          -36 callgsubr
          -376 148 rmoveto
          -106 callgsubr
          185 hmoveto
          -106 callgsubr
          endchar
        </CharString>
        <CharString name="Ygrave">
          -36 callgsubr
          -358 43 -22 callgsubr
        </CharString>
        <CharString name="Z">
          24 callgsubr
          endchar
        </CharString>
        <CharString name="Zacute">
          24 callgsubr
          107 324 -84 callgsubr
        </CharString>
        <CharString name="Zcaron">
          24 callgsubr
          -4 323 -93 callgsubr
        </CharString>
        <CharString name="Zdotaccent">
          24 callgsubr
          -52 286 -87 callsubr
        </CharString>
        <CharString name="a">
          -99 callsubr
          endchar
        </CharString>
        <CharString name="aacute">
          -99 callsubr
          366 219 -84 callgsubr
        </CharString>
        <CharString name="abreve">
          -99 callsubr
          298 225 -14 callsubr
        </CharString>
        <CharString name="acircumflex">
          -99 callsubr
          257 218 -98 callgsubr
          endchar
        </CharString>
        <CharString name="acute">
          -315 260 837 -84 callgsubr
        </CharString>
        <CharString name="adieresis">
          -99 callsubr
          114 172 rmoveto
          -106 callgsubr
          185 hmoveto
          -106 callgsubr
          endchar
        </CharString>
        <CharString name="ae">
          283 440 456 rmoveto
          34 -42 -64 11 -88 hhcurveto
          -61 -80 -11 -12 -40 hvcurveto
          -1 -116 275 callgsubr
          42 60 11 59 hhcurveto
          94 32 -14 -57 9 hvcurveto
          -149 hlineto
          -131 -58 -56 -92 -107 69 -55 124 102 58 22 57 29 hvcurveto
          2 hlineto
          -58 44 76 -21 104 hhcurveto
          90 67 11 14 38 hvcurveto
          111 vlineto
          -4 3 rlineto
          -7 -48 -40 -3 -69 hhcurveto
          -104 -40 13 59 -10 hvcurveto
          329 hlineto
          4 4 rlineto
          5 28 2 31 25 vvcurveto
          130 -60 82 -181 -75 -57 -14 -31 -40 vhcurveto
          172 -72 261 callgsubr
          -440 -222 rmoveto
          28 20 18 59 vhcurveto
          115 hlineto
          1 -4 0 -4 -4 vvcurveto
          -65 -2 -39 -13 -77 hhcurveto
          -42 -35 10 34 hvcurveto
          endchar
        </CharString>
        <CharString name="agrave">
          -99 callsubr
          153 73 -22 callgsubr
        </CharString>
        <CharString name="amacron">
          -99 callsubr
          54 173 136 callsubr
        </CharString>
        <CharString name="ampersand">
          47 444 261 rmoveto
          -147 130 rlineto
          -40 35 -10 18 29 vvcurveto
          38 13 15 53 61 13 -15 -64 -2 vhcurveto
          146 32 hlineto
          131 -41 42 -179 -157 -52 -51 -111 -55 10 -33 33 -33 vhcurveto
          -2 -4 rlineto
          -55 -4 -48 -46 -114 vvcurveto
          -150 72 -51 199 87 65 17 32 44 vhcurveto
          50 -44 75 90 -61 53 rlineto
          6 21 3 25 26 vvcurveto
          124 -134 -83 vlineto
          -51 -116 rmoveto
          -7 -21 -31 -4 -32 hhcurveto
          -97 -23 15 68 47 18 25 21 3 hvcurveto
          165 -145 rlineto
          endchar
        </CharString>
        <CharString name="aogonek">
          -36 364 183 rmoveto
          -46 -1 -41 -19 -83 hhcurveto
          -42 -25 10 34 28 20 18 59 hvcurveto
          113 hlineto
          -300 270 rmoveto
          -1 -116 275 callgsubr
          42 60 11 59 hhcurveto
          94 32 -14 -57 9 hvcurveto
          -148 hlineto
          -131 -58 -56 -92 -107 59 -55 114 85 52 21 34 26 hvcurveto
          3 hlineto
          5 -46 rlineto
          66 hlineto
          -32 callsubr
          244 vlineto
          202 -78 46 -191 -61 -80 -11 -12 -40 vhcurveto
          endchar
        </CharString>
        <CharString name="approxequal">
          12 551 447 12 callsubr
          21 -210 12 callsubr
          endchar
        </CharString>
        <CharString name="aring">
          -99 callsubr
          171 162 49 callsubr
        </CharString>
        <CharString name="asciicircum">
          -37 178 642 rmoveto
          -138 -324 rlineto
          144 hlineto
          94 210 rlineto
          2 hlineto
          93 -210 rlineto
          145 hlineto
          -138 324 rlineto
          endchar
        </CharString>
        <CharString name="asciitilde">
          1 556 357 12 callsubr
          endchar
        </CharString>
        <CharString name="asterisk">
          -91 18 429 rmoveto
          89 -28 36 -11 20 0 28 4 rlinecurve
          1 -3 -27 -10 -17 -7 -23 -32 rlinecurve
          -54 -75 96 -70 54 74 rlineto
          23 32 5 16 27 vvcurveto
          2 hlineto
          2 -27 7 -18 22 -30 55 -74 rcurveline
          96 70 -55 74 -21 28 -16 12 -29 9 rlinecurve
          1 3 29 -6 17 1 38 12 rlinecurve
          89 29 -37 112 -88 -29 -38 -13 -18 -17 -14 -21 rlinecurve
          -2 1 rlineto
          11 24 10 23 39 vvcurveto
          94 -118 -94 vlineto
          -39 6 -26 14 -21 vhcurveto
          -1 -1 -14 21 -25 21 -29 9 rlinecurve
          -88 28 rlineto
          endchar
        </CharString>
        <CharString name="at">
          407 588 177 rmoveto
          -41 -1 -36 -18 -74 hhcurveto
          -38 -21 9 31 25 17 15 52 hvcurveto
          101 hlineto
          -30 -232 rmoveto
          -5 -21 -27 -1 -32 hhcurveto
          -253 -35 56 215 239 35 61 277 287 31 -61 -242 -159 2 -34 -55 -55 7 23 170 -5 hvcurveto
          200 -6 -66 42 -164 hhcurveto
          -53 -68 -10 -12 -36 hvcurveto
          -113 vlineto
          275 callgsubr
          40 49 8 53 hhcurveto
          81 30 -12 -46 8 hvcurveto
          -130 hlineto
          -116 -51 -50 -85 -101 52 -50 102 73 47 19 31 24 hvcurveto
          2 hlineto
          4 -22 rlineto
          -83 15 53 -29 111 hhcurveto
          167 22 70 238 313 -88 117 -370 -351 -101 -117 -313 -291 99 -110 328 34 26 3 4 24 hvcurveto
          -2 128 rlineto
          endchar
        </CharString>
        <CharString name="atilde">
          -99 callsubr
          390 149 -92 callgsubr
        </CharString>
        <CharString name="b">
          -16 220 682 rmoveto
          -160 -661 hlineto
          3 -2 rlineto
          -11 64 86 -8 99 hhcurveto
          176 66 94 180 152 -62 75 -129 -80 -41 -32 -48 -18 hvcurveto
          -4 hlineto
          56 -285 rmoveto
          -20 -18 1 3 -18 hvcurveto
          117 vlineto
          78 38 30 53 70 17 -37 -78 vhcurveto
          -95 -1 -27 -19 -94 hhcurveto
          endchar
        </CharString>
        <CharString name="backslash">
          -131 20 642 rmoveto
          304 -744 rlineto
          160 hlineto
          -304 744 rlineto
          endchar
        </CharString>
        <CharString name="bar">
          -315 60 -301 rmoveto
          160 983 -160 hlineto
          endchar
        </CharString>
        <CharString name="braceleft">
          -187 180 271 rmoveto
          4 vlineto
          26 3 53 12 62 vvcurveto
          284 vlineto
          36 16 12 32 9 13 -2 -3 8 vhcurveto
          1 1 rlineto
          107 vlineto
          6 -17 -21 4 -29 hhcurveto
          -104 -34 -54 -86 hvcurveto
          -292 vlineto
          -36 -51 0 -17 vhcurveto
          -109 vlineto
          17 51 0 -45 hvcurveto
          -284 vlineto
          -86 34 -54 104 29 21 4 6 17 vhcurveto
          107 vlineto
          -1 1 rlineto
          -3 -8 -13 -2 -9 hhcurveto
          -32 -16 12 36 hvcurveto
          276 vlineto
          77 -53 4 -26 2 vhcurveto
          endchar
        </CharString>
        <CharString name="braceright">
          -187 149 -88 rmoveto
          -36 -16 -12 -32 -9 -13 2 3 -8 vhcurveto
          -1 -1 rlineto
          -107 vlineto
          -6 17 21 -4 29 hhcurveto
          104 34 54 86 hvcurveto
          284 vlineto
          45 51 0 17 vhcurveto
          109 vlineto
          -17 -51 0 36 hvcurveto
          292 vlineto
          86 -34 54 -104 -29 -21 -4 -6 -17 vhcurveto
          -107 vlineto
          1 -1 rlineto
          3 8 13 2 9 hhcurveto
          32 16 -12 -36 hvcurveto
          -284 vlineto
          -62 53 -12 26 190 callsubr
          -26 -2 -53 -4 -77 vvcurveto
          endchar
        </CharString>
        <CharString name="bracketleft">
          -252 60 797 rmoveto
          -1056 253 125 -105 806 105 125 vlineto
          endchar
        </CharString>
        <CharString name="bracketright">
          -252 30 672 rmoveto
          105 -806 -105 -125 253 1056 -253 hlineto
          endchar
        </CharString>
        <CharString name="breve">
          -177 408 837 -28 callgsubr
        </CharString>
        <CharString name="brokenbar">
          -315 76 139 rmoveto
          -440 160 440 vlineto
          102 vmoveto
          441 -160 -441 vlineto
          endchar
        </CharString>
        <CharString name="bullet">
          -222 187 427 rmoveto
          -50 -50 -5 -8 -49 hvcurveto
          -6 -44 -2 -33 -31 vvcurveto
          -32 2 -35 6 -39 vhcurveto
          -9 49 50 -7 50 hhcurveto
          49 47 7 9 53 hvcurveto
          5 41 2 33 32 vvcurveto
          31 -2 33 -5 44 vhcurveto
          8 -50 -50 5 -49 hhcurveto
          endchar
        </CharString>
        <CharString name="c">
          -62 callsubr
          endchar
        </CharString>
        <CharString name="cacute">
          -62 callsubr
          -28 547 -84 callgsubr
        </CharString>
        <CharString name="caron">
          -247 223 836 -93 callgsubr
        </CharString>
        <CharString name="ccaron">
          -62 callsubr
          -135 544 -93 callgsubr
        </CharString>
        <CharString name="ccedilla">
          -126 435 153 rmoveto
          -6 -48 -41 -4 -46 hhcurveto
          -89 -30 13 90 79 30 30 89 44 47 -4 -8 40 hvcurveto
          3 2 -1 134 rlineto
          13 -41 -73 9 -59 hhcurveto
          -148 -88 -56 -197 1 hvcurveto
          1 -171 60 -63 125 -12 -19 -93 rcurveline
          -18 callsubr
          8 36 59 2 52 6 28 11 rlinecurve
          130 vlineto
          endchar
        </CharString>
        <CharString name="ccircumflex">
          -62 callsubr
          -151 544 -98 callgsubr
          endchar
        </CharString>
        <CharString name="cdotaccent">
          -62 callsubr
          -170 509 -87 callsubr
        </CharString>
        <CharString name="cedilla">
          -372 -3 -134 rmoveto
          -77 vlineto
          -5 26 24 -2 54 hhcurveto
          109 callsubr
          13 55 rlineto
          -90 hlineto
          -23 -111 rlineto
          14 hlineto
          70 -2 18 -6 -16 vvcurveto
          -15 -16 -7 -54 -41 -17 3 3 -12 vhcurveto
          endchar
        </CharString>
        <CharString name="cent">
          -121 213 616 rmoveto
          -117 vlineto
          -119 -12 -70 -64 1 -175 1 -172 61 -63 126 -11 rrcurveto
          -112 150 115 vlineto
          32 3 27 5 17 7 rrcurveto
          130 vlineto
          -4 3 rlineto
          -6 -48 -41 -4 -46 hhcurveto
          -89 -30 13 90 79 30 30 89 44 47 -4 -8 40 hvcurveto
          3 2 -1 134 -18 6 -25 5 -27 4 rlinecurve
          122 vlineto
          endchar
        </CharString>
        <CharString name="circumflex">
          -247 192 836 -98 callgsubr
          endchar
        </CharString>
        <CharString name="colon">
          -285 156 466 290 callsubr
          -30 hvcurveto
          -4 -26 -1 -21 -18 vvcurveto
          -20 1 -19 4 -25 vhcurveto
          -6 30 289 callgsubr
          6 32 hvcurveto
          2 26 241 callgsubr
          -319 vmoveto
          -30 -31 -2 -6 -29 hvcurveto
          -5 -27 -1 -20 -19 211 callsubr
          289 callgsubr
          7 32 hvcurveto
          2 25 1 20 19 vvcurveto
          20 -1 18 -2 27 vhcurveto
          6 -31 -30 2 -30 hhcurveto
          endchar
        </CharString>
        <CharString name="comma">
          -394 58 -94 108 callgsubr
        </CharString>
        <CharString name="commaaccent">
          -394 59 -219 -101 callsubr
          endchar
        </CharString>
        <CharString name="copyright">
          528 562 -106 rmoveto
          378 118 114 348 346 -118 115 -378 -378 -119 -115 -346 -348 119 -114 378 hvcurveto
          -352 462 rmoveto
          261 58 70 294 308 54 -70 -261 -1 vhcurveto
          -260 -1 -52 -72 -308 hhcurveto
          -294 -58 72 260 hvcurveto
          525 -101 rmoveto
          -6 -47 -40 -4 -45 hhcurveto
          -88 -29 13 88 78 29 29 88 43 46 -4 -8 39 hvcurveto
          3 2 -1 132 rlineto
          12 -40 -72 9 -58 hhcurveto
          -145 -86 -55 -193 1 hvcurveto
          -188 1 75 -55 155 hhcurveto
          72 70 7 13 33 hvcurveto
          127 vlineto
          endchar
        </CharString>
        <CharString name="currency">
          37 217 323 rmoveto
          81 24 33 75 77 22 -33 -81 -86 -22 -29 -77 -75 -24 29 86 vhcurveto
          99 -251 rmoveto
          41 35 4 7 30 hvcurveto
          30 -55 rlineto
          170 hlineto
          -84 142 rlineto
          19 38 9 50 63 vvcurveto
          65 -9 52 -21 38 vhcurveto
          86 145 rlineto
          -170 hlineto
          -32 -59 rlineto
          7 -30 -34 4 -40 hhcurveto
          -38 -33 -3 -7 -28 hvcurveto
          -32 58 rlineto
          -175 hlineto
          87 -142 rlineto
          -21 -39 -10 -52 -67 vvcurveto
          -64 9 -51 21 -38 vhcurveto
          -86 -140 rlineto
          175 hlineto
          30 54 rlineto
          -7 29 33 -3 39 hhcurveto
          endchar
        </CharString>
        <CharString name="d">
          -19 516 9 rmoveto
          673 -160 -204 2 callgsubr
          endchar
        </CharString>
        <CharString name="dagger">
          -130 312 -177 rmoveto
          -159 556 hlineto
          13 1 24 6 12 vhcurveto
          -1 1 rlineto
          -7 -13 -13 -1 -23 hhcurveto
          -90 130 90 hlineto
          23 13 -1 -7 13 hvcurveto
          1 1 rlineto
          -6 12 -1 24 13 vvcurveto
          89 160 -89 vlineto
          -13 -1 -24 -6 -12 vhcurveto
          1 -1 rlineto
          7 13 13 1 23 hhcurveto
          89 -130 -90 hlineto
          -23 -13 1 7 -13 hvcurveto
          -1 -1 rlineto
          6 -12 1 -24 -13 vvcurveto
          endchar
        </CharString>
        <CharString name="daggerdbl">
          -130 445 421 rmoveto
          130 -89 vlineto
          248 callgsubr
          89 -160 -89 135 callgsubr
          -253 135 callgsubr
          -89 160 89 241 callsubr
          89 130 -90 hlineto
          248 callgsubr
          253 241 callsubr
          endchar
        </CharString>
        <CharString name="danda">
          5 232 -59 269 callsubr
          endchar
        </CharString>
        <CharString name="dcaron">
          -16 516 9 rmoveto
          673 -160 -204 2 callgsubr
          303 625 -93 callgsubr
        </CharString>
        <CharString name="dcroat">
          -19 516 9 rmoveto
          524 74 80 -74 69 -160 -69 -70 -80 70 -55 2 callgsubr
          endchar
        </CharString>
        <CharString name="degree">
          -302 146 727 rmoveto
          -89 -37 -40 -84 -83 37 -40 89 90 37 40 83 84 -37 40 -90 hvcurveto
          -55 -124 rmoveto
          37 13 17 42 42 14 -17 -37 -37 -14 -17 -42 -42 -13 17 37 vhcurveto
          endchar
        </CharString>
        <CharString name="dieresis">
          -256 263 787 rmoveto
          -106 callgsubr
          -185 hmoveto
          -106 callgsubr
          endchar
        </CharString>
        <CharString name="divide">
          -7 295 195 rmoveto
          -30 -31 -2 -6 -29 hvcurveto
          -4 -26 -2 -21 -18 vvcurveto
          -20 2 -20 4 -24 vhcurveto
          -5 29 29 -4 30 hhcurveto
          30 30 4 5 32 hvcurveto
          2 26 2 20 18 vvcurveto
          20 -2 19 -2 26 vhcurveto
          6 -31 -29 2 -30 hhcurveto
          414 vmoveto
          -29 -29 -2 -6 -28 hvcurveto
          -4 -25 -1 -21 -16 vvcurveto
          -19 1 -19 4 -23 vhcurveto
          -5 28 27 -4 29 hhcurveto
          29 28 4 5 31 hvcurveto
          2 24 1 19 18 vvcurveto
          19 -1 18 -2 25 vhcurveto
          6 -30 -27 2 -29 hhcurveto
          253 -339 rmoveto
          124 -508 -124 vlineto
          endchar
        </CharString>
        <CharString name="dollar">
          12 213 766 rmoveto
          -122 vlineto
          -125 -19 -48 -57 -108 vvcurveto
          -114 45 -65 149 -14 vhcurveto
          66 -6 rlineto
          90 -8 17 -13 -37 vvcurveto
          -45 -20 -18 -142 -70 -72 12 20 -59 vhcurveto
          -4 -3 rlineto
          -141 vlineto
          54 -14 54 -9 65 -3 rrcurveto
          -112 160 116 vlineto
          140 19 54 64 111 145 callsubr
          -46 19 -56 11 -68 4 rlinecurve
          116 vlineto
          endchar
        </CharString>
        <CharString name="dotaccent">
          -441 78 756 -87 callsubr
        </CharString>
        <CharString name="dotlessi">
          45 callsubr
          endchar
        </CharString>
        <CharString name="dottedcircle">
          65 183 477 rmoveto
          26 18 19 26 25 -18 19 -26 -26 -18 -19 -25 -26 18 -19 26 hvcurveto
          -80 -109 rmoveto
          24 20 19 25 25 -20 19 -24 -26 -20 -19 -25 -25 20 -19 26 hvcurveto
          -15 -125 rmoveto
          26 18 18 282 callsubr
          -18 25 hvcurveto
          52 -117 rmoveto
          25 19 18 26 25 -19 19 -25 -26 -18 -19 -25 -26 18 -18 26 hvcurveto
          102 -77 rmoveto
          25 19 20 26 24 -19 20 -25 -26 -19 -20 -24 -26 19 -20 26 hvcurveto
          126 -14 rmoveto
          26 19 18 26 26 -19 18 -26 -26 -18 -18 -26 -26 18 -18 26 hvcurveto
          121 53 rmoveto
          25 20 18 26 25 -20 19 -25 -25 -19 -19 -25 -26 19 -18 25 hvcurveto
          74 98 rmoveto
          24 19 19 25 26 -19 19 -24 -26 -19 -19 -26 -25 19 -19 26 hvcurveto
          9 134 rmoveto
          25 19 18 26 26 -19 18 -25 -26 -18 -18 -26 -26 18 -18 26 hvcurveto
          -50 118 rmoveto
          26 18 19 282 callsubr
          -19 25 hvcurveto
          -94 68 rmoveto
          25 18 20 24 26 -18 19 -25 -26 -19 -19 -26 -24 19 -20 26 hvcurveto
          -127 15 rmoveto
          26 18 18 26 26 -18 18 -26 -26 -18 -18 -26 -26 18 -18 26 hvcurveto
          endchar
        </CharString>
        <CharString name="doubledanda">
          5 112 -59 269 callsubr
          244 -726 269 callsubr
          endchar
        </CharString>
        <CharString name="dvA">
          17 callsubr
          endchar
        </CharString>
        <CharString name="dvAA">
          415 62 478 rmoveto
          -50 callgsubr
          -576 -23 callsubr
          endchar
        </CharString>
        <CharString name="dvAI">
          -46 108 862 164 callgsubr
          7 -4 rlineto
          -414 -107 89 -233 hlineto
          -1 callgsubr
          100 107 -108 vlineto
          -218 255 rlineto
          endchar
        </CharString>
        <CharString name="dvAU">
          415 446 210 callgsubr
          -254 -23 callsubr
          -112 vlineto
          -50 callgsubr
          -106 53 callgsubr
          endchar
        </CharString>
        <CharString name="dvAbbreviationsign">
          -13 482 297 rmoveto
          111 -56 68 -135 -135 -56 -68 -111 -111 56 -68 135 135 56 68 111 vhcurveto
          -191 -82 rmoveto
          -66 -19 29 53 53 19 28 66 66 19 -28 -53 -53 -19 -29 -66 hvcurveto
          endchar
        </CharString>
        <CharString name="dvAcandra">
          17 callsubr
          636 247 36 callsubr
        </CharString>
        <CharString name="dvAnusvara">
          -595 -54 719 -15 callsubr
          endchar
        </CharString>
        <CharString name="dvAnusvara.matrai">
          -595 178 663 rmoveto
          -16 0 -16 -2 -21 vhcurveto
          -5 -26 -25 -4 -26 hhcurveto
          -24 -25 4 5 -25 hvcurveto
          -2 20 -1 16 16 vvcurveto
          15 1 17 2 23 vhcurveto
          5 25 26 2 25 hhcurveto
          24 26 -2 -5 25 hvcurveto
          2 -23 0 -15 -16 vvcurveto
          endchar
        </CharString>
        <CharString name="dvAvagraha">
          -84 476 155 rmoveto
          80 -37 45 -59 37 vhcurveto
          -131 82 rlineto
          -40 25 -14 16 24 vvcurveto
          26 13 10 39 vhcurveto
          215 107 -214 hlineto
          -153 -48 -37 -103 -65 33 -49 56 -35 hvcurveto
          100 -62 rlineto
          48 -30 43 -20 -31 vvcurveto
          -42 -19 -14 -60 -66 -14 14 42 vhcurveto
          24 -148 -44 vlineto
          -109 58 -44 170 174 54 51 102 vhcurveto
          endchar
        </CharString>
        <CharString name="dvB">
          -174 -50 500 rmoveto
          526 107 -526 hlineto
          613 -481 rmoveto
          -53 93 -22 -11 -27 -9 -29 -7 rlinecurve
          240 callgsubr
          rlineto
          -74 callgsubr
          126 93 23 39 80 hvcurveto
          -273 47 -82 callgsubr
          0 vlineto
          -2 -19 -18 -1 -17 hhcurveto
          endchar
        </CharString>
        <CharString name="dvBA">
          41 291 callgsubr
          479 -305 vlineto
          -32 callgsubr
          -122 -64 42 callsubr
          242 callgsubr
          vlineto
          -386 -434 183 callgsubr
          endchar
        </CharString>
        <CharString name="dvBH">
          -203 -70 108 callsubr
          123 vlineto
          240 callsubr
          213 callsubr
          261 112 -260 142 hlineto
          136 -37 49 -125 vhcurveto
          endchar
        </CharString>
        <CharString name="dvBHA">
          21 407 607 rmoveto
          -327 -155 142 222 callgsubr
          -153 vlineto
          -60 -21 -18 -75 -74 22 -19 97 144 callgsubr
        </CharString>
        <CharString name="dvBH_LA">
          591 352 108 callsubr
          625 -47 callgsubr
          -106 -63 -42 -98 -13 hvcurveto
          -176 142 hlineto
          16 callsubr
          -153 vlineto
          111 callgsubr
          -74 23 -19 97 213 callsubr
          180 hlineto
          8 -54 19 -54 28 -51 rrcurveto
          -59 callgsubr
          vlineto
          endchar
        </CharString>
        <CharString name="dvBH_NA">
          383 352 108 callsubr
          417 110 callgsubr
          -62 -27 -6 -44 -10 hvcurveto
          -166 132 hlineto
          16 callsubr
          -153 vlineto
          111 callgsubr
          -74 23 -19 97 85 21 13 71 3 hvcurveto
          168 hlineto
          -35 11 26 -9 57 hhcurveto
          79 22 9 85 2 hvcurveto
          152 1 rlineto
          -220 102 callgsubr
        </CharString>
        <CharString name="dvBH_R">
          -183 510 208 rmoveto
          112 -258 102 222 callgsubr
          -113 248 callsubr
          124 -2 hlineto
          -57 -54 -80 -87 -40 -64 134 callgsubr
          endchar
        </CharString>
        <CharString name="dvBH_RA">
          41 427 607 rmoveto
          -287 -175 102 222 callgsubr
          -113 vlineto
          -60 -21 -18 -75 -74 22 -19 97 132 callsubr
        </CharString>
        <CharString name="dvBH_R_YA">
          495 726 255 callgsubr
          20 40 148 callsubr
          88 149 -272 vlineto
          -20 -43 -50 -8 -63 hhcurveto
          404 300 rmoveto
          107 -778 -107 239 -46 vlineto
          -72 -11 -20 -61 -4 vhcurveto
          -267 64 hlineto
          16 callsubr
          -75 248 callsubr
          155 hlineto
          -84 -72 -86 -101 -48 -72 rrcurveto
          -4 186 vlineto
          106 160 rlineto
          -55 45 78 -26 109 171 callgsubr
          endchar
        </CharString>
        <CharString name="dvBH_VA">
          408 352 607 rmoveto
          128 callsubr
          -118 -60 -46 -113 -9 hvcurveto
          -166 142 hlineto
          16 callsubr
          -153 vlineto
          111 callgsubr
          -74 23 -19 97 213 callsubr
          176 hlineto
          -79 23 64 -33 125 hhcurveto
          -13 callsubr
          vlineto
          endchar
        </CharString>
        <CharString name="dvBH_YA">
          475 352 607 259 callsubr
          -11 0 -11 1 -10 vhcurveto
          -164 142 hlineto
          16 callsubr
          -153 vlineto
          111 callgsubr
          -74 23 -19 97 213 callsubr
          204 hlineto
          -61 45 79 -31 113 -97 callgsubr
          vlineto
          -404 -407 -7 callsubr
        </CharString>
        <CharString name="dvB_BA">
          462 290 47 callgsubr
          0 vlineto
          -2 -19 -18 -1 -17 hhcurveto
          421 hmoveto
          -94 -34 17 64 18 2 14 4 11 hvcurveto
          2 hlineto
          174 -120 rlineto
          -1 vlineto
          -2 -18 -19 -1 -17 hhcurveto
          287 -164 rmoveto
          491 99 107 -1147 -107 900 -305 vlineto
          -32 callgsubr
          -122 -64 -47 -140 -20 1 -18 3 -16 hvcurveto
          -7 -2 -8 -2 -8 -30 callsubr
          99 79 14 25 68 hvcurveto
          -27 38 57 -12 80 hhcurveto
          236 callgsubr
          vlineto
          endchar
        </CharString>
        <CharString name="dvB_BHA">
          442 291 143 -82 callgsubr
          0 vlineto
          -2 -19 -18 -1 -17 hhcurveto
          537 464 rmoveto
          -327 -155 142 219 callgsubr
          -153 48 callsubr
          156 -159 -66 callsubr
          hlineto
          endchar
        </CharString>
        <CharString name="dvB_BH_RA">
          462 291 183 -82 callgsubr
          0 vlineto
          -2 -19 -18 -1 -17 hhcurveto
          557 424 rmoveto
          -287 -175 102 219 callgsubr
          -113 48 callsubr
          124 -2 hlineto
          -57 -54 -80 -87 -40 -64 134 callgsubr
          71 127 rlineto
          2 -115 215 callgsubr
          hlineto
          endchar
        </CharString>
        <CharString name="dvB_DA">
          377 917 9 rmoveto
          265 callsubr
          -32 vlineto
          38 callgsubr
          228 179 100 107 -1062 -107 830 -66 hlineto
          276 callgsubr
          -21 2 -18 3 -17 hvcurveto
          -7 -2 -7 -2 -6 -1 -75 callgsubr
          97 77 14 23 67 hvcurveto
          -25 33 47 -11 62 hhcurveto
          122 callsubr
          -483 164 -82 callgsubr
          0 vlineto
          -2 -19 -18 -1 -17 hhcurveto
          endchar
        </CharString>
        <CharString name="dvB_DHA">
          449 290 47 callgsubr
          0 vlineto
          -2 -19 -18 -1 -17 hhcurveto
          565 434 rmoveto
          -404 vlineto
          230 callgsubr
          -85 -22 -39 callgsubr
          69 107 -800 -107 540 -3 hlineto
          -70 callgsubr
          -5 0 -4 -4 vvcurveto
          -12 -4 -12 -4 -13 -3 -75 callgsubr
          98 78 14 24 67 hvcurveto
          -32 32 53 -16 78 hhcurveto
          290 callgsubr
          hvcurveto
          3 -2 rlineto
          -74 102 callgsubr
        </CharString>
        <CharString name="dvB_DH_VA">
          841 290 47 callgsubr
          0 vlineto
          -2 -19 -18 -1 -17 hhcurveto
          510 434 39 callsubr
          -745 -107 540 -3 hlineto
          -70 callgsubr
          -5 0 -4 -4 vvcurveto
          -12 -4 -12 -4 -13 -3 -75 callgsubr
          99 79 14 25 68 hvcurveto
          -33 36 62 -16 99 hhcurveto
          97 58 11 24 55 hvcurveto
          -23 35 51 -10 69 hhcurveto
          -13 callsubr
          vlineto
          endchar
        </CharString>
        <CharString name="dvB_JA">
          479 584 192 callsubr
          -1174 -107 927 -97 -372 -116 30 vlineto
          82 19 -18 -60 -74 -21 -14 -29 callsubr
        </CharString>
        <CharString name="dvB_JHA">
          632 300 141 rmoveto
          -94 -34 17 64 16 1 14 4 10 hvcurveto
          178 -119 rlineto
          -1 vlineto
          -1 -17 -18 0 -20 hhcurveto
          600 359 92 callgsubr
          -118 160 rmoveto
          -53 -155 104 callsubr
          55 hlineto
          74 13 -7 -29 -29 -15 -7 -79 -92 -17 7 29 hvcurveto
          8 -102 vlineto
          -210 141 rlineto
          -41 callsubr
          37 46 -6 -8 26 -7 callgsubr
          rlineto
          103 vlineto
          11 -37 -61 6 -52 hhcurveto
          -121 -70 42 callsubr
          68 57 7 12 52 hvcurveto
          -125 125 vlineto
          38 -2 24 -10 28 vhcurveto
          3 3 rlineto
          -12 28 54 -7 56 hhcurveto
          127 55 30 88 9 hvcurveto
          123 -109 -100 callsubr
          -1317 -107 hlineto
          endchar
        </CharString>
        <CharString name="dvB_J_YA">
          883 1114 200 rmoveto
          -108 -46 21 47 -3 hvcurveto
          13 3 hlineto
          111 10 40 49 98 vvcurveto
          72 149 -272 vlineto
          -20 -43 -50 -8 -63 hhcurveto
          -530 -200 rmoveto
          140 38 50 111 47 -19 43 -38 15 hvcurveto
          2 121 vlineto
          -128 19 94 -64 161 -97 callgsubr
          -1578 -107 1039 -30 vlineto
          -72 -11 -20 -60 -4 vhcurveto
          -413 -116 30 293 callgsubr
          -54 -21 -15 -29 callsubr
        </CharString>
        <CharString name="dvB_JxA">
          489 579 -50 rmoveto
          5 -23 -22 2 -22 hhcurveto
          -23 -23 -2 -5 -22 hvcurveto
          -3 -20 -1 -15 -14 vvcurveto
          -14 1 -15 3 -18 vhcurveto
          -5 22 22 -2 22 hhcurveto
          23 22 2 5 298 callgsubr
          13 -2 20 vhcurveto
          5 50 rmoveto
          -60 callsubr
          156 callsubr
          -1174 -107 927 -97 -372 -116 30 vlineto
          82 19 -18 -60 -74 -21 -14 -29 callsubr
        </CharString>
        <CharString name="dvB_LA">
          620 290 47 callgsubr
          0 vlineto
          -2 -19 -18 -1 -17 hhcurveto
          367 -164 rmoveto
          5 vlineto
          -79 callgsubr
          -1305 -107 1056 34 callsubr
          -13 1 -12 1 -13 hvcurveto
          -8 -2 -8 -2 -8 -30 callsubr
          84 70 10 19 60 hvcurveto
          10 -29 12 -28 15 -27 rrcurveto
          endchar
        </CharString>
        <CharString name="dvB_L_YA">
          1046 290 47 callgsubr
          0 vlineto
          -2 -19 -18 -1 -17 hhcurveto
          987 27 -106 callsubr
          -640 -191 rmoveto
          5 vlineto
          19 callgsubr
          -1731 -107 1192 172 callsubr
          -123 -56 -58 -126 -12 0 -13 1 -12 hvcurveto
          -8 -3 -9 -2 -8 -30 callsubr
          82 69 10 18 59 hvcurveto
          8 -28 9 -28 12 -27 rrcurveto
          endchar
        </CharString>
        <CharString name="dvB_NA">
          412 947 9 273 callsubr
          -1097 -107 848 -179 vlineto
          294 callgsubr
          -8 0 -8 1 -6 hvcurveto
          -2 -4 -4 -1 -3 hhcurveto
          240 callgsubr
          rlineto
          144 callsubr
          -139 69 -49 165 124 92 22 38 79 hvcurveto
          62 2 20 12 3 60 153 1 rcurveline
          -200 vlineto
          -507 174 -82 callgsubr
          0 vlineto
          -2 -19 -18 -1 -17 hhcurveto
          endchar
        </CharString>
        <CharString name="dvB_R">
          -174 500 107 callgsubr
          -550 -107 vlineto
          340 -315 rmoveto
          -94 -34 17 52 18 2 14 4 11 hvcurveto
          2 hlineto
          161 -111 rlineto
          -1 -14 -14 0 -13 hhcurveto
          210 30 rmoveto
          -21 -9 -26 -7 -26 -4 -195 135 23 callsubr
          -127 79 -44 155 18 18 1 1 17 hvcurveto
          -3 vlineto
          -44 -30 -41 -39 -34 -42 159 callgsubr
          127 153 rlineto
          endchar
        </CharString>
        <CharString name="dvB_RA">
          42 290 185 159 callsubr
          -726 -107 479 -293 vlineto
          -4 -1 -5 -2 -4 -1 -184 127 23 callsubr
          -121 69 -49 165 hvcurveto
          154 callgsubr
        </CharString>
        <CharString name="dvB_SA">
          513 290 47 callgsubr
          0 vlineto
          -2 -19 -18 -1 -17 hhcurveto
          447 249 -45 callsubr
          -1198 -107 639 7 callgsubr
          -109 hlineto
          -8 -2 -8 -2 -7 -30 callsubr
          107 83 17 28 72 hvcurveto
          endchar
        </CharString>
        <CharString name="dvB_SHA">
          530 -50 500 rmoveto
          486 107 -486 hlineto
          330 -434 rmoveto
          -84 -34 17 64 18 2 14 4 11 hvcurveto
          2 hlineto
          171 -118 rlineto
          -4 -20 -21 -2 -20 hhcurveto
          633 434 14 callgsubr
          -119 hlineto
          -6 -7 -11 -7 -14 -7 247 callgsubr
          37 45 -6 -8 27 -7 callgsubr
          rlineto
          103 vlineto
          11 -37 -52 6 -59 hhcurveto
          -124 -69 42 callsubr
          142 67 26 53 51 hvcurveto
          129 -134 0 callsubr
        </CharString>
        <CharString name="dvB_TA">
          414 290 47 callgsubr
          0 vlineto
          -2 -19 -18 -1 -17 hhcurveto
          373 -167 rmoveto
          3 vlineto
          -74 callsubr
          -1099 -107 851 -5 callsubr
          -126 -72 -34 -114 -21 1 -21 3 -21 hvcurveto
          -11 -4 -10 -3 -11 -30 callsubr
          88 72 11 20 63 hvcurveto
          9 -29 10 -29 13 -31 rrcurveto
          endchar
        </CharString>
        <CharString name="dvB_VA">
          437 290 47 callgsubr
          0 vlineto
          -2 -19 -18 -1 -17 hhcurveto
          682 -164 273 callsubr
          -1122 -107 874 212 callgsubr
          -102 callsubr
          -128 -60 -54 -134 -20 1 -18 3 -17 hvcurveto
          -6 -1 -6 -2 -6 -1 -75 callgsubr
          94 75 13 22 65 hvcurveto
          -30 36 55 -13 79 194 callgsubr
        </CharString>
        <CharString name="dvB_YA">
          504 290 47 callgsubr
          0 vlineto
          -2 -19 -18 -1 -17 hhcurveto
          445 27 -106 callsubr
          304 -191 273 callsubr
          -1189 -107 650 -36 vlineto
          92 callsubr
          -123 -68 -47 -140 -139 69 -49 165 115 88 19 33 75 hvcurveto
          -27 45 60 -13 74 hhcurveto
          29 callgsubr
          -89 vlineto
          endchar
        </CharString>
        <CharString name="dvC">
          -168 537 136 rmoveto
          -19 119 -44 -31 -56 -15 -83 2 rlinecurve
          112 callsubr
          -35 364 rmoveto
          107 -537 -107 vlineto
          endchar
        </CharString>
        <CharString name="dvCA">
          67 -35 108 callsubr
          488 -258 vlineto
          223 callgsubr
          43 -57 callgsubr
          -96 80 -41 178 callsubr
          -105 102 callgsubr
        </CharString>
        <CharString name="dvCH">
          92 732 107 callgsubr
          -792 -107 124 138 callsubr
          141 -49 31 -119 -94 -61 -20 -117 -24 3 -28 7 -25 vhcurveto
          110 2 hlineto
          -4 17 -3 20 18 vvcurveto
          46 8 15 33 33 10 -15 -46 -43 -1 -49 -16 -27 vhcurveto
          -36 -21 -53 -18 -95 hhcurveto
          -60 callgsubr
          endchar
        </CharString>
        <CharString name="dvCHA">
          87 727 107 callgsubr
          -787 -107 134 138 callsubr
          272 callsubr
          vhcurveto
          54 vlineto
          -218 -378 -77 callsubr
          endchar
        </CharString>
        <CharString name="dvCH_R">
          87 727 107 callgsubr
          -787 -107 134 18 callsubr
          120 rlineto
          155 33 28 100 122 vvcurveto
          141 -49 31 -119 -94 -61 -20 -117 -24 3 -28 7 -25 vhcurveto
          110 2 hlineto
          -4 17 -3 20 18 vvcurveto
          46 8 15 33 33 10 -15 -46 -43 -1 -49 -16 -27 vhcurveto
          -36 -21 -53 -18 -95 hhcurveto
          -60 callgsubr
          endchar
        </CharString>
        <CharString name="dvCH_RA">
          88 344 122 -77 callsubr
          383 378 rmoveto
          107 -787 -107 134 18 callsubr
          120 rlineto
          155 33 28 100 122 vvcurveto
          272 callsubr
          vhcurveto
          54 vlineto
          endchar
        </CharString>
        <CharString name="dvCH_R_YA">
          267 callgsubr
          137 18 callsubr
          121 rlineto
          154 34 26 103 122 vvcurveto
          25 -1 21 -3 18 vhcurveto
          153 77 callsubr
          -59 25 callsubr
          -58 -18 callgsubr
          vlineto
          -915 175 callgsubr
          852 -324 hlineto
          196 callgsubr
          155 callgsubr
          -360 0 hlineto
          -89 118 callsubr
        </CharString>
        <CharString name="dvCH_VA">
          87 727 107 callgsubr
          -787 -107 134 4 callsubr
          -70 42 -49 61 -13 vhcurveto
          -20 callgsubr
        </CharString>
        <CharString name="dvCH_YA">
          267 callgsubr
          124 76 callsubr
          116 169 25 -1 21 -4 18 vhcurveto
          164 77 callsubr
          -59 25 callsubr
          -58 -18 callgsubr
          vlineto
          -928 175 callgsubr
          865 -324 hlineto
          196 callgsubr
          155 callgsubr
          -363 0 hlineto
          -2 -1 0 -2 hhcurveto
          -94 118 callsubr
        </CharString>
        <CharString name="dvC_CA">
          494 880 9 rmoveto
          -66 callsubr
          -1164 -107 915 -258 hlineto
          223 callgsubr
          43 vvcurveto
          37 127 callgsubr
          -339 -131 hlineto
          40 37 7 8 23 hvcurveto
          2 -3 -13 -10 -11 -17 -4 -25 rlinecurve
          -44 -29 -55 -14 -80 2 rrcurveto
          112 callsubr
          -1 7 rlineto
          -41 32 63 -18 82 hhcurveto
          60 61 12 19 44 hvcurveto
          2 -1 rlineto
          endchar
        </CharString>
        <CharString name="dvC_CHA">
          514 1154 107 callgsubr
          -1189 -107 536 -16 callsubr
          vlineto
          -54 -7 -31 -24 -14 -39 -36 -13 -44 -6 -55 12 callgsubr
          70 57 8 17 49 vhcurveto
          -76 31 94 -33 177 hhcurveto
          267 42 111 169 272 callsubr
          hvcurveto
          54 vlineto
          -218 -378 -77 callsubr
          endchar
        </CharString>
        <CharString name="dvC_CH_VA">
          514 1154 107 callgsubr
          -1189 -107 536 -16 callsubr
          vlineto
          -54 -7 -31 -24 -14 -39 -36 -13 -44 -6 -55 12 callgsubr
          71 57 9 16 51 vhcurveto
          17 -35 32 -24 40 -9 rrcurveto
          -20 callgsubr
        </CharString>
        <CharString name="dvC_MA">
          453 682 109 callgsubr
          -220 vlineto
          -48 -23 -12 -43 -7 hvcurveto
          -33 -11 -40 -4 -48 12 callgsubr
          73 58 9 18 52 vhcurveto
          -13 18 29 -4 46 hhcurveto
          -48 callgsubr
          -1123 -107 vlineto
          endchar
        </CharString>
        <CharString name="dvC_NA">
          418 804 9 rmoveto
          -66 callsubr
          -1088 -107 839 -159 142 callgsubr
          -89 -22 -12 -89 hvcurveto
          -7 0 -6 -5 vvcurveto
          -30 -8 -34 -3 -42 12 callgsubr
          102 78 18 34 65 vhcurveto
          2 vlineto
          2 3 0 3 hhcurveto
          236 callsubr
          endchar
        </CharString>
        <CharString name="dvC_R">
          -168 532 256 rmoveto
          -50 -29 -67 -14 -80 2 rrcurveto
          303 callgsubr
          34 -57 callgsubr
          -69 80 -41 132 15 14 0 1 14 vhcurveto
          -2 vlineto
          -38 -24 -46 -43 -27 -34 rrcurveto
          -4 164 vlineto
          145 158 rlineto
          95 vlineto
          247 vmoveto
          107 -572 -107 vlineto
          endchar
        </CharString>
        <CharString name="dvC_RA">
          73 702 107 callgsubr
          -737 -107 488 -254 vlineto
          223 callgsubr
          39 vvcurveto
          32 127 callgsubr
          -339 -131 hlineto
          40 37 7 8 23 hvcurveto
          2 -3 rlineto
          -18 -14 -13 -25 -39 vvcurveto
          -73 80 -41 122 vhcurveto
          274 callgsubr
          -2 vlineto
          -38 -24 -46 -43 -27 -34 159 callgsubr
          88 138 rlineto
          1 hlineto
          2 -1 rlineto
          -128 302 callgsubr
        </CharString>
        <CharString name="dvC_YA">
          510 741 200 -16 callgsubr
          -1180 -107 641 194 callsubr
          -32 4 -28 8 -25 vhcurveto
          -35 -12 -41 -5 -51 1 rrcurveto
          303 callgsubr
          43 -57 callgsubr
          -102 80 -41 132 102 79 11 31 65 vhcurveto
          -29 45 62 -15 78 63 callgsubr
        </CharString>
        <CharString name="dvCandrabindu">
          -595 -54 910 -15 callsubr
          132 -73 154 callsubr
        </CharString>
        <CharString name="dvD">
          -64 342 -56 -54 callgsubr
          -402 658 rmoveto
          -107 419 232 callgsubr
          -51 133 59 47 9 15 27 hvcurveto
          -46 callgsubr
          hlineto
          endchar
        </CharString>
        <CharString name="dvDA">
          -44 191 callsubr
          -51 133 59 47 9 15 27 hvcurveto
          -46 callgsubr
          hlineto
          endchar
        </CharString>
        <CharString name="dvDA_mvR">
          -64 571 107 callgsubr
          -631 -107 399 261 callsubr
          -137 67 -50 123 49 51 8 15 33 hvcurveto
          3 -2 rlineto
          -49 -13 vlineto
          -91 -56 -31 -101 -101 63 -34 116 30 43 3 7 28 hvcurveto
          94 vlineto
          -3 2 rlineto
          -6 -27 -30 -3 -28 hhcurveto
          -53 -20 6 31 30 18 7 36 hvcurveto
          107 308 -112 -34 hlineto
          -27 -21 -12 -75 -82 270 callgsubr
          214 179 hlineto
          endchar
        </CharString>
        <CharString name="dvDD">
          -77 169 -55 -54 callgsubr
          -199 657 167 callsubr
          -66 -73 9 13 -58 hvcurveto
          -5 -3 266 callgsubr
          -10 53 84 -10 166 callgsubr
          91 107 hlineto
          endchar
        </CharString>
        <CharString name="dvDDA">
          -77 -30 607 167 callsubr
          -66 -73 9 13 -58 hvcurveto
          -5 -3 266 callgsubr
          -10 53 84 -10 166 callgsubr
          91 107 hlineto
          endchar
        </CharString>
        <CharString name="dvDDH">
          -33 203 -56 -54 callgsubr
          -233 658 rmoveto
          -107 398 90 callsubr
          -45 callgsubr
          hlineto
          endchar
        </CharString>
        <CharString name="dvDDHA">
          -33 -30 108 callsubr
          398 90 callsubr
          -45 callgsubr
          hlineto
          endchar
        </CharString>
        <CharString name="dvDDH_DDHA">
          -1 -20 108 callsubr
          430 -56 vlineto
          1 -63 -72 0 -20 hhcurveto
          -151 -64 -40 -170 -79 24 -48 38 -12 hvcurveto
          -2 vlineto
          -42 -23 -20 -44 -80 vvcurveto
          -156 58 -35 207 197 59 23 109 92 -33 23 287 callsubr
          vhcurveto
          -80 209 callgsubr
          -10 -17 -28 -14 -5 -108 -101 -25 15 80 72 11 19 82 3 hvcurveto
          37 hlineto
          207 38 32 100 93 -33 23 287 callsubr
          hvcurveto
          -77 209 callgsubr
          -10 -21 -29 -14 -4 -108 -91 -25 15 80 80 15 15 109 hvcurveto
          228 167 111 107 hlineto
          endchar
        </CharString>
        <CharString name="dvDDH_R">
          -53 207 -166 -54 callgsubr
          -237 768 15 callgsubr
        </CharString>
        <CharString name="dvDDH_RA">
          -33 -30 607 15 callgsubr
        </CharString>
        <CharString name="dvDDH_VA">
          -1 292 -81 rmoveto
          -80 -29 9 40 40 20 14 93 -2 hvcurveto
          39 -1 34 2 29 3 rrcurveto
          -94 vlineto
          -8 -29 -32 -3 -45 hhcurveto
          347 581 rmoveto
          107 -669 -107 440 -56 vlineto
          1 -63 -72 0 -20 hhcurveto
          -158 -64 -50 -170 -93 27 -47 32 -13 hvcurveto
          -2 vlineto
          -26 -17 -20 -31 -62 vvcurveto
          -98 57 -53 151 50 57 6 11 37 vhcurveto
          -52 131 299 vlineto
          16 20 6 28 38 vvcurveto
          94 -33 30 287 callsubr
          vhcurveto
          -79 209 callgsubr
          -17 -20 -34 -14 -4 -108 -96 -25 19 86 88 15 19 114 hvcurveto
          228 167 hlineto
          endchar
        </CharString>
        <CharString name="dvDDH_YA">
          616 884 137 rmoveto
          -98 -37 14 22 hvcurveto
          117 39 41 90 92 -43 40 -126 hvcurveto
          -240 64 508 -345 hlineto
          196 callgsubr
          367 363 rmoveto
          107 -1281 -107 398 -61 vlineto
          1 -52 -51 0 -15 hhcurveto
          -148 -72 -55 -170 -160 56 -55 207 194 50 33 108 103 -37 33 -120 -38 -48 -5 -10 -42 hvcurveto
          283 callsubr
          56 266 callsubr
          24 116 hvcurveto
          398 77 callsubr
          -59 193 callgsubr
        </CharString>
        <CharString name="dvDDHxA">
          -33 353 -59 -107 callgsubr
          -383 666 rmoveto
          -107 398 90 callsubr
          -45 callgsubr
          hlineto
          endchar
        </CharString>
        <CharString name="dvDD_DDA">
          -45 -20 607 rmoveto
          238 callgsubr
          -23 -85 -92 42 -29 126 hvcurveto
          56 hlineto
          83 9 -6 -21 -21 -20 -7 286 callsubr
          -5 -3 rlineto
          -91 vlineto
          14 -4 27 -5 21 -1 rrcurveto
          -2 vlineto
          -33 -9 -20 -24 -37 vvcurveto
          -56 31 -31 127 vhcurveto
          66 hlineto
          83 8 -5 -20 -19 -21 -11 -105 -86 -71 10 17 -47 hvcurveto
          -3 -3 rlineto
          -107 vlineto
          -14 58 58 -6 93 hhcurveto
          194 62 30 95 101 -37 22 -168 hvcurveto
          -66 hlineto
          -34 -11 6 14 15 9 7 23 hvcurveto
          98 hlineto
          134 63 40 86 101 -32 23 -174 hvcurveto
          -66 hlineto
          -34 -10 5 16 16 10 5 34 hvcurveto
          261 140 218 callsubr
        </CharString>
        <CharString name="dvDD_DDHA">
          -49 -20 607 rmoveto
          238 callgsubr
          -23 -93 -94 51 -25 117 hvcurveto
          56 hlineto
          83 9 -6 -21 -20 -20 -7 286 callsubr
          -3 -1 rlineto
          -91 vlineto
          -4 14 35 -4 18 hhcurveto
          -2 vlineto
          -39 -10 -33 -45 -86 vvcurveto
          -142 67 -46 169 203 47 35 92 101 -33 26 -124 -43 -46 -6 -9 -36 vhcurveto
          -85 vlineto
          3 -2 rlineto
          6 29 29 3 30 hhcurveto
          59 6 -10 -21 -25 -14 -5 -103 -76 -35 20 82 72 28 28 72 184 54 22 112 92 -38 21 -168 hvcurveto
          -66 hlineto
          -34 -10 5 19 18 10 6 34 hvcurveto
          261 140 218 callsubr
        </CharString>
        <CharString name="dvDD_R">
          -97 177 -166 -54 callgsubr
          -207 768 -71 callgsubr
          218 callsubr
        </CharString>
        <CharString name="dvDD_RA">
          -78 -30 607 -71 callgsubr
          218 callsubr
        </CharString>
        <CharString name="dvDD_VA">
          -58 585 107 callgsubr
          -615 238 callgsubr
          -29 -89 -92 51 -25 117 hvcurveto
          56 hlineto
          83 9 -5 -19 -22 -20 -8 286 callsubr
          -5 -3 rlineto
          -91 vlineto
          15 -5 36 -5 17 -2 rrcurveto
          -2 vlineto
          -35 -10 -31 -34 -55 vvcurveto
          -78 53 -54 141 52 50 7 12 36 vhcurveto
          4 -3 15 6 4 -57 rlineto
          101 313 hlineto
          6 16 3 19 23 vvcurveto
          89 -38 32 -168 vhcurveto
          -66 hlineto
          -34 -10 5 20 17 10 6 34 hvcurveto
          261 140 hlineto
          -228 -540 rmoveto
          -83 -15 15 33 34 18 13 46 hvcurveto
          20 hlineto
          51 42 2 5 35 hvcurveto
          6 -98 -4 14 rlineto
          -12 -33 -37 -6 -46 hhcurveto
          endchar
        </CharString>
        <CharString name="dvDD_YA">
          567 834 155 rmoveto
          155 callgsubr
          -217 46 485 -327 hlineto
          196 callgsubr
          368 345 rmoveto
          107 -1232 -107 381 -48 -142 vlineto
          -111 -52 -35 -98 -91 43 -43 121 hvcurveto
          61 hlineto
          76 8 -9 -27 -30 -17 -6 -97 -76 -63 8 14 -58 hvcurveto
          -5 -3 266 callgsubr
          -11 53 84 -9 95 hhcurveto
          156 69 32 114 111 -44 30 -154 hvcurveto
          -71 hlineto
          -31 -9 8 22 24 9 6 31 hvcurveto
          418 77 callsubr
          -59 25 callsubr
          -55 243 callsubr
        </CharString>
        <CharString name="dvDDxA">
          -77 332 -59 -107 callgsubr
          -362 666 167 callsubr
          -66 -73 9 13 -58 hvcurveto
          -5 -3 266 callgsubr
          -10 53 84 -10 166 callgsubr
          91 107 hlineto
          endchar
        </CharString>
        <CharString name="dvDH">
          -191 52 callgsubr
          14 107 hlineto
          endchar
        </CharString>
        <CharString name="dvDHA">
          48 434 131 callsubr
          -394 -107 134 -3 hlineto
          -70 callgsubr
          vvcurveto
          -111 60 -51 141 290 callgsubr
          vhcurveto
          3 -2 rlineto
          -74 102 callgsubr
        </CharString>
        <CharString name="dvDH_MA">
          430 659 37 callsubr
          -724 321 rmoveto
          -107 134 67 callsubr
          61 -51 147 107 71 13 30 63 vhcurveto
          -2 14 17 -1 21 hhcurveto
          -48 callgsubr
          -686 -107 132 -220 vlineto
          -56 -22 -16 -64 -3 hvcurveto
          -14 -41 -42 -9 -50 183 callsubr
          hlineto
          endchar
        </CharString>
        <CharString name="dvDH_NA">
          395 394 108 callsubr
          380 -169 vlineto
          127 callsubr
          -89 -22 -12 -89 -51 -42 -2 -79 -75 -22 13 38 40 22 13 -34 callgsubr
          29 107 -354 -107 134 -3 hlineto
          -70 callgsubr
          vvcurveto
          -111 40 -51 191 151 60 22 52 23 vhcurveto
          6 hlineto
          236 callsubr
          -210 102 callgsubr
        </CharString>
        <CharString name="dvDH_N_YA">
          810 1041 200 -16 callgsubr
          -1051 -107 512 -36 hlineto
          -3 callsubr
          -48 0 hlineto
          -216 -1 rlineto
          -12 hlineto
          -89 -22 -12 -89 -85 -42 -4 -79 -75 -22 13 38 40 22 13 -34 callgsubr
          29 107 -354 -107 134 -3 hlineto
          -70 callgsubr
          vvcurveto
          -111 40 -51 191 169 55 28 82 17 vhcurveto
          84 23 10 80 3 hvcurveto
          125 1 rlineto
          -119 22 93 -60 157 63 callgsubr
        </CharString>
        <CharString name="dvDH_R">
          -208 273 107 callgsubr
          -338 30 callsubr
        </CharString>
        <CharString name="dvDH_RA">
          23 683 107 callgsubr
          -248 -106 -1 -288 vlineto
          230 callgsubr
          197 callsubr
          39 107 -374 -107 134 -3 hlineto
          86 callgsubr
          endchar
        </CharString>
        <CharString name="dvDH_VA">
          420 379 607 39 callsubr
          -339 -107 134 -3 hlineto
          -70 callgsubr
          vvcurveto
          -111 61 -51 177 97 58 11 24 55 vhcurveto
          -23 35 51 -10 69 hhcurveto
          -13 callsubr
          vlineto
          endchar
        </CharString>
        <CharString name="dvDH_YA">
          487 718 -95 callsubr
          -339 407 rmoveto
          147 callsubr
          -41 7 -36 13 -31 vhcurveto
          -19 -46 -47 -8 -57 183 callsubr
          -339 -107 134 -3 hlineto
          -70 callgsubr
          vvcurveto
          -111 61 -51 167 117 74 20 37 68 vhcurveto
          -23 43 57 -12 69 -97 callgsubr
          vlineto
          endchar
        </CharString>
        <CharString name="dvD_BA">
          -19 291 callgsubr
          424 -66 vlineto
          1 -38 -42 0 -38 158 callsubr
          -65 20 -47 48 299 callsubr
          -129 67 -46 175 159 70 39 133 vhcurveto
          266 -128 -34 vlineto
          233 callgsubr
          100 107 hlineto
          -335 -681 208 callsubr
          -31 150 181 callsubr
          endchar
        </CharString>
        <CharString name="dvD_BHA">
          106 -35 108 callsubr
          544 232 callgsubr
          -50 123 59 51 288 callgsubr
          -7 vlineto
          -253 -146 -51 92 -48 87 -40 26 -75 -41 rlinecurve
          -69 -38 50 -87 41 25 24 15 12 -11 16 -29 rlinecurve
          54 -95 -38 -19 -5 -22 28 -48 rlinecurve
          29 -49 18 -5 59 31 48 26 10 18 -16 37 206 120 rcurveline
          -119 134 421 -116 -34 vlineto
          -47 -21 -2 -85 -92 256 callsubr
          82 301 callsubr
        </CharString>
        <CharString name="dvD_B_RA">
          -23 250 76 181 callsubr
          31 -150 208 callsubr
          335 574 rmoveto
          107 -666 -107 424 -66 vlineto
          1 -38 -42 0 -38 158 callsubr
          -65 30 -47 38 299 callsubr
          -121 59 -41 151 -5 vhcurveto
          -2 vlineto
          -45 -35 -49 -49 -35 -44 rrcurveto
          -4 165 vlineto
          102 141 rlineto
          1 -81 122 504 -128 -34 hlineto
          233 callgsubr
          hlineto
          endchar
        </CharString>
        <CharString name="dvD_DA">
          -74 291 callgsubr
          389 -65 vlineto
          190 callgsubr
          -129 -61 -37 -105 -48 14 -44 45 -17 hvcurveto
          -2 vlineto
          -45 -18 -21 -36 -59 vvcurveto
          -108 63 -35 127 49 51 4 10 33 vhcurveto
          2 -2 -6 -31 -2 -35 1 -27 rlinecurve
          142 269 -116 -24 hlineto
          -47 -21 -2 -85 -82 -20 12 41 40 19 11 52 vhcurveto
          116 105 -134 hlineto
          -32 -14 8 28 27 13 8 33 hvcurveto
          257 206 callgsubr
        </CharString>
        <CharString name="dvD_DHA">
          216 -40 108 callsubr
          659 261 callsubr
          -81 23 -51 45 -27 hvcurveto
          -5 vlineto
          -28 -25 -9 -78 -85 -18 4 34 28 14 8 53 vhcurveto
          277 callsubr
          hvcurveto
          8 101 -38 hlineto
          -129 -46 172 callgsubr
          274 callgsubr
          49 51 9 14 23 hvcurveto
          61 callsubr
          165 callgsubr
          -34 hlineto
          -27 -21 -12 -75 -82 270 callgsubr
          218 206 callgsubr
        </CharString>
        <CharString name="dvD_GA">
          -69 -45 108 callsubr
          394 -66 vlineto
          257 callgsubr
          -149 -61 -47 -135 -103 38 -54 71 -20 hvcurveto
          -62 vlineto
          -32 -12 -8 -20 -12 -13 2 2 -9 vhcurveto
          -2 -90 hlineto
          -9 27 33 -7 38 hhcurveto
          64 30 42 56 hvcurveto
          97 vlineto
          37 2 29 4 24 7 3 -2 rcurveline
          -239 134 421 -116 -34 vlineto
          -47 -21 -2 -85 -82 -20 9 60 60 19 15 285 callsubr
        </CharString>
        <CharString name="dvD_GHA">
          227 271 52 rmoveto
          -85 -18 4 34 28 14 8 53 hvcurveto
          277 callsubr
          33 25 0 -1 21 hvcurveto
          -1 -13 -1 -13 -15 vvcurveto
          -74 19 -49 39 -29 vhcurveto
          -12 vlineto
          -28 -25 -9 -78 vhcurveto
          -311 555 rmoveto
          -107 669 -65 vlineto
          -31 -32 0 -30 hhcurveto
          -84 -57 -13 -33 -35 hvcurveto
          5 -35 -47 2 -49 hhcurveto
          -153 -42 172 callgsubr
          -1 10 11 0 11 hhcurveto
          122 callsubr
          -21 callsubr
          208 206 callgsubr
        </CharString>
        <CharString name="dvD_G_RA">
          -69 -45 108 callsubr
          394 -66 vlineto
          1 -37 -41 0 -35 hhcurveto
          -149 -61 -42 -135 -82 26 -50 49 -27 hvcurveto
          -57 vlineto
          -34 -13 -8 -25 -11 -11 2 2 -10 vhcurveto
          -2 -96 hlineto
          -9 24 31 -8 38 hhcurveto
          58 31 45 59 hvcurveto
          81 5 vlineto
          59 41 288 callgsubr
          -65 vlineto
          -68 -66 -117 -119 -70 -77 rrcurveto
          -3 142 vlineto
          110 131 rlineto
          3 -89 134 465 -116 -29 hlineto
          -47 -21 -2 -85 -82 -20 9 55 60 19 10 285 callsubr
        </CharString>
        <CharString name="dvD_MA">
          192 -70 108 callsubr
          415 -66 vlineto
          257 callgsubr
          -169 -61 -57 -135 -147 67 -50 133 59 51 288 callgsubr
          -63 vlineto
          -49 -4 -13 -17 -57 vvcurveto
          -66 20 -15 78 78 20 9 74 vhcurveto
          31 113 -149 132 699 100 107 vlineto
          -345 -367 rmoveto
          -120 -44 hlineto
          -27 -27 -12 -85 -92 -20 9 70 70 19 15 92 vhcurveto
          228 179 118 -443 -113 hlineto
          endchar
        </CharString>
        <CharString name="dvD_NA">
          -39 -55 251 callsubr
          -38 -42 0 -33 158 callsubr
          -111 51 -52 102 -12 hvcurveto
          -41 -31 -15 -11 -55 -38 -35 -24 0 -25 34 -45 36 -48 21 3 40 30 37 28 14 14 -24 38 169 127 rcurveline
          1 hlineto
          -6 -22 -2 -29 -36 vvcurveto
          143 265 callsubr
          -34 hlineto
          -27 -31 -12 -75 -92 270 callgsubr
          238 206 callgsubr
        </CharString>
        <CharString name="dvD_R">
          -64 33 callsubr
          -263 -643 -54 callgsubr
          endchar
        </CharString>
        <CharString name="dvD_RA">
          -44 33 callsubr
          endchar
        </CharString>
        <CharString name="dvD_VA">
          -4 -55 108 callsubr
          437 -66 vlineto
          1 -39 -44 0 -41 hhcurveto
          -166 -61 -47 -135 -65 20 -48 48 -19 hvcurveto
          262 callgsubr
          190 49 69 99 vhcurveto
          187 callgsubr
          hlineto
          -460 -609 177 callgsubr
        </CharString>
        <CharString name="dvD_YA">
          20 271 147 rmoveto
          -94 -19 12 26 25 16 9 45 hvcurveto
          76 97 -85 hlineto
          -35 -11 10 20 22 14 6 32 hvcurveto
          91 126 106 -334 hlineto
          -12 -36 -40 -7 -60 hhcurveto
          -331 460 rmoveto
          -107 243 -33 vlineto
          -4 -4 0 -2 hhcurveto
          -102 -51 -27 -79 -56 31 -34 57 -5 hvcurveto
          -2 vlineto
          -57 -5 -37 -42 -55 vvcurveto
          -91 61 -31 152 63 64 8 11 51 vhcurveto
          2 -2 rlineto
          -48 224 callgsubr
        </CharString>
        <CharString name="dvE">
          -46 606 107 callgsubr
          -646 -107 89 -233 vlineto
          -1 callgsubr
          vlineto
          endchar
        </CharString>
        <CharString name="dvEcandra">
          -46 606 107 callgsubr
          -646 -107 89 -233 vlineto
          -1 callgsubr
          vlineto
          -144 337 36 callsubr
        </CharString>
        <CharString name="dvEyelash">
          -223 412 606 rmoveto
          -107 -432 107 vlineto
          234 -399 rmoveto
          -125 -75 40 102 hvcurveto
          14 126 vlineto
          -32 18 -14 55 vhcurveto
          199 -110 hlineto
          endchar
        </CharString>
        <CharString name="dvEyelash_HA">
          247 797 -7 rmoveto
          -62 callgsubr
          -897 -107 684 -51 -144 hlineto
          -115 -37 -34 -65 -5 hvcurveto
          0 -150 vlineto
          245 callsubr
          221 hlineto
          4 -1 rlineto
          65 callsubr
          endchar
        </CharString>
        <CharString name="dvEyelash_YA">
          425 656 200 -16 callgsubr
          -1080 -107 541 -36 hlineto
          -3 callsubr
          -200 hlineto
          245 callsubr
          156 hlineto
          -120 20 94 -61 158 63 callgsubr
        </CharString>
        <CharString name="dvG">
          -277 -50 500 rmoveto
          244 callsubr
          hlineto
          -98 callsubr
          257 162 107 -458 vlineto
          endchar
        </CharString>
        <CharString name="dvGA">
          -11 291 callgsubr
          244 callsubr
          3 callsubr
          257 129 -491 263 callsubr
        </CharString>
        <CharString name="dvGH">
          -198 52 callgsubr
          249 107 hlineto
          endchar
        </CharString>
        <CharString name="dvGHA">
          48 300 177 rmoveto
          -85 -22 -39 callgsubr
          174 -297 hlineto
          230 callgsubr
          -365 430 rmoveto
          -107 134 67 callsubr
          60 -51 141 290 callgsubr
          vhcurveto
          3 -2 rlineto
          -74 102 callgsubr
        </CharString>
        <CharString name="dvGH_MA">
          423 809 287 156 callgsubr
          -519 -323 rmoveto
          -75 -22 -39 callgsubr
          244 -220 hlineto
          -57 -22 -16 -68 -2 hvcurveto
          -13 -41 -44 -6 -48 hhcurveto
          519 -168 rmoveto
          -66 callsubr
          -1123 161 callgsubr
          100 68 15 29 64 vhcurveto
          -3 16 20 -1 25 178 callgsubr
          endchar
        </CharString>
        <CharString name="dvGH_NA">
          388 774 9 rmoveto
          -66 callsubr
          -1088 -107 134 -3 hlineto
          -70 callgsubr
          vvcurveto
          -111 40 -51 191 151 60 22 52 23 vhcurveto
          6 hlineto
          236 callsubr
          -484 -43 rmoveto
          -75 -22 13 38 40 22 13 75 hvcurveto
          19 115 -19 hlineto
          -83 -22 16 36 36 12 17 63 hvcurveto
          514 -169 142 callgsubr
          -89 -22 -12 -89 -51 -42 -2 -79 hvcurveto
          endchar
        </CharString>
        <CharString name="dvGH_R">
          -208 469 107 callgsubr
          -534 30 callsubr
        </CharString>
        <CharString name="dvGH_RA">
          38 683 107 callgsubr
          -748 -107 134 -3 vlineto
          86 callgsubr
          -283 -313 rmoveto
          197 callsubr
          164 -287 hlineto
          230 callgsubr
          endchar
        </CharString>
        <CharString name="dvGH_YA">
          480 867 270 callsubr
          -1180 161 callgsubr
          119 74 21 42 75 vhcurveto
          -27 45 60 -14 75 hhcurveto
          29 callgsubr
          -577 79 rmoveto
          -75 -22 -39 callgsubr
          316 194 callsubr
          -42 274 callsubr
          -18 -47 -49 -7 -55 hhcurveto
          421 23 -7 callsubr
        </CharString>
        <CharString name="dvG_BA">
          349 598 20 callgsubr
          139 -164 rmoveto
          -18 callgsubr
          99 107 -1034 -107 244 callsubr
          hlineto
          -98 callsubr
          257 491 -305 vlineto
          -32 callgsubr
          -122 -64 42 callsubr
          252 callgsubr
          endchar
        </CharString>
        <CharString name="dvG_BHA">
          329 715 297 callsubr
          132 -35 50 -117 3 vhcurveto
          0 -458 -107 244 callsubr
          3 callsubr
          257 115 vlineto
          43 8 -18 -49 hvcurveto
          -153 vlineto
          -60 -21 -18 -75 -74 22 -19 97 144 callgsubr
        </CharString>
        <CharString name="dvG_BH_YA">
          783 1014 200 85 callsubr
          132 -35 50 -117 3 vhcurveto
          0 -458 -107 244 callsubr
          3 callsubr
          257 115 vlineto
          240 callsubr
          213 callsubr
          204 hlineto
          -61 45 79 -31 113 -97 callgsubr
          vlineto
          endchar
        </CharString>
        <CharString name="dvG_DA">
          264 660 9 rmoveto
          -30 callgsubr
          -949 -107 244 callsubr
          hlineto
          -98 callsubr
          257 421 232 callgsubr
          -51 133 122 callsubr
          endchar
        </CharString>
        <CharString name="dvG_DHA">
          336 742 131 callsubr
          -687 -29 callgsubr
          60 -51 141 290 callgsubr
          vhcurveto
          3 -2 rlineto
          -74 102 callgsubr
        </CharString>
        <CharString name="dvG_DH_VA">
          728 687 607 67 callgsubr
          19 115 -19 163 callsubr
          -632 -29 callgsubr
          61 -51 177 97 58 11 24 55 vhcurveto
          -23 35 51 -10 69 hhcurveto
          -13 callsubr
          vlineto
          endchar
        </CharString>
        <CharString name="dvG_DH_YA">
          795 1026 -95 callsubr
          -339 407 rmoveto
          147 callsubr
          -41 7 -36 13 -31 vhcurveto
          -19 -46 -47 -8 -57 hhcurveto
          -81 -23 13 38 221 callgsubr
          14 107 -632 -29 callgsubr
          61 -51 167 117 74 20 37 68 vhcurveto
          -23 43 57 -12 69 -97 callgsubr
          vlineto
          endchar
        </CharString>
        <CharString name="dvG_GA">
          282 683 9 rmoveto
          62 callgsubr
          -982 -107 244 callsubr
          hlineto
          -98 callsubr
          257 166 -202 3 callsubr
          257 129 vlineto
          endchar
        </CharString>
        <CharString name="dvG_GHA">
          336 608 177 rmoveto
          -85 -22 -39 callgsubr
          174 -297 hlineto
          230 callgsubr
          134 -168 rmoveto
          -66 callsubr
          -1041 -29 callgsubr
          60 -51 141 290 callgsubr
          vhcurveto
          3 -2 rlineto
          endchar
        </CharString>
        <CharString name="dvG_JA">
          386 491 192 callsubr
          -1071 -107 244 callsubr
          3 callsubr
          257 528 -97 -372 -116 30 vlineto
          82 19 -18 -60 -74 -92 callsubr
          endchar
        </CharString>
        <CharString name="dvG_LA">
          507 544 9 rmoveto
          5 vlineto
          -79 callgsubr
          -1192 -107 244 callsubr
          3 callsubr
          257 647 34 callsubr
          216 callsubr
          hvcurveto
          endchar
        </CharString>
        <CharString name="dvG_MA">
          334 563 109 callgsubr
          87 callgsubr
          -1019 -107 244 callsubr
          3 callsubr
          257 vlineto
          endchar
        </CharString>
        <CharString name="dvG_NA">
          299 685 9 rmoveto
          -66 callsubr
          -984 -107 244 callsubr
          hlineto
          -98 callsubr
          257 439 -159 vlineto
          -240 -85 callsubr
          153 1 rlineto
          endchar
        </CharString>
        <CharString name="dvG_NNA">
          484 554 217 rmoveto
          -52 callgsubr
          306 -208 rmoveto
          -66 callsubr
          -1159 -107 244 callsubr
          hlineto
          -98 callsubr
          257 102 205 callgsubr
        </CharString>
        <CharString name="dvG_N_YA">
          754 985 200 -16 callgsubr
          -1439 -107 244 callsubr
          hlineto
          -98 callsubr
          257 604 -36 vlineto
          -3 callsubr
          -48 0 hlineto
          -240 -85 callsubr
          83 callgsubr
          endchar
        </CharString>
        <CharString name="dvG_R">
          -273 291 callgsubr
          154 -135 3 callsubr
          190 170 107 vlineto
          -2 -292 193 callsubr
        </CharString>
        <CharString name="dvG_RA">
          -10 291 callgsubr
          154 -135 3 callsubr
          190 129 -208 vlineto
          -91 -90 -76 -84 -102 -105 134 callgsubr
          101 129 rlineto
          2 -129 62 callgsubr
          hlineto
          endchar
        </CharString>
        <CharString name="dvG_R_YA">
          405 636 -95 callsubr
          -379 -191 rmoveto
          140 145 rlineto
          -52 46 76 -26 103 -97 callgsubr
          -1090 -107 154 -135 3 callsubr
          190 255 -48 callsubr
          -18 1 -17 3 -16 vhcurveto
          -85 -73 -118 -113 -55 -62 rrcurveto
          -4 vlineto
          endchar
        </CharString>
        <CharString name="dvG_SA">
          400 624 422 -45 callsubr
          -1085 -107 244 callsubr
          3 callsubr
          257 230 -4 callgsubr
          endchar
        </CharString>
        <CharString name="dvG_VA">
          324 711 270 callsubr
          -1009 -107 244 callsubr
          hlineto
          -98 callsubr
          257 465 212 callgsubr
          -102 callsubr
          -128 -60 -54 -134 -140 60 -55 162 285 callgsubr
        </CharString>
        <CharString name="dvG_YA">
          391 622 200 -16 callgsubr
          -1076 -107 244 callsubr
          hlineto
          -98 callsubr
          257 241 -36 vlineto
          294 callsubr
          96 -80 181 -46 callsubr
          vhcurveto
          4 -2 rlineto
          endchar
        </CharString>
        <CharString name="dvGx">
          -271 194 48 -107 callgsubr
          -244 452 rmoveto
          244 callsubr
          hlineto
          -98 callsubr
          257 162 107 -458 vlineto
          endchar
        </CharString>
        <CharString name="dvGxA">
          -11 194 63 -107 callgsubr
          -244 544 rmoveto
          -107 154 -197 3 callsubr
          252 129 -491 263 callsubr
        </CharString>
        <CharString name="dvGx_R">
          -237 -24 108 callsubr
          153 -125 3 callsubr
          180 181 107 vlineto
          -329 94 callgsubr
          325 152 193 callsubr
        </CharString>
        <CharString name="dvGx_RA">
          2 -25 108 callsubr
          154 -125 3 callsubr
          180 114 -218 vlineto
          -87 -84 -95 -99 -77 -86 134 callgsubr
          90 119 rlineto
          3 -119 62 callgsubr
          hlineto
          -511 94 callgsubr
          endchar
        </CharString>
        <CharString name="dvH">
          -95 -33 108 callsubr
          364 -51 -128 -11 callsubr
          78 76 6 7 37 vhcurveto
          73 callsubr
          8 38 38 23 4 59 hvcurveto
          330 104 -315 hlineto
          200 callgsubr
          106 107 hlineto
          endchar
        </CharString>
        <CharString name="dvHA">
          -70 160 callgsubr
          -105 72 -37 180 78 76 6 7 37 vhcurveto
          -62 callgsubr
          hlineto
          endchar
        </CharString>
        <CharString name="dvHA_mU">
          -70 160 callgsubr
          -105 72 -37 180 72 21 -4 -31 -34 -15 -6 -59 -60 -36 20 28 -22 vhcurveto
          -125 -3 hlineto
          -83 31 87 -66 145 hhcurveto
          141 36 39 100 140 -45 10 -159 -105 -29 11 38 36 23 10 59 89 3 -5 -28 hvcurveto
          -8 142 32 vlineto
          81 -34 27 -116 vhcurveto
          -69 hlineto
          -69 -12 4 27 27 12 5 49 hvcurveto
          226 153 90 107 hlineto
          endchar
        </CharString>
        <CharString name="dvHA_mUU">
          -64 160 callgsubr
          -53 32 -43 47 -6 vhcurveto
          -2 vlineto
          -19 -8 -13 -33 -31 vvcurveto
          -96 50 -30 96 38 46 8 9 24 vhcurveto
          -19 84 -4 3 rlineto
          -3 -14 -25 -3 -19 hhcurveto
          -29 -16 5 28 28 8 4 59 73 69 -55 -76 21 hvcurveto
          134 7 hlineto
          -3 10 -3 10 -4 9 rrcurveto
          134 -59 -97 69 -142 hhcurveto
          -15 hlineto
          -66 -20 17 31 36 23 10 59 89 3 -5 -28 hvcurveto
          -8 142 32 vlineto
          81 -34 27 -116 vhcurveto
          -69 hlineto
          -69 -12 4 27 27 12 5 49 hvcurveto
          226 153 90 107 hlineto
          endchar
        </CharString>
        <CharString name="dvHA_mvR">
          -70 560 107 callgsubr
          -593 -107 400 -51 -164 vlineto
          -122 -35 -39 -72 -58 24 -30 42 264 callgsubr
          -44 -10 -31 -27 -77 vvcurveto
          -195 130 198 vlineto
          48 19 12 73 vhcurveto
          83 hlineto
          38 11 -8 -23 -24 -12 -6 -38 hvcurveto
          -19 hlineto
          -70 -39 -31 -92 -96 40 -37 127 32 59 3 7 32 hvcurveto
          96 vlineto
          -3 2 rlineto
          -6 -31 -33 -1 -31 hhcurveto
          -54 -15 4 29 26 15 5 26 hvcurveto
          8 hlineto
          82 36 32 93 94 -46 32 -82 hvcurveto
          -131 hlineto
          -49 -12 4 27 27 12 5 49 hvcurveto
          246 153 hlineto
          endchar
        </CharString>
        <CharString name="dvH_LA">
          699 135 callsubr
          210 153 631 -105 hlineto
          -56 callsubr
          -106 -62 -41 -97 -14 hvcurveto
          -247 -302 0 callgsubr
          288 hlineto
          8 -58 20 -57 29 -54 rrcurveto
          -59 callgsubr
          -1367 -107 364 -51 -128 -11 callsubr
          vhcurveto
          endchar
        </CharString>
        <CharString name="dvH_MA">
          526 912 287 156 callgsubr
          -648 -218 rmoveto
          200 callgsubr
          153 -218 hlineto
          -318 -302 0 callgsubr
          277 hlineto
          -67 2 24 -17 93 hhcurveto
          -48 callgsubr
          -1194 -107 364 -51 -128 -11 callsubr
          vhcurveto
          endchar
        </CharString>
        <CharString name="dvH_NA">
          491 135 callsubr
          210 153 423 -159 142 callgsubr
          -68 -26 -8 -50 -7 hvcurveto
          -235 -302 0 callgsubr
          288 hlineto
          -19 14 26 -5 45 hhcurveto
          28 callgsubr
          -1159 -107 364 -51 -128 -11 callsubr
          vhcurveto
          endchar
        </CharString>
        <CharString name="dvH_NNA">
          676 135 callsubr
          190 153 106 -169 hlineto
          -18 0 -16 1 -15 vhcurveto
          205 -65 rmoveto
          -52 callgsubr
          -457 -237 0 callgsubr
          312 hlineto
          -60 25 54 -23 106 220 callgsubr
          -1334 -107 344 -51 -108 -11 callsubr
          vhcurveto
          endchar
        </CharString>
        <CharString name="dvH_R">
          -26 237 -96 -54 callgsubr
          -270 698 10 callgsubr
        </CharString>
        <CharString name="dvH_RA">
          -26 -33 607 10 callgsubr
        </CharString>
        <CharString name="dvH_VA">
          516 786 176 rmoveto
          -102 callsubr
          -118 -60 -46 -111 -9 hvcurveto
          -262 hlineto
          200 callgsubr
          449 213 callgsubr
          -497 -196 0 callgsubr
          283 hlineto
          -87 21 64 -35 130 hhcurveto
          -13 callsubr
          -1184 -107 364 -51 -128 -11 callsubr
          vhcurveto
          endchar
        </CharString>
        <CharString name="dvH_YA">
          583 135 callsubr
          190 153 245 194 callsubr
          -10 0 -10 1 -10 vhcurveto
          290 -82 -106 callsubr
          -525 -220 0 callgsubr
          308 hlineto
          -68 42 82 -34 119 -97 callgsubr
          -1251 -107 344 -51 -108 -11 callsubr
          vhcurveto
          endchar
        </CharString>
        <CharString name="dvI">
          -66 -40 607 rmoveto
          -26 callgsubr
          hlineto
          endchar
        </CharString>
        <CharString name="dvII">
          -66 533 786 rmoveto
          2 4 -1 104 rlineto
          3 -24 -31 2 -19 hhcurveto
          -137 -48 -51 -88 -52 14 -55 25 -43 hvcurveto
          -3 -354 -26 callgsubr
          -119 hlineto
          -21 34 -13 37 38 vvcurveto
          48 18 25 60 15 13 -1 -2 16 vhcurveto
          endchar
        </CharString>
        <CharString name="dvII_Anusvara">
          -119 496 786 rmoveto
          2 4 -1 105 rlineto
          3 -17 -18 1 -19 hhcurveto
          -137 -48 -51 -88 hvcurveto
          -1 -64 21 -52 47 -34 rrcurveto
          -3 -365 -26 callgsubr
          -116 hlineto
          -45 29 -19 43 47 vvcurveto
          44 17 19 60 13 11 -1 -2 11 vhcurveto
          58 -44 rmoveto
          4 -20 -20 1 -19 hhcurveto
          -20 -20 -1 -4 -20 hvcurveto
          -2 -18 -1 -14 -12 vvcurveto
          -12 1 -13 2 -16 vhcurveto
          -4 20 19 -3 20 hhcurveto
          20 20 3 4 20 hvcurveto
          2 17 1 12 13 vvcurveto
          13 -1 12 -2 18 vhcurveto
          endchar
        </CharString>
        <CharString name="dvJ">
          -156 94 403 rmoveto
          -116 30 vlineto
          82 19 -18 -60 -74 -92 callsubr
          -60 callsubr
          265 106 vlineto
          -604 97 rmoveto
          604 107 -604 hlineto
          endchar
        </CharString>
        <CharString name="dvJA">
          78 -35 108 callsubr
          501 -97 -372 -116 30 vlineto
          82 19 -18 -60 -74 -92 callsubr
          -60 callsubr
          156 callsubr
          vlineto
          endchar
        </CharString>
        <CharString name="dvJH">
          5 -40 108 callsubr
          445 vlineto
          1 -53 rlineto
          -172 hlineto
          -55 callgsubr
          127 55 30 88 9 hvcurveto
          213 105 -226 hlineto
          281 callgsubr
          -72 -2 callsubr
          285 160 256 107 hlineto
          endchar
        </CharString>
        <CharString name="dvJHA">
          239 507 500 92 callgsubr
          -547 267 rmoveto
          -107 429 -53 -155 104 callsubr
          89 callsubr
          hlineto
          endchar
        </CharString>
        <CharString name="dvJH_MA">
          595 824 37 callsubr
          -301 214 rmoveto
          153 -220 hlineto
          -49 -23 -12 -45 -7 hvcurveto
          -102 hlineto
          281 callgsubr
          -72 -2 callsubr
          285 hlineto
          -563 160 rmoveto
          445 hlineto
          1 -53 rlineto
          -172 hlineto
          -55 callgsubr
          127 55 30 88 9 hvcurveto
          104 hlineto
          -18 17 31 -6 54 hhcurveto
          -48 callgsubr
          -1270 vlineto
          endchar
        </CharString>
        <CharString name="dvJH_NA">
          560 -40 500 rmoveto
          445 hlineto
          1 -53 rlineto
          -172 hlineto
          -55 callgsubr
          138 54 36 107 hvcurveto
          5 0 5 5 vvcurveto
          85 hlineto
          -43 8 25 -11 64 hhcurveto
          26 callsubr
          -170 -66 callsubr
          -1235 vlineto
          563 -107 rmoveto
          423 -209 142 callgsubr
          -51 -27 -4 -23 -14 hvcurveto
          -150 hlineto
          14 -31 -46 5 -65 hhcurveto
          -72 -2 callsubr
          285 hlineto
          endchar
        </CharString>
        <CharString name="dvJH_R">
          33 291 callgsubr
          524 -53 -260 vlineto
          -55 callgsubr
          134 55 34 101 3 hvcurveto
          110 -1 hlineto
          -3 vlineto
          -56 -48 -48 -53 -57 -68 159 callgsubr
          106 177 rlineto
          100 -252 vlineto
          37 -26 -55 10 -96 hhcurveto
          -72 -2 callsubr
          374 160 136 107 hlineto
          endchar
        </CharString>
        <CharString name="dvJH_RA">
          324 592 500 rmoveto
          119 -265 -244 hlineto
          37 -26 -55 10 -96 hhcurveto
          -72 -2 callsubr
          374 hlineto
          -632 267 rmoveto
          -107 514 -53 -260 vlineto
          -55 callgsubr
          134 55 34 101 3 hvcurveto
          110 -1 hlineto
          -3 vlineto
          -56 -48 -48 -53 -57 -68 159 callgsubr
          98 166 rlineto
          -115 224 callgsubr
        </CharString>
        <CharString name="dvJH_YA">
          652 523 500 rmoveto
          225 194 callsubr
          -33 4 -30 9 -26 vhcurveto
          -110 hlineto
          281 callgsubr
          -72 -2 callsubr
          285 hlineto
          360 -140 -106 callsubr
          -478 300 rmoveto
          1 -53 rlineto
          -172 hlineto
          -55 callgsubr
          127 55 30 88 9 hvcurveto
          179 hlineto
          -28 45 61 -14 76 -97 callgsubr
          -1327 -107 vlineto
          endchar
        </CharString>
        <CharString name="dvJ_BA">
          480 729 20 callgsubr
          -546 -173 rmoveto
          -60 callsubr
          168 vlineto
          -2 -14 -1 -15 -16 114 callsubr
          -1150 -107 903 -305 vlineto
          -32 callgsubr
          -57 -45 -10 -26 -31 hvcurveto
          -428 8 callsubr
        </CharString>
        <CharString name="dvJ_DA">
          395 183 45 callgsubr
          165 vlineto
          -2 -13 -1 -15 -16 vvcurveto
          223 callsubr
          vhcurveto
          -46 callgsubr
          -1066 -107 834 150 callsubr
          -71 -52 -9 -23 -35 hvcurveto
          -434 8 callsubr
        </CharString>
        <CharString name="dvJ_DDA">
          342 710 -1 rmoveto
          -44 callgsubr
          91 107 -1032 -107 823 -53 -130 hlineto
          -73 -48 -13 -31 -26 hvcurveto
          -417 14 callsubr
          -60 callsubr
          182 vlineto
          -79 5 46 -33 122 81 callsubr
        </CharString>
        <CharString name="dvJ_JA">
          477 582 192 callsubr
          -1147 -107 900 -97 -771 55 callsubr
          endchar
        </CharString>
        <CharString name="dvJ_JHA">
          653 946 500 92 callgsubr
          -118 160 rmoveto
          -53 -155 vlineto
          -74 -49 -13 -31 -26 hvcurveto
          -430 14 callsubr
          -60 callsubr
          196 vlineto
          -81 6 47 -31 108 hhcurveto
          89 callsubr
          -1348 -107 hlineto
          endchar
        </CharString>
        <CharString name="dvJ_J_NYA">
          626 612 -82 rmoveto
          -4 60 -10 31 -15 21 3 4 rcurveline
          -17 34 37 -8 74 hhcurveto
          144 68 25 122 122 -69 16 -143 hvcurveto
          -63 hlineto
          -19 -9 6 21 22 9 6 19 hvcurveto
          344 -340 -66 callsubr
          -1296 -107 1047 -54 -381 hlineto
          -65 -41 -12 -31 -21 hvcurveto
          -410 14 callsubr
          -60 callsubr
          181 vlineto
          -78 7 47 -21 89 hhcurveto
          57 hlineto
          64 35 2 -40 -40 -37 -3 -37 -58 -30 3 3 -18 hvcurveto
          -16 3 -6 6 11 vvcurveto
          24 -116 -249 vlineto
          endchar
        </CharString>
        <CharString name="dvJ_J_VA">
          844 592 45 callgsubr
          143 vlineto
          -2 -14 -1 -15 -17 -49 callsubr
          -1514 -107 1266 212 callgsubr
          -102 callsubr
          -58 -44 -11 -25 -31 hvcurveto
          -814 14 callsubr
          -60 callsubr
          229 vlineto
          82 19 -28 -60 -74 -92 callsubr
          endchar
        </CharString>
        <CharString name="dvJ_J_YA">
          932 1163 255 callgsubr
          22 48 -1 hvcurveto
          121 7 43 49 102 vvcurveto
          72 149 -272 vlineto
          -20 -43 -50 -8 -63 hhcurveto
          -560 -200 rmoveto
          163 callgsubr
          117 hlineto
          -128 19 94 -64 161 -97 callgsubr
          -1602 -107 1063 -30 vlineto
          -72 -11 -20 -60 -4 vhcurveto
          -863 41 callgsubr
          215 callsubr
          36 -7 30 -15 21 hvcurveto
          205 174 callgsubr
          endchar
        </CharString>
        <CharString name="dvJ_KA">
          764 183 45 callgsubr
          157 vlineto
          -1 -14 -1 -16 -17 vvcurveto
          140 callsubr
          vhcurveto
          2 -78 -99 callgsubr
          -1419 -107 860 -296 hlineto
          155 callsubr
          50 14 17 62 36 27 -5 -6 9 callsubr
          2 114 rlineto
          11 -37 -51 6 -47 hhcurveto
          -58 -41 -9 -24 -27 hvcurveto
          -412 8 callsubr
        </CharString>
        <CharString name="dvJ_MA">
          465 694 109 callgsubr
          -97 -452 -116 30 vlineto
          82 19 -18 -60 -74 -92 callsubr
          -60 callsubr
          242 -17 -19 callgsubr
          -1135 -107 vlineto
          endchar
        </CharString>
        <CharString name="dvJ_NA">
          420 173 hmoveto
          163 callgsubr
          123 hlineto
          -83 20 -17 80 79 22 9 85 2 vhcurveto
          152 1 rlineto
          -254 -66 callsubr
          -1100 -107 851 -125 vlineto
          -250 -1 rlineto
          -472 41 callgsubr
          endchar
        </CharString>
        <CharString name="dvJ_NY">
          -89 -30 607 rmoveto
          630 -107 -630 hlineto
          630 -160 rmoveto
          -380 hlineto
          -23 -15 -4 -25 -25 15 -4 23 hvcurveto
          92 hlineto
          136 48 -41 -100 -100 -61 -41 -151 -56 -59 7 12 -28 hvcurveto
          -3 -3 rlineto
          10 -28 2 -24 -38 vvcurveto
          -125 231 103 -8 hlineto
          -29 37 -7 77 89 25 7 29 29 -13 7 -74 vhcurveto
          -65 hlineto
          -117 -45 37 96 95 52 34 122 hvcurveto
          384 hlineto
          endchar
        </CharString>
        <CharString name="dvJ_NYA">
          184 -30 108 callsubr
          600 -53 -354 57 callgsubr
          350 -331 149 244 callgsubr
        </CharString>
        <CharString name="dvJ_NY_R">
          100 -30 500 rmoveto
          793 107 -793 hlineto
          180 -681 129 callgsubr
          534 hlineto
          -82 -89 -127 -150 -66 -91 239 callgsubr
          108 202 rlineto
          239 -547 vlineto
          146 callgsubr
        </CharString>
        <CharString name="dvJ_NY_RA">
          334 -30 108 callsubr
          750 -53 -504 57 callgsubr
          500 -42 hlineto
          -1 3 rlineto
          -3 170 callsubr
          4 -134 149 244 callgsubr
        </CharString>
        <CharString name="dvJ_NY_YA">
          589 820 -95 callsubr
          -670 -274 129 callgsubr
          260 hlineto
          33 16 -12 -28 hvcurveto
          0 vlineto
          -148 5 96 -76 176 -97 callgsubr
          -1254 -107 715 -36 vlineto
          -60 -8 -24 -37 -8 vhcurveto
          42 -12 -56 33 -68 hhcurveto
          -288 hlineto
          146 callgsubr
        </CharString>
        <CharString name="dvJ_R">
          -152 95 419 rmoveto
          3 callgsubr
          268 vlineto
          -87 -89 -110 -131 -70 -98 239 callgsubr
          101 202 rlineto
          231 vlineto
          -618 81 rmoveto
          618 107 -618 hlineto
          endchar
        </CharString>
        <CharString name="dvJ_RA">
          138 -35 108 callsubr
          561 -81 -421 3 callgsubr
          221 -30 170 callsubr
          3 -114 147 244 callgsubr
        </CharString>
        <CharString name="dvJ_TA">
          422 173 45 callgsubr
          176 vlineto
          -1 -10 -1 -11 -12 vvcurveto
          -87 22 -81 37 -90 vhcurveto
          -5 callgsubr
          -1102 -107 854 -5 callsubr
          -35 -31 -3 -6 -27 hvcurveto
          -489 8 callsubr
        </CharString>
        <CharString name="dvJ_TTA">
          337 701 hmoveto
          -78 callgsubr
          -1007 -107 756 -64 hlineto
          -20 -18 0 -16 hhcurveto
          -55 -44 -9 -24 -32 hvcurveto
          -442 14 callsubr
          -60 callsubr
          173 vlineto
          -5 -23 -2 -26 -30 205 callsubr
        </CharString>
        <CharString name="dvJ_VA">
          455 183 45 callgsubr
          163 vlineto
          -2 -14 -1 -15 -17 -49 callsubr
          -1125 -107 877 212 callgsubr
          -102 callsubr
          -58 -44 -11 -25 -31 hvcurveto
          -425 8 callsubr
        </CharString>
        <CharString name="dvJ_YA">
          2 callsubr
          endchar
        </CharString>
        <CharString name="dvJx">
          -166 162 -59 -107 callgsubr
          -68 462 rmoveto
          -116 30 vlineto
          82 19 -18 -60 -74 -92 callsubr
          -60 callsubr
          265 106 vlineto
          -604 97 rmoveto
          604 107 -604 hlineto
          endchar
        </CharString>
        <CharString name="dvJxA">
          78 156 -59 -107 callgsubr
          -191 666 rmoveto
          -107 501 -97 -372 -116 30 vlineto
          82 19 -18 -60 -74 -92 callsubr
          -60 callsubr
          156 callsubr
          vlineto
          endchar
        </CharString>
        <CharString name="dvJx_JxA">
          487 582 45 callgsubr
          172 180 callgsubr
          100 107 -1157 -107 910 -97 -781 55 callsubr
          -420 -59 -107 callgsubr
          413 4 -41 callgsubr
        </CharString>
        <CharString name="dvJx_R">
          -152 186 -19 -107 callgsubr
          -91 438 rmoveto
          3 callgsubr
          268 vlineto
          -87 -89 -110 -131 -70 -98 239 callgsubr
          101 202 rlineto
          231 vlineto
          -618 81 rmoveto
          618 107 -618 hlineto
          endchar
        </CharString>
        <CharString name="dvJx_RA">
          128 192 -19 -107 callgsubr
          -227 626 rmoveto
          -107 561 -81 -421 3 callgsubr
          221 -30 170 callsubr
          3 -114 147 244 callgsubr
        </CharString>
        <CharString name="dvJx_YA">
          2 callsubr
          15 -59 -41 callgsubr
        </CharString>
        <CharString name="dvK">
          130 -25 607 rmoveto
          -105 callsubr
          148 283 hlineto
          34 callgsubr
          331 107 hlineto
          endchar
        </CharString>
        <CharString name="dvKA">
          325 -25 108 callsubr
          411 -27 callgsubr
          -127 -46 -46 -140 140 callsubr
          hvcurveto
          2 -78 -99 callgsubr
          hlineto
          endchar
        </CharString>
        <CharString name="dvKH">
          56 -30 607 rmoveto
          -67 callgsubr
          234 111 83 91 22 vhcurveto
          93 vlineto
          -4 2 rlineto
          -14 -35 -50 -11 -65 -103 callsubr
          -25 -28 -50 -13 -123 hhcurveto
          -69 callgsubr
          402 107 vlineto
          endchar
        </CharString>
        <CharString name="dvKHA">
          301 -30 607 rmoveto
          -67 callgsubr
          214 callsubr
          vhcurveto
          125 callsubr
          hlineto
          -572 -495 -19 callsubr
          359 -245 vlineto
          -10 -31 -38 -3 -42 -103 callsubr
          -31 -28 -89 -7 -84 hhcurveto
          endchar
        </CharString>
        <CharString name="dvKH_KHA">
          952 50 callsubr
          509 -67 vlineto
          -68 -33 -14 -73 vhcurveto
          -45 -97 hlineto
          -7 -30 -37 -5 -43 -103 callsubr
          -25 -28 -50 -13 -123 hhcurveto
          651 hmoveto
          -69 callgsubr
          359 -245 vlineto
          -10 -31 -38 -3 -42 -103 callsubr
          -31 -28 -89 -7 -84 hhcurveto
          -114 vmoveto
          214 callsubr
          hvcurveto
          125 callsubr
          -1617 -107 217 -67 hlineto
          -68 -33 -14 -73 vhcurveto
          -45 -130 hlineto
          -154 106 -69 222 188 109 54 68 47 vhcurveto
          -84 40 101 -38 166 hhcurveto
          endchar
        </CharString>
        <CharString name="dvKH_MA">
          677 1063 287 156 callgsubr
          -699 -388 -19 callsubr
          429 -220 vlineto
          -34 -22 -6 -19 -12 hvcurveto
          -8 -31 -37 -5 -45 -103 callsubr
          -25 -28 -50 -13 -123 hhcurveto
          432 -18 rmoveto
          -48 callgsubr
          -1342 -67 callgsubr
          180 108 49 65 50 vhcurveto
          -13 17 30 -5 47 hhcurveto
          endchar
        </CharString>
        <CharString name="dvKH_NA">
          642 50 callsubr
          699 110 callgsubr
          -80 -22 -10 -79 -1 hvcurveto
          -5 -27 -32 -4 -37 -103 callsubr
          -25 -28 -50 -13 -123 hhcurveto
          409 42 rmoveto
          28 callgsubr
          -1307 -67 callgsubr
          221 112 74 85 30 vhcurveto
          -2 12 15 -1 19 hhcurveto
          endchar
        </CharString>
        <CharString name="dvKH_R">
          102 763 500 -4 callsubr
        </CharString>
        <CharString name="dvKH_RA">
          332 962 500 -8 callgsubr
        </CharString>
        <CharString name="dvKH_SHA">
          771 1158 119 callgsubr
          -87 hlineto
          -10 -32 -39 -4 -44 -103 callsubr
          -25 -28 -50 -13 -123 hhcurveto
          -69 callgsubr
          327 107 -686 -67 callgsubr
          234 115 86 91 22 vhcurveto
          -1 5 164 -171 0 callsubr
        </CharString>
        <CharString name="dvKH_TA">
          644 50 callsubr
          702 -5 callsubr
          -126 -72 -34 -114 hvcurveto
          -3 0 -3 -3 vvcurveto
          -8 -30 -38 -5 -45 -103 callsubr
          -25 -28 -50 -13 -123 hhcurveto
          385 -106 rmoveto
          -5 callgsubr
          -1309 -67 callgsubr
          190 109 55 69 46 243 callgsubr
        </CharString>
        <CharString name="dvKH_VA">
          667 50 callsubr
          725 212 callgsubr
          -102 callsubr
          -127 -60 -53 -134 -1 hvcurveto
          -6 -28 -33 -4 -38 -103 callsubr
          -25 -28 -50 -13 -123 hhcurveto
          534 -56 rmoveto
          -13 callsubr
          -1332 -67 callgsubr
          189 109 54 69 46 vhcurveto
          -45 33 60 -20 97 hhcurveto
          endchar
        </CharString>
        <CharString name="dvKH_YA">
          734 50 callsubr
          501 -48 callsubr
          -21 2 -20 3 -19 vhcurveto
          -6 -28 -34 -4 -40 -103 callsubr
          -25 -28 -50 -13 -123 hhcurveto
          601 88 -106 callsubr
          -14 -124 rmoveto
          -96 callgsubr
          -1399 -67 callgsubr
          219 111 72 84 32 vhcurveto
          -52 45 76 -26 104 hhcurveto
          endchar
        </CharString>
        <CharString name="dvKHx">
          36 182 -59 -107 callgsubr
          -212 666 rmoveto
          -67 callgsubr
          234 111 83 91 22 vhcurveto
          93 vlineto
          -4 2 rlineto
          -14 -35 -50 -11 -65 -103 callsubr
          -25 -28 -50 -13 -123 hhcurveto
          -69 callgsubr
          402 107 vlineto
          endchar
        </CharString>
        <CharString name="dvKHxA">
          301 225 -57 rmoveto
          -11 callgsubr
          -255 664 rmoveto
          -67 callgsubr
          214 callsubr
          vhcurveto
          125 callsubr
          hlineto
          -572 -495 -19 callsubr
          359 -245 vlineto
          -10 -31 -38 -3 -42 -103 callsubr
          -31 -28 -89 -7 -84 hhcurveto
          endchar
        </CharString>
        <CharString name="dvKHx_MA">
          657 182 -59 -107 callgsubr
          861 346 156 callgsubr
          -679 -388 -19 callsubr
          409 -220 vlineto
          -37 -22 -7 -23 -12 hvcurveto
          -5 -26 -30 -3 -34 -103 callsubr
          -25 -28 -50 -13 -123 hhcurveto
          412 -18 rmoveto
          -48 callgsubr
          -1322 -67 callgsubr
          173 106 46 60 52 vhcurveto
          -7 18 26 -3 37 hhcurveto
          endchar
        </CharString>
        <CharString name="dvKHx_R">
          102 220 -59 -107 callgsubr
          543 559 -4 callsubr
        </CharString>
        <CharString name="dvKHx_RA">
          332 230 -59 -107 callgsubr
          732 559 -8 callgsubr
        </CharString>
        <CharString name="dvKHx_SA">
          723 182 -59 -107 callgsubr
          182 171 -19 callsubr
          470 7 callgsubr
          -57 hlineto
          -5 -25 -30 -3 -33 -103 callsubr
          -25 -28 -50 -13 -123 hhcurveto
          583 310 -45 callsubr
          -1388 -67 callgsubr
          200 110 60 75 42 vhcurveto
          endchar
        </CharString>
        <CharString name="dvKHx_SHA">
          760 193 -49 -107 callgsubr
          964 656 14 callgsubr
          -87 hlineto
          -11 -32 -39 -3 -43 -103 callsubr
          -25 -28 -50 -13 -123 hhcurveto
          -69 callgsubr
          327 107 -686 -67 callgsubr
          232 121 84 90 23 vhcurveto
          157 -163 0 callsubr
        </CharString>
        <CharString name="dvKHx_TA">
          624 182 -59 -107 callgsubr
          182 171 -19 callsubr
          682 -5 callsubr
          -126 -72 -34 -114 hvcurveto
          -5 0 -4 -4 vvcurveto
          -6 -26 -31 -3 -36 -103 callsubr
          -25 -28 -50 -13 -123 hhcurveto
          365 -106 rmoveto
          -5 callgsubr
          -1289 -67 callgsubr
          172 106 45 60 52 vhcurveto
          10 -32 11 -32 14 -33 rrcurveto
          endchar
        </CharString>
        <CharString name="dvKHx_VA">
          647 182 -59 -107 callgsubr
          182 171 -19 callsubr
          705 212 callgsubr
          -102 callsubr
          -128 -60 -54 -134 hvcurveto
          -3 vlineto
          -4 -23 -27 -2 -29 -103 callsubr
          -25 -28 -50 -13 -123 hhcurveto
          514 -56 rmoveto
          -13 callsubr
          -1312 -67 callgsubr
          177 107 48 62 51 vhcurveto
          -36 34 58 -16 87 hhcurveto
          endchar
        </CharString>
        <CharString name="dvKHx_YA">
          714 182 -59 -107 callgsubr
          182 171 -19 callsubr
          481 -48 callsubr
          -23 2 -21 4 -19 vhcurveto
          -4 -24 -28 -3 -31 -103 callsubr
          -25 -28 -50 -13 -123 hhcurveto
          581 88 -106 callsubr
          -14 -124 rmoveto
          -96 callgsubr
          -1379 -67 callgsubr
          206 111 64 78 38 vhcurveto
          -42 47 71 -22 94 hhcurveto
          endchar
        </CharString>
        <CharString name="dvK_CA">
          692 950 186 rmoveto
          -75 -25 10 48 37 19 10 28 hvcurveto
          80 106 -295 hlineto
          -68 -40 -8 -23 -40 hvcurveto
          134 544 -286 vlineto
          -17 -26 -64 -11 -38 hhcurveto
          -416 -177 rmoveto
          230 vlineto
          94 51 54 -7 56 -2 2 -3 rcurveline
          -18 -12 -13 -27 -44 vvcurveto
          -94 70 -43 142 44 71 12 18 42 vhcurveto
          -79 -66 callsubr
          -1352 -105 callsubr
          hlineto
          endchar
        </CharString>
        <CharString name="dvK_DA">
          661 288 callsubr
          530 -66 vlineto
          257 callgsubr
          -80 -56 -12 -29 -35 hvcurveto
          7 -27 -33 3 -41 149 callsubr
          -370 79 callgsubr
          32 25 -1 -4 17 hvcurveto
          -5 0 -6 -6 vvcurveto
          223 callsubr
          vhcurveto
          -46 callgsubr
          -1321 -107 411 -296 hlineto
          -65 callgsubr
        </CharString>
        <CharString name="dvK_JA">
          723 682 403 rmoveto
          -68 -40 -8 -23 -40 hvcurveto
          128 577 -97 vlineto
          -283 -403 rmoveto
          228 callsubr
          44 -38 15 hvcurveto
          1 156 callsubr
          -1383 -105 callsubr
          148 236 hlineto
          46 70 77 -2 92 hhcurveto
          80 17 -23 -57 -74 -92 callsubr
          endchar
        </CharString>
        <CharString name="dvK_KA">
          1020 534 9 rmoveto
          283 vlineto
          16 34 41 9 51 hhcurveto
          24 20 -1 -3 15 hvcurveto
          -3 -18 -1 -21 -24 vvcurveto
          140 callsubr
          vhcurveto
          2 -78 -99 callgsubr
          -1665 -107 411 -296 hlineto
          -107 callsubr
          hlineto
          572 172 80 callsubr
          endchar
        </CharString>
        <CharString name="dvK_KHA">
          986 659 404 rmoveto
          -47 -46 -7 -11 -32 hvcurveto
          114 338 -117 vlineto
          -27 -5 -19 -11 -12 vhcurveto
          46 -33 -71 33 -93 hhcurveto
          390 -292 rmoveto
          -137 -53 31 39 hvcurveto
          17 4 vlineto
          96 55 45 113 hvcurveto
          143 359 -245 vlineto
          -10 -31 -38 -3 -42 -103 callsubr
          -31 -28 -89 -7 -84 hhcurveto
          -114 vmoveto
          214 callsubr
          hvcurveto
          125 callsubr
          -1646 -57 callsubr
          261 hlineto
          10 30 34 5 39 hhcurveto
          40 26 -2 -5 18 hvcurveto
          -77 vlineto
          -134 106 -69 222 vhcurveto
          endchar
        </CharString>
        <CharString name="dvK_LA">
          884 1067 326 rmoveto
          -3 hlineto
          57 -9 -47 37 -105 hhcurveto
          -55 -43 -11 -24 -30 hvcurveto
          6 -26 -32 3 -38 131 callgsubr
          736 -105 hlineto
          -2 -2 rlineto
          17 -15 -25 9 -31 hhcurveto
          -86 -34 -36 -57 -10 hvcurveto
          -533 -317 79 callgsubr
          26 21 -1 -2 16 hvcurveto
          -1 -11 -1 -12 -13 vvcurveto
          216 callsubr
          vhcurveto
          -59 callgsubr
          -1544 -105 callsubr
          hlineto
          endchar
        </CharString>
        <CharString name="dvK_MA">
          711 940 286 rmoveto
          214 157 -213 vlineto
          -561 122 rmoveto
          -2 91 258 -74 hlineto
          5 -28 -34 3 -31 hhcurveto
          -57 -68 -10 -15 -38 hvcurveto
          -2 -400 rmoveto
          282 vlineto
          15 39 55 11 49 hhcurveto
          45 40 -3 -8 30 hvcurveto
          -26 -19 callgsubr
          -1371 -105 callsubr
          hlineto
          endchar
        </CharString>
        <CharString name="dvK_NA">
          716 534 9 79 callgsubr
          49 30 -3 -9 18 hvcurveto
          -5 -13 -2 -18 -25 vvcurveto
          -65 callsubr
          vhcurveto
          153 1 rlineto
          -180 -66 callsubr
          -1376 -105 callsubr
          hlineto
          306 386 rmoveto
          -67 -63 -13 -13 -26 hvcurveto
          -2 131 568 -199 hlineto
          -187 -1 rlineto
          56 -17 -91 39 -115 hhcurveto
          endchar
        </CharString>
        <CharString name="dvK_NNA">
          871 534 349 rmoveto
          151 201 -129 146 callsubr
          405 -132 rmoveto
          -52 callgsubr
          -407 -208 rmoveto
          223 100 callgsubr
          37 26 -2 -5 19 hvcurveto
          -113 13 49 -40 140 220 callgsubr
          -1521 -105 callsubr
          hlineto
          endchar
        </CharString>
        <CharString name="dvK_PA">
          665 534 369 133 callgsubr
          435 -144 6 callgsubr
          -437 -216 rmoveto
          233 100 callgsubr
          36 26 -2 -4 18 hvcurveto
          -118 12 54 -42 128 54 callsubr
          -1325 -105 callsubr
          hlineto
          endchar
        </CharString>
        <CharString name="dvK_PHA">
          986 534 369 133 callgsubr
          437 -141 -88 callsubr
          -439 -219 79 callgsubr
          36 26 -2 -4 18 hvcurveto
          -118 10 53 -48 143 234 callsubr
          -113 149 283 vlineto
          -101 callgsubr
          -1651 -107 411 -296 hlineto
          -65 callgsubr
        </CharString>
        <CharString name="dvK_P_RA">
          665 288 callsubr
          204 -99 vlineto
          2 -18 -19 1 -22 hhcurveto
          -66 callgsubr
          435 -91 6 callsubr
          -437 -279 79 callgsubr
          50 30 -3 -9 18 hvcurveto
          22 -55 43 -23 74 -5 rrcurveto
          -25 callgsubr
          3 -1 rlineto
          -177 -18 callgsubr
          101 107 -1325 -105 callsubr
          hlineto
          endchar
        </CharString>
        <CharString name="dvK_R">
          130 843 500 11 callsubr
        </CharString>
        <CharString name="dvK_RA">
          321 945 107 callgsubr
          -970 43 callsubr
          7 48 hhcurveto
          89 14 -17 -50 -50 -14 -17 -62 -36 -27 5 6 -23 hvcurveto
          -4 -1 -2 -114 rlineto
          -11 37 51 -6 47 hhcurveto
          122 46 46 140 142 -51 46 -165 286 callgsubr
        </CharString>
        <CharString name="dvK_SA">
          787 534 -59 callsubr
          163 -191 -204 vlineto
          29 24 12 35 54 vvcurveto
          -477 -413 139 callgsubr
          292 -186 -100 callsubr
          -1447 -105 callsubr
          hlineto
          endchar
        </CharString>
        <CharString name="dvK_SHA">
          824 1211 277 callgsubr
          -689 113 callgsubr
          180 107 -739 -57 callsubr
          203 289 callsubr
          65 17 -6 -16 16 hvcurveto
          10 -10 1 -1 1 -1 1 -1 rlinecurve
          0 vlineto
          184 -191 0 callsubr
        </CharString>
        <CharString name="dvK_SS">
          24 273 callgsubr
          -73 -17 -12 -47 -44 13 -13 69 76 16 10 23 hvcurveto
          26 135 -231 -143 vlineto
          -1 28 0 17 4 28 -2 1 rcurveline
          -15 -37 -35 -8 -57 hhcurveto
          -124 -68 43 117 84 44 39 51 9 hvcurveto
          3 vlineto
          -45 19 -30 38 80 vvcurveto
          103 70 53 151 148 72 -52 -93 -48 -10 -25 -21 -21 vhcurveto
          -2 271 -110 vlineto
          -459 240 rmoveto
          -56 -23 -22 -35 -40 23 -15 56 63 16 15 40 35 -16 22 -63 hvcurveto
          endchar
        </CharString>
        <CharString name="dvK_SSA">
          242 273 callgsubr
          327 -253 229 callgsubr
          -235 -141 2 hlineto
          -69 callsubr
        </CharString>
        <CharString name="dvK_SS_MA">
          645 273 callgsubr
          361 hlineto
          -13 -14 -5 -23 -38 vvcurveto
          253 callsubr
          vhcurveto
          -24 callgsubr
          -701 -107 147 -128 -238 2 vlineto
          -68 callgsubr
          495 55 rmoveto
          157 -213 hlineto
          -157 -1 rlineto
          endchar
        </CharString>
        <CharString name="dvK_SS_M_YA">
          1051 1283 200 -6 callsubr
          -904 245 15 callsubr
          769 19 62 callsubr
          -846 -238 rmoveto
          344 hlineto
          -1 -7 0 -8 -9 vvcurveto
          -74 23 -19 97 84 21 12 68 4 vhcurveto
          124 1 rlineto
          -104 23 93 -46 155 -97 callgsubr
          -1108 40 callgsubr
          endchar
        </CharString>
        <CharString name="dvK_SS_R">
          142 219 callsubr
          152 256 rlineto
          110 -389 2 vlineto
          -69 callsubr
        </CharString>
        <CharString name="dvK_SS_RA">
          402 219 callsubr
          61 137 rlineto
          4 -134 149 491 98 107 -408 -107 161 -128 -302 2 hlineto
          -69 callsubr
        </CharString>
        <CharString name="dvK_SS_VA">
          635 273 callgsubr
          342 hlineto
          -3 0 -4 -4 -49 callsubr
          -691 128 callsubr
          -79 -52 -20 -47 -30 hvcurveto
          -183 2 hlineto
          -69 callsubr
        </CharString>
        <CharString name="dvK_SS_YA">
          702 273 callgsubr
          344 hlineto
          -123 19 94 -63 160 -97 callgsubr
          -758 -107 219 -36 vlineto
          -59 -7 -24 -36 -9 vhcurveto
          -267 2 hlineto
          -86 callgsubr
          631 -62 -106 callsubr
          -554 245 15 callsubr
          endchar
        </CharString>
        <CharString name="dvK_S_DDA">
          1040 534 -59 callsubr
          455 125 callgsubr
          hvcurveto
          -2 0 -2 -1 vvcurveto
          -193 hlineto
          -39 callsubr
          602 -277 rmoveto
          106 -44 30 -164 vhcurveto
          22 callsubr
          91 107 -1700 -57 callsubr
          202 hlineto
          9 callgsubr
          362 vlineto
          -7 24 31 -3 38 hhcurveto
          -35 callsubr
          156 69 32 114 hvcurveto
          endchar
        </CharString>
        <CharString name="dvK_S_P_LA">
          1633 534 -59 callsubr
          175 -186 vlineto
          -2 0 -2 -1 vvcurveto
          -216 hlineto
          -39 callsubr
          411 -197 74 callgsubr
          685 34 callsubr
          hvcurveto
          -3 0 -3 -2 vvcurveto
          -2 -15 -15 -1 -15 hhcurveto
          -888 -216 139 callgsubr
          319 vlineto
          -70 25 55 -26 101 hhcurveto
          34 36 3 6 34 hvcurveto
          11 -33 14 -34 17 -32 rrcurveto
          -59 callgsubr
          -2293 -105 callsubr
          hlineto
          endchar
        </CharString>
        <CharString name="dvK_S_P_RA">
          1107 534 -59 callsubr
          169 -116 vlineto
          -29 2 -24 3 -22 vhcurveto
          -215 hlineto
          -39 callsubr
          402 -134 6 callsubr
          -879 -279 139 callgsubr
          380 0 vlineto
          20 -8 25 -5 29 -2 rrcurveto
          -25 callgsubr
          3 -1 rlineto
          -177 -18 callgsubr
          101 107 -1747 -107 391 -104 callgsubr
          hlineto
          endchar
        </CharString>
        <CharString name="dvK_S_TA">
          -50 callsubr
        </CharString>
        <CharString name="dvK_S_TTA">
          -50 callsubr
        </CharString>
        <CharString name="dvK_TA">
          398 -15 108 callsubr
          474 -88 -443 -120 94 vlineto
          1 -2 rlineto
          -13 -17 -5 -32 -29 vvcurveto
          -107 46 -45 127 47 51 6 11 37 vhcurveto
          -2 114 -4 1 rlineto
          -6 -23 -27 -5 -36 hhcurveto
          -62 -14 17 40 37 14 17 49 hvcurveto
          163 -283 -99 callgsubr
          hlineto
          endchar
        </CharString>
</ttFont>
